G75*
%MOIN*%
%OFA0B0*%
%FSLAX25Y25*%
%IPPOS*%
%LPD*%
%AMOC8*
5,1,8,0,0,1.08239X$1,22.5*
%
%ADD10C,0.00100*%
D10*
X0019712Y0024444D02*
X0019714Y0024568D01*
X0019720Y0024693D01*
X0019730Y0024817D01*
X0019744Y0024940D01*
X0019761Y0025063D01*
X0019783Y0025186D01*
X0019809Y0025308D01*
X0019838Y0025428D01*
X0019872Y0025548D01*
X0019909Y0025667D01*
X0019950Y0025784D01*
X0019994Y0025900D01*
X0020042Y0026015D01*
X0020094Y0026128D01*
X0020150Y0026239D01*
X0020209Y0026349D01*
X0020271Y0026456D01*
X0020337Y0026562D01*
X0020406Y0026665D01*
X0020479Y0026766D01*
X0020555Y0026865D01*
X0020633Y0026961D01*
X0020715Y0027055D01*
X0020800Y0027146D01*
X0020887Y0027235D01*
X0020978Y0027320D01*
X0021071Y0027403D01*
X0021167Y0027482D01*
X0021265Y0027558D01*
X0021365Y0027632D01*
X0021468Y0027702D01*
X0021573Y0027768D01*
X0021680Y0027832D01*
X0021789Y0027892D01*
X0021900Y0027948D01*
X0022012Y0028001D01*
X0022127Y0028050D01*
X0022242Y0028096D01*
X0022360Y0028137D01*
X0022478Y0028176D01*
X0022598Y0028210D01*
X0022718Y0028240D01*
X0022840Y0028267D01*
X0022962Y0028289D01*
X0023085Y0028308D01*
X0023208Y0028323D01*
X0023332Y0028334D01*
X0023457Y0028341D01*
X0023581Y0028344D01*
X0023705Y0028343D01*
X0023830Y0028338D01*
X0023954Y0028329D01*
X0024077Y0028316D01*
X0024201Y0028299D01*
X0024323Y0028279D01*
X0024445Y0028254D01*
X0024566Y0028225D01*
X0024686Y0028193D01*
X0024805Y0028157D01*
X0024923Y0028117D01*
X0025040Y0028073D01*
X0025155Y0028026D01*
X0025268Y0027975D01*
X0025380Y0027920D01*
X0025490Y0027862D01*
X0025598Y0027801D01*
X0025704Y0027736D01*
X0025808Y0027667D01*
X0025909Y0027596D01*
X0026009Y0027521D01*
X0026106Y0027443D01*
X0026200Y0027362D01*
X0026292Y0027278D01*
X0026381Y0027191D01*
X0026467Y0027101D01*
X0026550Y0027009D01*
X0026630Y0026914D01*
X0026708Y0026816D01*
X0026782Y0026716D01*
X0026853Y0026614D01*
X0026920Y0026510D01*
X0026984Y0026403D01*
X0027045Y0026294D01*
X0027102Y0026184D01*
X0027156Y0026072D01*
X0027206Y0025958D01*
X0027253Y0025843D01*
X0027295Y0025726D01*
X0027334Y0025608D01*
X0027370Y0025488D01*
X0027401Y0025368D01*
X0027428Y0025247D01*
X0027452Y0025125D01*
X0027472Y0025002D01*
X0027488Y0024878D01*
X0027500Y0024755D01*
X0027508Y0024631D01*
X0027512Y0024506D01*
X0027512Y0024382D01*
X0027508Y0024257D01*
X0027500Y0024133D01*
X0027488Y0024010D01*
X0027472Y0023886D01*
X0027452Y0023763D01*
X0027428Y0023641D01*
X0027401Y0023520D01*
X0027370Y0023400D01*
X0027334Y0023280D01*
X0027295Y0023162D01*
X0027253Y0023045D01*
X0027206Y0022930D01*
X0027156Y0022816D01*
X0027102Y0022704D01*
X0027045Y0022594D01*
X0026984Y0022485D01*
X0026920Y0022378D01*
X0026853Y0022274D01*
X0026782Y0022172D01*
X0026708Y0022072D01*
X0026630Y0021974D01*
X0026550Y0021879D01*
X0026467Y0021787D01*
X0026381Y0021697D01*
X0026292Y0021610D01*
X0026200Y0021526D01*
X0026106Y0021445D01*
X0026009Y0021367D01*
X0025909Y0021292D01*
X0025808Y0021221D01*
X0025704Y0021152D01*
X0025598Y0021087D01*
X0025490Y0021026D01*
X0025380Y0020968D01*
X0025268Y0020913D01*
X0025155Y0020862D01*
X0025040Y0020815D01*
X0024923Y0020771D01*
X0024805Y0020731D01*
X0024686Y0020695D01*
X0024566Y0020663D01*
X0024445Y0020634D01*
X0024323Y0020609D01*
X0024201Y0020589D01*
X0024077Y0020572D01*
X0023954Y0020559D01*
X0023830Y0020550D01*
X0023705Y0020545D01*
X0023581Y0020544D01*
X0023457Y0020547D01*
X0023332Y0020554D01*
X0023208Y0020565D01*
X0023085Y0020580D01*
X0022962Y0020599D01*
X0022840Y0020621D01*
X0022718Y0020648D01*
X0022598Y0020678D01*
X0022478Y0020712D01*
X0022360Y0020751D01*
X0022242Y0020792D01*
X0022127Y0020838D01*
X0022012Y0020887D01*
X0021900Y0020940D01*
X0021789Y0020996D01*
X0021680Y0021056D01*
X0021573Y0021120D01*
X0021468Y0021186D01*
X0021365Y0021256D01*
X0021265Y0021330D01*
X0021167Y0021406D01*
X0021071Y0021485D01*
X0020978Y0021568D01*
X0020887Y0021653D01*
X0020800Y0021742D01*
X0020715Y0021833D01*
X0020633Y0021927D01*
X0020555Y0022023D01*
X0020479Y0022122D01*
X0020406Y0022223D01*
X0020337Y0022326D01*
X0020271Y0022432D01*
X0020209Y0022539D01*
X0020150Y0022649D01*
X0020094Y0022760D01*
X0020042Y0022873D01*
X0019994Y0022988D01*
X0019950Y0023104D01*
X0019909Y0023221D01*
X0019872Y0023340D01*
X0019838Y0023460D01*
X0019809Y0023580D01*
X0019783Y0023702D01*
X0019761Y0023825D01*
X0019744Y0023948D01*
X0019730Y0024071D01*
X0019720Y0024195D01*
X0019714Y0024320D01*
X0019712Y0024444D01*
X0019613Y0020444D02*
X0027612Y0028444D01*
X0014713Y0033105D02*
X0014715Y0033229D01*
X0014721Y0033354D01*
X0014731Y0033478D01*
X0014745Y0033601D01*
X0014762Y0033724D01*
X0014784Y0033847D01*
X0014810Y0033969D01*
X0014839Y0034089D01*
X0014873Y0034209D01*
X0014910Y0034328D01*
X0014951Y0034445D01*
X0014995Y0034561D01*
X0015043Y0034676D01*
X0015095Y0034789D01*
X0015151Y0034900D01*
X0015210Y0035010D01*
X0015272Y0035117D01*
X0015338Y0035223D01*
X0015407Y0035326D01*
X0015480Y0035427D01*
X0015556Y0035526D01*
X0015634Y0035622D01*
X0015716Y0035716D01*
X0015801Y0035807D01*
X0015888Y0035896D01*
X0015979Y0035981D01*
X0016072Y0036064D01*
X0016168Y0036143D01*
X0016266Y0036219D01*
X0016366Y0036293D01*
X0016469Y0036363D01*
X0016574Y0036429D01*
X0016681Y0036493D01*
X0016790Y0036553D01*
X0016901Y0036609D01*
X0017013Y0036662D01*
X0017128Y0036711D01*
X0017243Y0036757D01*
X0017361Y0036798D01*
X0017479Y0036837D01*
X0017599Y0036871D01*
X0017719Y0036901D01*
X0017841Y0036928D01*
X0017963Y0036950D01*
X0018086Y0036969D01*
X0018209Y0036984D01*
X0018333Y0036995D01*
X0018458Y0037002D01*
X0018582Y0037005D01*
X0018706Y0037004D01*
X0018831Y0036999D01*
X0018955Y0036990D01*
X0019078Y0036977D01*
X0019202Y0036960D01*
X0019324Y0036940D01*
X0019446Y0036915D01*
X0019567Y0036886D01*
X0019687Y0036854D01*
X0019806Y0036818D01*
X0019924Y0036778D01*
X0020041Y0036734D01*
X0020156Y0036687D01*
X0020269Y0036636D01*
X0020381Y0036581D01*
X0020491Y0036523D01*
X0020599Y0036462D01*
X0020705Y0036397D01*
X0020809Y0036328D01*
X0020910Y0036257D01*
X0021010Y0036182D01*
X0021107Y0036104D01*
X0021201Y0036023D01*
X0021293Y0035939D01*
X0021382Y0035852D01*
X0021468Y0035762D01*
X0021551Y0035670D01*
X0021631Y0035575D01*
X0021709Y0035477D01*
X0021783Y0035377D01*
X0021854Y0035275D01*
X0021921Y0035171D01*
X0021985Y0035064D01*
X0022046Y0034955D01*
X0022103Y0034845D01*
X0022157Y0034733D01*
X0022207Y0034619D01*
X0022254Y0034504D01*
X0022296Y0034387D01*
X0022335Y0034269D01*
X0022371Y0034149D01*
X0022402Y0034029D01*
X0022429Y0033908D01*
X0022453Y0033786D01*
X0022473Y0033663D01*
X0022489Y0033539D01*
X0022501Y0033416D01*
X0022509Y0033292D01*
X0022513Y0033167D01*
X0022513Y0033043D01*
X0022509Y0032918D01*
X0022501Y0032794D01*
X0022489Y0032671D01*
X0022473Y0032547D01*
X0022453Y0032424D01*
X0022429Y0032302D01*
X0022402Y0032181D01*
X0022371Y0032061D01*
X0022335Y0031941D01*
X0022296Y0031823D01*
X0022254Y0031706D01*
X0022207Y0031591D01*
X0022157Y0031477D01*
X0022103Y0031365D01*
X0022046Y0031255D01*
X0021985Y0031146D01*
X0021921Y0031039D01*
X0021854Y0030935D01*
X0021783Y0030833D01*
X0021709Y0030733D01*
X0021631Y0030635D01*
X0021551Y0030540D01*
X0021468Y0030448D01*
X0021382Y0030358D01*
X0021293Y0030271D01*
X0021201Y0030187D01*
X0021107Y0030106D01*
X0021010Y0030028D01*
X0020910Y0029953D01*
X0020809Y0029882D01*
X0020705Y0029813D01*
X0020599Y0029748D01*
X0020491Y0029687D01*
X0020381Y0029629D01*
X0020269Y0029574D01*
X0020156Y0029523D01*
X0020041Y0029476D01*
X0019924Y0029432D01*
X0019806Y0029392D01*
X0019687Y0029356D01*
X0019567Y0029324D01*
X0019446Y0029295D01*
X0019324Y0029270D01*
X0019202Y0029250D01*
X0019078Y0029233D01*
X0018955Y0029220D01*
X0018831Y0029211D01*
X0018706Y0029206D01*
X0018582Y0029205D01*
X0018458Y0029208D01*
X0018333Y0029215D01*
X0018209Y0029226D01*
X0018086Y0029241D01*
X0017963Y0029260D01*
X0017841Y0029282D01*
X0017719Y0029309D01*
X0017599Y0029339D01*
X0017479Y0029373D01*
X0017361Y0029412D01*
X0017243Y0029453D01*
X0017128Y0029499D01*
X0017013Y0029548D01*
X0016901Y0029601D01*
X0016790Y0029657D01*
X0016681Y0029717D01*
X0016574Y0029781D01*
X0016469Y0029847D01*
X0016366Y0029917D01*
X0016266Y0029991D01*
X0016168Y0030067D01*
X0016072Y0030146D01*
X0015979Y0030229D01*
X0015888Y0030314D01*
X0015801Y0030403D01*
X0015716Y0030494D01*
X0015634Y0030588D01*
X0015556Y0030684D01*
X0015480Y0030783D01*
X0015407Y0030884D01*
X0015338Y0030987D01*
X0015272Y0031093D01*
X0015210Y0031200D01*
X0015151Y0031310D01*
X0015095Y0031421D01*
X0015043Y0031534D01*
X0014995Y0031649D01*
X0014951Y0031765D01*
X0014910Y0031882D01*
X0014873Y0032001D01*
X0014839Y0032121D01*
X0014810Y0032241D01*
X0014784Y0032363D01*
X0014762Y0032486D01*
X0014745Y0032609D01*
X0014731Y0032732D01*
X0014721Y0032856D01*
X0014715Y0032981D01*
X0014713Y0033105D01*
X0014612Y0029105D02*
X0022612Y0037105D01*
X0022115Y0034462D02*
X0030115Y0042462D01*
X0030115Y0034462D01*
X0022115Y0042462D01*
X0022115Y0034462D01*
X0020738Y0040962D02*
X0012737Y0040962D01*
X0016738Y0036962D02*
X0016738Y0044962D01*
X0020738Y0046275D02*
X0012737Y0046275D01*
X0016738Y0042275D02*
X0016738Y0050275D01*
X0016442Y0052798D02*
X0016444Y0052922D01*
X0016450Y0053047D01*
X0016460Y0053171D01*
X0016474Y0053294D01*
X0016491Y0053417D01*
X0016513Y0053540D01*
X0016539Y0053662D01*
X0016568Y0053782D01*
X0016602Y0053902D01*
X0016639Y0054021D01*
X0016680Y0054138D01*
X0016724Y0054254D01*
X0016772Y0054369D01*
X0016824Y0054482D01*
X0016880Y0054593D01*
X0016939Y0054703D01*
X0017001Y0054810D01*
X0017067Y0054916D01*
X0017136Y0055019D01*
X0017209Y0055120D01*
X0017285Y0055219D01*
X0017363Y0055315D01*
X0017445Y0055409D01*
X0017530Y0055500D01*
X0017617Y0055589D01*
X0017708Y0055674D01*
X0017801Y0055757D01*
X0017897Y0055836D01*
X0017995Y0055912D01*
X0018095Y0055986D01*
X0018198Y0056056D01*
X0018303Y0056122D01*
X0018410Y0056186D01*
X0018519Y0056246D01*
X0018630Y0056302D01*
X0018742Y0056355D01*
X0018857Y0056404D01*
X0018972Y0056450D01*
X0019090Y0056491D01*
X0019208Y0056530D01*
X0019328Y0056564D01*
X0019448Y0056594D01*
X0019570Y0056621D01*
X0019692Y0056643D01*
X0019815Y0056662D01*
X0019938Y0056677D01*
X0020062Y0056688D01*
X0020187Y0056695D01*
X0020311Y0056698D01*
X0020435Y0056697D01*
X0020560Y0056692D01*
X0020684Y0056683D01*
X0020807Y0056670D01*
X0020931Y0056653D01*
X0021053Y0056633D01*
X0021175Y0056608D01*
X0021296Y0056579D01*
X0021416Y0056547D01*
X0021535Y0056511D01*
X0021653Y0056471D01*
X0021770Y0056427D01*
X0021885Y0056380D01*
X0021998Y0056329D01*
X0022110Y0056274D01*
X0022220Y0056216D01*
X0022328Y0056155D01*
X0022434Y0056090D01*
X0022538Y0056021D01*
X0022639Y0055950D01*
X0022739Y0055875D01*
X0022836Y0055797D01*
X0022930Y0055716D01*
X0023022Y0055632D01*
X0023111Y0055545D01*
X0023197Y0055455D01*
X0023280Y0055363D01*
X0023360Y0055268D01*
X0023438Y0055170D01*
X0023512Y0055070D01*
X0023583Y0054968D01*
X0023650Y0054864D01*
X0023714Y0054757D01*
X0023775Y0054648D01*
X0023832Y0054538D01*
X0023886Y0054426D01*
X0023936Y0054312D01*
X0023983Y0054197D01*
X0024025Y0054080D01*
X0024064Y0053962D01*
X0024100Y0053842D01*
X0024131Y0053722D01*
X0024158Y0053601D01*
X0024182Y0053479D01*
X0024202Y0053356D01*
X0024218Y0053232D01*
X0024230Y0053109D01*
X0024238Y0052985D01*
X0024242Y0052860D01*
X0024242Y0052736D01*
X0024238Y0052611D01*
X0024230Y0052487D01*
X0024218Y0052364D01*
X0024202Y0052240D01*
X0024182Y0052117D01*
X0024158Y0051995D01*
X0024131Y0051874D01*
X0024100Y0051754D01*
X0024064Y0051634D01*
X0024025Y0051516D01*
X0023983Y0051399D01*
X0023936Y0051284D01*
X0023886Y0051170D01*
X0023832Y0051058D01*
X0023775Y0050948D01*
X0023714Y0050839D01*
X0023650Y0050732D01*
X0023583Y0050628D01*
X0023512Y0050526D01*
X0023438Y0050426D01*
X0023360Y0050328D01*
X0023280Y0050233D01*
X0023197Y0050141D01*
X0023111Y0050051D01*
X0023022Y0049964D01*
X0022930Y0049880D01*
X0022836Y0049799D01*
X0022739Y0049721D01*
X0022639Y0049646D01*
X0022538Y0049575D01*
X0022434Y0049506D01*
X0022328Y0049441D01*
X0022220Y0049380D01*
X0022110Y0049322D01*
X0021998Y0049267D01*
X0021885Y0049216D01*
X0021770Y0049169D01*
X0021653Y0049125D01*
X0021535Y0049085D01*
X0021416Y0049049D01*
X0021296Y0049017D01*
X0021175Y0048988D01*
X0021053Y0048963D01*
X0020931Y0048943D01*
X0020807Y0048926D01*
X0020684Y0048913D01*
X0020560Y0048904D01*
X0020435Y0048899D01*
X0020311Y0048898D01*
X0020187Y0048901D01*
X0020062Y0048908D01*
X0019938Y0048919D01*
X0019815Y0048934D01*
X0019692Y0048953D01*
X0019570Y0048975D01*
X0019448Y0049002D01*
X0019328Y0049032D01*
X0019208Y0049066D01*
X0019090Y0049105D01*
X0018972Y0049146D01*
X0018857Y0049192D01*
X0018742Y0049241D01*
X0018630Y0049294D01*
X0018519Y0049350D01*
X0018410Y0049410D01*
X0018303Y0049474D01*
X0018198Y0049540D01*
X0018095Y0049610D01*
X0017995Y0049684D01*
X0017897Y0049760D01*
X0017801Y0049839D01*
X0017708Y0049922D01*
X0017617Y0050007D01*
X0017530Y0050096D01*
X0017445Y0050187D01*
X0017363Y0050281D01*
X0017285Y0050377D01*
X0017209Y0050476D01*
X0017136Y0050577D01*
X0017067Y0050680D01*
X0017001Y0050786D01*
X0016939Y0050893D01*
X0016880Y0051003D01*
X0016824Y0051114D01*
X0016772Y0051227D01*
X0016724Y0051342D01*
X0016680Y0051458D01*
X0016639Y0051575D01*
X0016602Y0051694D01*
X0016568Y0051814D01*
X0016539Y0051934D01*
X0016513Y0052056D01*
X0016491Y0052179D01*
X0016474Y0052302D01*
X0016460Y0052425D01*
X0016450Y0052549D01*
X0016444Y0052674D01*
X0016442Y0052798D01*
X0016342Y0048798D02*
X0024342Y0056798D01*
X0021442Y0061458D02*
X0021444Y0061582D01*
X0021450Y0061707D01*
X0021460Y0061831D01*
X0021474Y0061954D01*
X0021491Y0062077D01*
X0021513Y0062200D01*
X0021539Y0062322D01*
X0021568Y0062442D01*
X0021602Y0062562D01*
X0021639Y0062681D01*
X0021680Y0062798D01*
X0021724Y0062914D01*
X0021772Y0063029D01*
X0021824Y0063142D01*
X0021880Y0063253D01*
X0021939Y0063363D01*
X0022001Y0063470D01*
X0022067Y0063576D01*
X0022136Y0063679D01*
X0022209Y0063780D01*
X0022285Y0063879D01*
X0022363Y0063975D01*
X0022445Y0064069D01*
X0022530Y0064160D01*
X0022617Y0064249D01*
X0022708Y0064334D01*
X0022801Y0064417D01*
X0022897Y0064496D01*
X0022995Y0064572D01*
X0023095Y0064646D01*
X0023198Y0064716D01*
X0023303Y0064782D01*
X0023410Y0064846D01*
X0023519Y0064906D01*
X0023630Y0064962D01*
X0023742Y0065015D01*
X0023857Y0065064D01*
X0023972Y0065110D01*
X0024090Y0065151D01*
X0024208Y0065190D01*
X0024328Y0065224D01*
X0024448Y0065254D01*
X0024570Y0065281D01*
X0024692Y0065303D01*
X0024815Y0065322D01*
X0024938Y0065337D01*
X0025062Y0065348D01*
X0025187Y0065355D01*
X0025311Y0065358D01*
X0025435Y0065357D01*
X0025560Y0065352D01*
X0025684Y0065343D01*
X0025807Y0065330D01*
X0025931Y0065313D01*
X0026053Y0065293D01*
X0026175Y0065268D01*
X0026296Y0065239D01*
X0026416Y0065207D01*
X0026535Y0065171D01*
X0026653Y0065131D01*
X0026770Y0065087D01*
X0026885Y0065040D01*
X0026998Y0064989D01*
X0027110Y0064934D01*
X0027220Y0064876D01*
X0027328Y0064815D01*
X0027434Y0064750D01*
X0027538Y0064681D01*
X0027639Y0064610D01*
X0027739Y0064535D01*
X0027836Y0064457D01*
X0027930Y0064376D01*
X0028022Y0064292D01*
X0028111Y0064205D01*
X0028197Y0064115D01*
X0028280Y0064023D01*
X0028360Y0063928D01*
X0028438Y0063830D01*
X0028512Y0063730D01*
X0028583Y0063628D01*
X0028650Y0063524D01*
X0028714Y0063417D01*
X0028775Y0063308D01*
X0028832Y0063198D01*
X0028886Y0063086D01*
X0028936Y0062972D01*
X0028983Y0062857D01*
X0029025Y0062740D01*
X0029064Y0062622D01*
X0029100Y0062502D01*
X0029131Y0062382D01*
X0029158Y0062261D01*
X0029182Y0062139D01*
X0029202Y0062016D01*
X0029218Y0061892D01*
X0029230Y0061769D01*
X0029238Y0061645D01*
X0029242Y0061520D01*
X0029242Y0061396D01*
X0029238Y0061271D01*
X0029230Y0061147D01*
X0029218Y0061024D01*
X0029202Y0060900D01*
X0029182Y0060777D01*
X0029158Y0060655D01*
X0029131Y0060534D01*
X0029100Y0060414D01*
X0029064Y0060294D01*
X0029025Y0060176D01*
X0028983Y0060059D01*
X0028936Y0059944D01*
X0028886Y0059830D01*
X0028832Y0059718D01*
X0028775Y0059608D01*
X0028714Y0059499D01*
X0028650Y0059392D01*
X0028583Y0059288D01*
X0028512Y0059186D01*
X0028438Y0059086D01*
X0028360Y0058988D01*
X0028280Y0058893D01*
X0028197Y0058801D01*
X0028111Y0058711D01*
X0028022Y0058624D01*
X0027930Y0058540D01*
X0027836Y0058459D01*
X0027739Y0058381D01*
X0027639Y0058306D01*
X0027538Y0058235D01*
X0027434Y0058166D01*
X0027328Y0058101D01*
X0027220Y0058040D01*
X0027110Y0057982D01*
X0026998Y0057927D01*
X0026885Y0057876D01*
X0026770Y0057829D01*
X0026653Y0057785D01*
X0026535Y0057745D01*
X0026416Y0057709D01*
X0026296Y0057677D01*
X0026175Y0057648D01*
X0026053Y0057623D01*
X0025931Y0057603D01*
X0025807Y0057586D01*
X0025684Y0057573D01*
X0025560Y0057564D01*
X0025435Y0057559D01*
X0025311Y0057558D01*
X0025187Y0057561D01*
X0025062Y0057568D01*
X0024938Y0057579D01*
X0024815Y0057594D01*
X0024692Y0057613D01*
X0024570Y0057635D01*
X0024448Y0057662D01*
X0024328Y0057692D01*
X0024208Y0057726D01*
X0024090Y0057765D01*
X0023972Y0057806D01*
X0023857Y0057852D01*
X0023742Y0057901D01*
X0023630Y0057954D01*
X0023519Y0058010D01*
X0023410Y0058070D01*
X0023303Y0058134D01*
X0023198Y0058200D01*
X0023095Y0058270D01*
X0022995Y0058344D01*
X0022897Y0058420D01*
X0022801Y0058499D01*
X0022708Y0058582D01*
X0022617Y0058667D01*
X0022530Y0058756D01*
X0022445Y0058847D01*
X0022363Y0058941D01*
X0022285Y0059037D01*
X0022209Y0059136D01*
X0022136Y0059237D01*
X0022067Y0059340D01*
X0022001Y0059446D01*
X0021939Y0059553D01*
X0021880Y0059663D01*
X0021824Y0059774D01*
X0021772Y0059887D01*
X0021724Y0060002D01*
X0021680Y0060118D01*
X0021639Y0060235D01*
X0021602Y0060354D01*
X0021568Y0060474D01*
X0021539Y0060594D01*
X0021513Y0060716D01*
X0021491Y0060839D01*
X0021474Y0060962D01*
X0021460Y0061085D01*
X0021450Y0061209D01*
X0021444Y0061334D01*
X0021442Y0061458D01*
X0021342Y0057458D02*
X0029342Y0065458D01*
X0026175Y0069400D02*
X0034175Y0069400D01*
X0030175Y0065400D02*
X0030175Y0073400D01*
X0031175Y0067212D02*
X0039175Y0067212D01*
X0035175Y0063212D02*
X0035175Y0071212D01*
X0036900Y0071900D02*
X0036902Y0072024D01*
X0036908Y0072149D01*
X0036918Y0072273D01*
X0036932Y0072396D01*
X0036949Y0072519D01*
X0036971Y0072642D01*
X0036997Y0072764D01*
X0037026Y0072884D01*
X0037060Y0073004D01*
X0037097Y0073123D01*
X0037138Y0073240D01*
X0037182Y0073356D01*
X0037230Y0073471D01*
X0037282Y0073584D01*
X0037338Y0073695D01*
X0037397Y0073805D01*
X0037459Y0073912D01*
X0037525Y0074018D01*
X0037594Y0074121D01*
X0037667Y0074222D01*
X0037743Y0074321D01*
X0037821Y0074417D01*
X0037903Y0074511D01*
X0037988Y0074602D01*
X0038075Y0074691D01*
X0038166Y0074776D01*
X0038259Y0074859D01*
X0038355Y0074938D01*
X0038453Y0075014D01*
X0038553Y0075088D01*
X0038656Y0075158D01*
X0038761Y0075224D01*
X0038868Y0075288D01*
X0038977Y0075348D01*
X0039088Y0075404D01*
X0039200Y0075457D01*
X0039315Y0075506D01*
X0039430Y0075552D01*
X0039548Y0075593D01*
X0039666Y0075632D01*
X0039786Y0075666D01*
X0039906Y0075696D01*
X0040028Y0075723D01*
X0040150Y0075745D01*
X0040273Y0075764D01*
X0040396Y0075779D01*
X0040520Y0075790D01*
X0040645Y0075797D01*
X0040769Y0075800D01*
X0040893Y0075799D01*
X0041018Y0075794D01*
X0041142Y0075785D01*
X0041265Y0075772D01*
X0041389Y0075755D01*
X0041511Y0075735D01*
X0041633Y0075710D01*
X0041754Y0075681D01*
X0041874Y0075649D01*
X0041993Y0075613D01*
X0042111Y0075573D01*
X0042228Y0075529D01*
X0042343Y0075482D01*
X0042456Y0075431D01*
X0042568Y0075376D01*
X0042678Y0075318D01*
X0042786Y0075257D01*
X0042892Y0075192D01*
X0042996Y0075123D01*
X0043097Y0075052D01*
X0043197Y0074977D01*
X0043294Y0074899D01*
X0043388Y0074818D01*
X0043480Y0074734D01*
X0043569Y0074647D01*
X0043655Y0074557D01*
X0043738Y0074465D01*
X0043818Y0074370D01*
X0043896Y0074272D01*
X0043970Y0074172D01*
X0044041Y0074070D01*
X0044108Y0073966D01*
X0044172Y0073859D01*
X0044233Y0073750D01*
X0044290Y0073640D01*
X0044344Y0073528D01*
X0044394Y0073414D01*
X0044441Y0073299D01*
X0044483Y0073182D01*
X0044522Y0073064D01*
X0044558Y0072944D01*
X0044589Y0072824D01*
X0044616Y0072703D01*
X0044640Y0072581D01*
X0044660Y0072458D01*
X0044676Y0072334D01*
X0044688Y0072211D01*
X0044696Y0072087D01*
X0044700Y0071962D01*
X0044700Y0071838D01*
X0044696Y0071713D01*
X0044688Y0071589D01*
X0044676Y0071466D01*
X0044660Y0071342D01*
X0044640Y0071219D01*
X0044616Y0071097D01*
X0044589Y0070976D01*
X0044558Y0070856D01*
X0044522Y0070736D01*
X0044483Y0070618D01*
X0044441Y0070501D01*
X0044394Y0070386D01*
X0044344Y0070272D01*
X0044290Y0070160D01*
X0044233Y0070050D01*
X0044172Y0069941D01*
X0044108Y0069834D01*
X0044041Y0069730D01*
X0043970Y0069628D01*
X0043896Y0069528D01*
X0043818Y0069430D01*
X0043738Y0069335D01*
X0043655Y0069243D01*
X0043569Y0069153D01*
X0043480Y0069066D01*
X0043388Y0068982D01*
X0043294Y0068901D01*
X0043197Y0068823D01*
X0043097Y0068748D01*
X0042996Y0068677D01*
X0042892Y0068608D01*
X0042786Y0068543D01*
X0042678Y0068482D01*
X0042568Y0068424D01*
X0042456Y0068369D01*
X0042343Y0068318D01*
X0042228Y0068271D01*
X0042111Y0068227D01*
X0041993Y0068187D01*
X0041874Y0068151D01*
X0041754Y0068119D01*
X0041633Y0068090D01*
X0041511Y0068065D01*
X0041389Y0068045D01*
X0041265Y0068028D01*
X0041142Y0068015D01*
X0041018Y0068006D01*
X0040893Y0068001D01*
X0040769Y0068000D01*
X0040645Y0068003D01*
X0040520Y0068010D01*
X0040396Y0068021D01*
X0040273Y0068036D01*
X0040150Y0068055D01*
X0040028Y0068077D01*
X0039906Y0068104D01*
X0039786Y0068134D01*
X0039666Y0068168D01*
X0039548Y0068207D01*
X0039430Y0068248D01*
X0039315Y0068294D01*
X0039200Y0068343D01*
X0039088Y0068396D01*
X0038977Y0068452D01*
X0038868Y0068512D01*
X0038761Y0068576D01*
X0038656Y0068642D01*
X0038553Y0068712D01*
X0038453Y0068786D01*
X0038355Y0068862D01*
X0038259Y0068941D01*
X0038166Y0069024D01*
X0038075Y0069109D01*
X0037988Y0069198D01*
X0037903Y0069289D01*
X0037821Y0069383D01*
X0037743Y0069479D01*
X0037667Y0069578D01*
X0037594Y0069679D01*
X0037525Y0069782D01*
X0037459Y0069888D01*
X0037397Y0069995D01*
X0037338Y0070105D01*
X0037282Y0070216D01*
X0037230Y0070329D01*
X0037182Y0070444D01*
X0037138Y0070560D01*
X0037097Y0070677D01*
X0037060Y0070796D01*
X0037026Y0070916D01*
X0036997Y0071036D01*
X0036971Y0071158D01*
X0036949Y0071281D01*
X0036932Y0071404D01*
X0036918Y0071527D01*
X0036908Y0071651D01*
X0036902Y0071776D01*
X0036900Y0071900D01*
X0036800Y0067900D02*
X0044800Y0075900D01*
X0046900Y0071900D02*
X0046902Y0072024D01*
X0046908Y0072149D01*
X0046918Y0072273D01*
X0046932Y0072396D01*
X0046949Y0072519D01*
X0046971Y0072642D01*
X0046997Y0072764D01*
X0047026Y0072884D01*
X0047060Y0073004D01*
X0047097Y0073123D01*
X0047138Y0073240D01*
X0047182Y0073356D01*
X0047230Y0073471D01*
X0047282Y0073584D01*
X0047338Y0073695D01*
X0047397Y0073805D01*
X0047459Y0073912D01*
X0047525Y0074018D01*
X0047594Y0074121D01*
X0047667Y0074222D01*
X0047743Y0074321D01*
X0047821Y0074417D01*
X0047903Y0074511D01*
X0047988Y0074602D01*
X0048075Y0074691D01*
X0048166Y0074776D01*
X0048259Y0074859D01*
X0048355Y0074938D01*
X0048453Y0075014D01*
X0048553Y0075088D01*
X0048656Y0075158D01*
X0048761Y0075224D01*
X0048868Y0075288D01*
X0048977Y0075348D01*
X0049088Y0075404D01*
X0049200Y0075457D01*
X0049315Y0075506D01*
X0049430Y0075552D01*
X0049548Y0075593D01*
X0049666Y0075632D01*
X0049786Y0075666D01*
X0049906Y0075696D01*
X0050028Y0075723D01*
X0050150Y0075745D01*
X0050273Y0075764D01*
X0050396Y0075779D01*
X0050520Y0075790D01*
X0050645Y0075797D01*
X0050769Y0075800D01*
X0050893Y0075799D01*
X0051018Y0075794D01*
X0051142Y0075785D01*
X0051265Y0075772D01*
X0051389Y0075755D01*
X0051511Y0075735D01*
X0051633Y0075710D01*
X0051754Y0075681D01*
X0051874Y0075649D01*
X0051993Y0075613D01*
X0052111Y0075573D01*
X0052228Y0075529D01*
X0052343Y0075482D01*
X0052456Y0075431D01*
X0052568Y0075376D01*
X0052678Y0075318D01*
X0052786Y0075257D01*
X0052892Y0075192D01*
X0052996Y0075123D01*
X0053097Y0075052D01*
X0053197Y0074977D01*
X0053294Y0074899D01*
X0053388Y0074818D01*
X0053480Y0074734D01*
X0053569Y0074647D01*
X0053655Y0074557D01*
X0053738Y0074465D01*
X0053818Y0074370D01*
X0053896Y0074272D01*
X0053970Y0074172D01*
X0054041Y0074070D01*
X0054108Y0073966D01*
X0054172Y0073859D01*
X0054233Y0073750D01*
X0054290Y0073640D01*
X0054344Y0073528D01*
X0054394Y0073414D01*
X0054441Y0073299D01*
X0054483Y0073182D01*
X0054522Y0073064D01*
X0054558Y0072944D01*
X0054589Y0072824D01*
X0054616Y0072703D01*
X0054640Y0072581D01*
X0054660Y0072458D01*
X0054676Y0072334D01*
X0054688Y0072211D01*
X0054696Y0072087D01*
X0054700Y0071962D01*
X0054700Y0071838D01*
X0054696Y0071713D01*
X0054688Y0071589D01*
X0054676Y0071466D01*
X0054660Y0071342D01*
X0054640Y0071219D01*
X0054616Y0071097D01*
X0054589Y0070976D01*
X0054558Y0070856D01*
X0054522Y0070736D01*
X0054483Y0070618D01*
X0054441Y0070501D01*
X0054394Y0070386D01*
X0054344Y0070272D01*
X0054290Y0070160D01*
X0054233Y0070050D01*
X0054172Y0069941D01*
X0054108Y0069834D01*
X0054041Y0069730D01*
X0053970Y0069628D01*
X0053896Y0069528D01*
X0053818Y0069430D01*
X0053738Y0069335D01*
X0053655Y0069243D01*
X0053569Y0069153D01*
X0053480Y0069066D01*
X0053388Y0068982D01*
X0053294Y0068901D01*
X0053197Y0068823D01*
X0053097Y0068748D01*
X0052996Y0068677D01*
X0052892Y0068608D01*
X0052786Y0068543D01*
X0052678Y0068482D01*
X0052568Y0068424D01*
X0052456Y0068369D01*
X0052343Y0068318D01*
X0052228Y0068271D01*
X0052111Y0068227D01*
X0051993Y0068187D01*
X0051874Y0068151D01*
X0051754Y0068119D01*
X0051633Y0068090D01*
X0051511Y0068065D01*
X0051389Y0068045D01*
X0051265Y0068028D01*
X0051142Y0068015D01*
X0051018Y0068006D01*
X0050893Y0068001D01*
X0050769Y0068000D01*
X0050645Y0068003D01*
X0050520Y0068010D01*
X0050396Y0068021D01*
X0050273Y0068036D01*
X0050150Y0068055D01*
X0050028Y0068077D01*
X0049906Y0068104D01*
X0049786Y0068134D01*
X0049666Y0068168D01*
X0049548Y0068207D01*
X0049430Y0068248D01*
X0049315Y0068294D01*
X0049200Y0068343D01*
X0049088Y0068396D01*
X0048977Y0068452D01*
X0048868Y0068512D01*
X0048761Y0068576D01*
X0048656Y0068642D01*
X0048553Y0068712D01*
X0048453Y0068786D01*
X0048355Y0068862D01*
X0048259Y0068941D01*
X0048166Y0069024D01*
X0048075Y0069109D01*
X0047988Y0069198D01*
X0047903Y0069289D01*
X0047821Y0069383D01*
X0047743Y0069479D01*
X0047667Y0069578D01*
X0047594Y0069679D01*
X0047525Y0069782D01*
X0047459Y0069888D01*
X0047397Y0069995D01*
X0047338Y0070105D01*
X0047282Y0070216D01*
X0047230Y0070329D01*
X0047182Y0070444D01*
X0047138Y0070560D01*
X0047097Y0070677D01*
X0047060Y0070796D01*
X0047026Y0070916D01*
X0046997Y0071036D01*
X0046971Y0071158D01*
X0046949Y0071281D01*
X0046932Y0071404D01*
X0046918Y0071527D01*
X0046908Y0071651D01*
X0046902Y0071776D01*
X0046900Y0071900D01*
X0046800Y0067900D02*
X0054800Y0075900D01*
X0050425Y0065025D02*
X0042425Y0065025D01*
X0046425Y0061025D02*
X0046425Y0069025D01*
X0044800Y0065025D02*
X0036800Y0065025D01*
X0040800Y0061025D02*
X0040800Y0069025D01*
X0039175Y0062525D02*
X0031175Y0062525D01*
X0035175Y0058525D02*
X0035175Y0066525D01*
X0031175Y0057837D02*
X0039175Y0057837D01*
X0035175Y0053837D02*
X0035175Y0061837D01*
X0049800Y0055061D02*
X0041800Y0047061D01*
X0049800Y0047061D02*
X0049800Y0055061D01*
X0049800Y0047061D02*
X0041800Y0055061D01*
X0041800Y0047061D01*
X0048675Y0041900D02*
X0056675Y0041900D01*
X0052675Y0037900D02*
X0052675Y0045900D01*
X0053550Y0037837D02*
X0045550Y0037837D01*
X0049550Y0033837D02*
X0049550Y0041837D01*
X0061485Y0034462D02*
X0069485Y0042462D01*
X0069485Y0034462D01*
X0061485Y0042462D01*
X0061485Y0034462D01*
X0068775Y0033417D02*
X0068777Y0033541D01*
X0068783Y0033666D01*
X0068793Y0033790D01*
X0068807Y0033913D01*
X0068824Y0034036D01*
X0068846Y0034159D01*
X0068872Y0034281D01*
X0068901Y0034401D01*
X0068935Y0034521D01*
X0068972Y0034640D01*
X0069013Y0034757D01*
X0069057Y0034873D01*
X0069105Y0034988D01*
X0069157Y0035101D01*
X0069213Y0035212D01*
X0069272Y0035322D01*
X0069334Y0035429D01*
X0069400Y0035535D01*
X0069469Y0035638D01*
X0069542Y0035739D01*
X0069618Y0035838D01*
X0069696Y0035934D01*
X0069778Y0036028D01*
X0069863Y0036119D01*
X0069950Y0036208D01*
X0070041Y0036293D01*
X0070134Y0036376D01*
X0070230Y0036455D01*
X0070328Y0036531D01*
X0070428Y0036605D01*
X0070531Y0036675D01*
X0070636Y0036741D01*
X0070743Y0036805D01*
X0070852Y0036865D01*
X0070963Y0036921D01*
X0071075Y0036974D01*
X0071190Y0037023D01*
X0071305Y0037069D01*
X0071423Y0037110D01*
X0071541Y0037149D01*
X0071661Y0037183D01*
X0071781Y0037213D01*
X0071903Y0037240D01*
X0072025Y0037262D01*
X0072148Y0037281D01*
X0072271Y0037296D01*
X0072395Y0037307D01*
X0072520Y0037314D01*
X0072644Y0037317D01*
X0072768Y0037316D01*
X0072893Y0037311D01*
X0073017Y0037302D01*
X0073140Y0037289D01*
X0073264Y0037272D01*
X0073386Y0037252D01*
X0073508Y0037227D01*
X0073629Y0037198D01*
X0073749Y0037166D01*
X0073868Y0037130D01*
X0073986Y0037090D01*
X0074103Y0037046D01*
X0074218Y0036999D01*
X0074331Y0036948D01*
X0074443Y0036893D01*
X0074553Y0036835D01*
X0074661Y0036774D01*
X0074767Y0036709D01*
X0074871Y0036640D01*
X0074972Y0036569D01*
X0075072Y0036494D01*
X0075169Y0036416D01*
X0075263Y0036335D01*
X0075355Y0036251D01*
X0075444Y0036164D01*
X0075530Y0036074D01*
X0075613Y0035982D01*
X0075693Y0035887D01*
X0075771Y0035789D01*
X0075845Y0035689D01*
X0075916Y0035587D01*
X0075983Y0035483D01*
X0076047Y0035376D01*
X0076108Y0035267D01*
X0076165Y0035157D01*
X0076219Y0035045D01*
X0076269Y0034931D01*
X0076316Y0034816D01*
X0076358Y0034699D01*
X0076397Y0034581D01*
X0076433Y0034461D01*
X0076464Y0034341D01*
X0076491Y0034220D01*
X0076515Y0034098D01*
X0076535Y0033975D01*
X0076551Y0033851D01*
X0076563Y0033728D01*
X0076571Y0033604D01*
X0076575Y0033479D01*
X0076575Y0033355D01*
X0076571Y0033230D01*
X0076563Y0033106D01*
X0076551Y0032983D01*
X0076535Y0032859D01*
X0076515Y0032736D01*
X0076491Y0032614D01*
X0076464Y0032493D01*
X0076433Y0032373D01*
X0076397Y0032253D01*
X0076358Y0032135D01*
X0076316Y0032018D01*
X0076269Y0031903D01*
X0076219Y0031789D01*
X0076165Y0031677D01*
X0076108Y0031567D01*
X0076047Y0031458D01*
X0075983Y0031351D01*
X0075916Y0031247D01*
X0075845Y0031145D01*
X0075771Y0031045D01*
X0075693Y0030947D01*
X0075613Y0030852D01*
X0075530Y0030760D01*
X0075444Y0030670D01*
X0075355Y0030583D01*
X0075263Y0030499D01*
X0075169Y0030418D01*
X0075072Y0030340D01*
X0074972Y0030265D01*
X0074871Y0030194D01*
X0074767Y0030125D01*
X0074661Y0030060D01*
X0074553Y0029999D01*
X0074443Y0029941D01*
X0074331Y0029886D01*
X0074218Y0029835D01*
X0074103Y0029788D01*
X0073986Y0029744D01*
X0073868Y0029704D01*
X0073749Y0029668D01*
X0073629Y0029636D01*
X0073508Y0029607D01*
X0073386Y0029582D01*
X0073264Y0029562D01*
X0073140Y0029545D01*
X0073017Y0029532D01*
X0072893Y0029523D01*
X0072768Y0029518D01*
X0072644Y0029517D01*
X0072520Y0029520D01*
X0072395Y0029527D01*
X0072271Y0029538D01*
X0072148Y0029553D01*
X0072025Y0029572D01*
X0071903Y0029594D01*
X0071781Y0029621D01*
X0071661Y0029651D01*
X0071541Y0029685D01*
X0071423Y0029724D01*
X0071305Y0029765D01*
X0071190Y0029811D01*
X0071075Y0029860D01*
X0070963Y0029913D01*
X0070852Y0029969D01*
X0070743Y0030029D01*
X0070636Y0030093D01*
X0070531Y0030159D01*
X0070428Y0030229D01*
X0070328Y0030303D01*
X0070230Y0030379D01*
X0070134Y0030458D01*
X0070041Y0030541D01*
X0069950Y0030626D01*
X0069863Y0030715D01*
X0069778Y0030806D01*
X0069696Y0030900D01*
X0069618Y0030996D01*
X0069542Y0031095D01*
X0069469Y0031196D01*
X0069400Y0031299D01*
X0069334Y0031405D01*
X0069272Y0031512D01*
X0069213Y0031622D01*
X0069157Y0031733D01*
X0069105Y0031846D01*
X0069057Y0031961D01*
X0069013Y0032077D01*
X0068972Y0032194D01*
X0068935Y0032313D01*
X0068901Y0032433D01*
X0068872Y0032553D01*
X0068846Y0032675D01*
X0068824Y0032798D01*
X0068807Y0032921D01*
X0068793Y0033044D01*
X0068783Y0033168D01*
X0068777Y0033293D01*
X0068775Y0033417D01*
X0068675Y0029417D02*
X0076675Y0037417D01*
X0073550Y0043150D02*
X0065550Y0043150D01*
X0069550Y0039150D02*
X0069550Y0047150D01*
X0065550Y0050650D02*
X0073550Y0050650D01*
X0069550Y0046650D02*
X0069550Y0054650D01*
X0069800Y0054087D02*
X0061800Y0054087D01*
X0065800Y0050087D02*
X0065800Y0058087D01*
X0064800Y0062837D02*
X0056800Y0062837D01*
X0060800Y0058837D02*
X0060800Y0066837D01*
X0059487Y0059712D02*
X0051487Y0059712D01*
X0055487Y0055712D02*
X0055487Y0063712D01*
X0056050Y0064400D02*
X0048050Y0064400D01*
X0052050Y0060400D02*
X0052050Y0068400D01*
X0055425Y0025962D02*
X0047425Y0025962D01*
X0051425Y0021962D02*
X0051425Y0029962D01*
X0047425Y0020962D02*
X0055425Y0020962D01*
X0051425Y0016962D02*
X0051425Y0024962D01*
X0044175Y0020962D02*
X0036175Y0020962D01*
X0040175Y0016962D02*
X0040175Y0024962D01*
X0037425Y0014087D02*
X0045425Y0014087D01*
X0041425Y0010087D02*
X0041425Y0018087D01*
X0041800Y0014087D02*
X0049800Y0014087D01*
X0045800Y0010087D02*
X0045800Y0018087D01*
X0063775Y0024757D02*
X0063777Y0024881D01*
X0063783Y0025006D01*
X0063793Y0025130D01*
X0063807Y0025253D01*
X0063824Y0025376D01*
X0063846Y0025499D01*
X0063872Y0025621D01*
X0063901Y0025741D01*
X0063935Y0025861D01*
X0063972Y0025980D01*
X0064013Y0026097D01*
X0064057Y0026213D01*
X0064105Y0026328D01*
X0064157Y0026441D01*
X0064213Y0026552D01*
X0064272Y0026662D01*
X0064334Y0026769D01*
X0064400Y0026875D01*
X0064469Y0026978D01*
X0064542Y0027079D01*
X0064618Y0027178D01*
X0064696Y0027274D01*
X0064778Y0027368D01*
X0064863Y0027459D01*
X0064950Y0027548D01*
X0065041Y0027633D01*
X0065134Y0027716D01*
X0065230Y0027795D01*
X0065328Y0027871D01*
X0065428Y0027945D01*
X0065531Y0028015D01*
X0065636Y0028081D01*
X0065743Y0028145D01*
X0065852Y0028205D01*
X0065963Y0028261D01*
X0066075Y0028314D01*
X0066190Y0028363D01*
X0066305Y0028409D01*
X0066423Y0028450D01*
X0066541Y0028489D01*
X0066661Y0028523D01*
X0066781Y0028553D01*
X0066903Y0028580D01*
X0067025Y0028602D01*
X0067148Y0028621D01*
X0067271Y0028636D01*
X0067395Y0028647D01*
X0067520Y0028654D01*
X0067644Y0028657D01*
X0067768Y0028656D01*
X0067893Y0028651D01*
X0068017Y0028642D01*
X0068140Y0028629D01*
X0068264Y0028612D01*
X0068386Y0028592D01*
X0068508Y0028567D01*
X0068629Y0028538D01*
X0068749Y0028506D01*
X0068868Y0028470D01*
X0068986Y0028430D01*
X0069103Y0028386D01*
X0069218Y0028339D01*
X0069331Y0028288D01*
X0069443Y0028233D01*
X0069553Y0028175D01*
X0069661Y0028114D01*
X0069767Y0028049D01*
X0069871Y0027980D01*
X0069972Y0027909D01*
X0070072Y0027834D01*
X0070169Y0027756D01*
X0070263Y0027675D01*
X0070355Y0027591D01*
X0070444Y0027504D01*
X0070530Y0027414D01*
X0070613Y0027322D01*
X0070693Y0027227D01*
X0070771Y0027129D01*
X0070845Y0027029D01*
X0070916Y0026927D01*
X0070983Y0026823D01*
X0071047Y0026716D01*
X0071108Y0026607D01*
X0071165Y0026497D01*
X0071219Y0026385D01*
X0071269Y0026271D01*
X0071316Y0026156D01*
X0071358Y0026039D01*
X0071397Y0025921D01*
X0071433Y0025801D01*
X0071464Y0025681D01*
X0071491Y0025560D01*
X0071515Y0025438D01*
X0071535Y0025315D01*
X0071551Y0025191D01*
X0071563Y0025068D01*
X0071571Y0024944D01*
X0071575Y0024819D01*
X0071575Y0024695D01*
X0071571Y0024570D01*
X0071563Y0024446D01*
X0071551Y0024323D01*
X0071535Y0024199D01*
X0071515Y0024076D01*
X0071491Y0023954D01*
X0071464Y0023833D01*
X0071433Y0023713D01*
X0071397Y0023593D01*
X0071358Y0023475D01*
X0071316Y0023358D01*
X0071269Y0023243D01*
X0071219Y0023129D01*
X0071165Y0023017D01*
X0071108Y0022907D01*
X0071047Y0022798D01*
X0070983Y0022691D01*
X0070916Y0022587D01*
X0070845Y0022485D01*
X0070771Y0022385D01*
X0070693Y0022287D01*
X0070613Y0022192D01*
X0070530Y0022100D01*
X0070444Y0022010D01*
X0070355Y0021923D01*
X0070263Y0021839D01*
X0070169Y0021758D01*
X0070072Y0021680D01*
X0069972Y0021605D01*
X0069871Y0021534D01*
X0069767Y0021465D01*
X0069661Y0021400D01*
X0069553Y0021339D01*
X0069443Y0021281D01*
X0069331Y0021226D01*
X0069218Y0021175D01*
X0069103Y0021128D01*
X0068986Y0021084D01*
X0068868Y0021044D01*
X0068749Y0021008D01*
X0068629Y0020976D01*
X0068508Y0020947D01*
X0068386Y0020922D01*
X0068264Y0020902D01*
X0068140Y0020885D01*
X0068017Y0020872D01*
X0067893Y0020863D01*
X0067768Y0020858D01*
X0067644Y0020857D01*
X0067520Y0020860D01*
X0067395Y0020867D01*
X0067271Y0020878D01*
X0067148Y0020893D01*
X0067025Y0020912D01*
X0066903Y0020934D01*
X0066781Y0020961D01*
X0066661Y0020991D01*
X0066541Y0021025D01*
X0066423Y0021064D01*
X0066305Y0021105D01*
X0066190Y0021151D01*
X0066075Y0021200D01*
X0065963Y0021253D01*
X0065852Y0021309D01*
X0065743Y0021369D01*
X0065636Y0021433D01*
X0065531Y0021499D01*
X0065428Y0021569D01*
X0065328Y0021643D01*
X0065230Y0021719D01*
X0065134Y0021798D01*
X0065041Y0021881D01*
X0064950Y0021966D01*
X0064863Y0022055D01*
X0064778Y0022146D01*
X0064696Y0022240D01*
X0064618Y0022336D01*
X0064542Y0022435D01*
X0064469Y0022536D01*
X0064400Y0022639D01*
X0064334Y0022745D01*
X0064272Y0022852D01*
X0064213Y0022962D01*
X0064157Y0023073D01*
X0064105Y0023186D01*
X0064057Y0023301D01*
X0064013Y0023417D01*
X0063972Y0023534D01*
X0063935Y0023653D01*
X0063901Y0023773D01*
X0063872Y0023893D01*
X0063846Y0024015D01*
X0063824Y0024138D01*
X0063807Y0024261D01*
X0063793Y0024384D01*
X0063783Y0024508D01*
X0063777Y0024633D01*
X0063775Y0024757D01*
X0063675Y0020757D02*
X0071675Y0028757D01*
M02*
