G75*
%MOIN*%
%OFA0B0*%
%FSLAX25Y25*%
%IPPOS*%
%LPD*%
%AMOC8*
5,1,8,0,0,1.08239X$1,22.5*
%
%ADD10C,0.07991*%
%ADD11R,0.04528X0.04921*%
%ADD12R,0.04921X0.04528*%
%ADD13OC8,0.06102*%
%ADD14C,0.05765*%
%ADD15C,0.04134*%
D10*
X0023612Y0024444D03*
X0018613Y0033105D03*
X0067675Y0024757D03*
X0072675Y0033417D03*
X0050800Y0071900D03*
X0040800Y0071900D03*
D11*
G36*
X0029798Y0016790D02*
X0025878Y0019054D01*
X0028338Y0023314D01*
X0032258Y0021050D01*
X0029798Y0016790D01*
G37*
G36*
X0035594Y0013443D02*
X0031674Y0015707D01*
X0034134Y0019967D01*
X0038054Y0017703D01*
X0035594Y0013443D01*
G37*
X0053300Y0046678D03*
X0053300Y0053371D03*
X0048521Y0058462D03*
X0041829Y0058462D03*
G36*
X0058319Y0066873D02*
X0054399Y0069137D01*
X0056859Y0073397D01*
X0060779Y0071133D01*
X0058319Y0066873D01*
G37*
G36*
X0064116Y0063527D02*
X0060196Y0065791D01*
X0062656Y0070051D01*
X0066576Y0067787D01*
X0064116Y0063527D01*
G37*
D12*
X0060175Y0053684D03*
X0060175Y0046991D03*
X0074863Y0046809D03*
X0074863Y0040116D03*
D13*
X0065485Y0038462D03*
X0045800Y0051061D03*
X0026115Y0038462D03*
D14*
X0022583Y0051505D02*
X0018102Y0054092D01*
X0023102Y0062752D02*
X0027583Y0060165D01*
D15*
X0035175Y0057837D03*
X0035175Y0062525D03*
X0040800Y0065025D03*
X0035175Y0067212D03*
X0030175Y0069400D03*
X0046425Y0065025D03*
X0052050Y0064400D03*
X0055487Y0059712D03*
X0060800Y0062837D03*
X0065800Y0054087D03*
X0069550Y0050650D03*
X0069550Y0043150D03*
X0052675Y0041900D03*
X0049550Y0037837D03*
X0051425Y0025962D03*
X0051425Y0020962D03*
X0045800Y0014087D03*
X0041425Y0014087D03*
X0040175Y0020962D03*
X0016738Y0040962D03*
X0016738Y0046275D03*
M02*
