G75*
%MOIN*%
%OFA0B0*%
%FSLAX25Y25*%
%IPPOS*%
%LPD*%
%AMOC8*
5,1,8,0,0,1.08239X$1,22.5*
%
%ADD10C,0.00100*%
D10*
X0117069Y0074956D02*
X0117071Y0075080D01*
X0117077Y0075205D01*
X0117087Y0075329D01*
X0117101Y0075452D01*
X0117118Y0075575D01*
X0117140Y0075698D01*
X0117166Y0075820D01*
X0117195Y0075940D01*
X0117229Y0076060D01*
X0117266Y0076179D01*
X0117307Y0076296D01*
X0117351Y0076412D01*
X0117399Y0076527D01*
X0117451Y0076640D01*
X0117507Y0076751D01*
X0117566Y0076861D01*
X0117628Y0076968D01*
X0117694Y0077074D01*
X0117763Y0077177D01*
X0117836Y0077278D01*
X0117912Y0077377D01*
X0117990Y0077473D01*
X0118072Y0077567D01*
X0118157Y0077658D01*
X0118244Y0077747D01*
X0118335Y0077832D01*
X0118428Y0077915D01*
X0118524Y0077994D01*
X0118622Y0078070D01*
X0118722Y0078144D01*
X0118825Y0078214D01*
X0118930Y0078280D01*
X0119037Y0078344D01*
X0119146Y0078404D01*
X0119257Y0078460D01*
X0119369Y0078513D01*
X0119484Y0078562D01*
X0119599Y0078608D01*
X0119717Y0078649D01*
X0119835Y0078688D01*
X0119955Y0078722D01*
X0120075Y0078752D01*
X0120197Y0078779D01*
X0120319Y0078801D01*
X0120442Y0078820D01*
X0120565Y0078835D01*
X0120689Y0078846D01*
X0120814Y0078853D01*
X0120938Y0078856D01*
X0121062Y0078855D01*
X0121187Y0078850D01*
X0121311Y0078841D01*
X0121434Y0078828D01*
X0121558Y0078811D01*
X0121680Y0078791D01*
X0121802Y0078766D01*
X0121923Y0078737D01*
X0122043Y0078705D01*
X0122162Y0078669D01*
X0122280Y0078629D01*
X0122397Y0078585D01*
X0122512Y0078538D01*
X0122625Y0078487D01*
X0122737Y0078432D01*
X0122847Y0078374D01*
X0122955Y0078313D01*
X0123061Y0078248D01*
X0123165Y0078179D01*
X0123266Y0078108D01*
X0123366Y0078033D01*
X0123463Y0077955D01*
X0123557Y0077874D01*
X0123649Y0077790D01*
X0123738Y0077703D01*
X0123824Y0077613D01*
X0123907Y0077521D01*
X0123987Y0077426D01*
X0124065Y0077328D01*
X0124139Y0077228D01*
X0124210Y0077126D01*
X0124277Y0077022D01*
X0124341Y0076915D01*
X0124402Y0076806D01*
X0124459Y0076696D01*
X0124513Y0076584D01*
X0124563Y0076470D01*
X0124610Y0076355D01*
X0124652Y0076238D01*
X0124691Y0076120D01*
X0124727Y0076000D01*
X0124758Y0075880D01*
X0124785Y0075759D01*
X0124809Y0075637D01*
X0124829Y0075514D01*
X0124845Y0075390D01*
X0124857Y0075267D01*
X0124865Y0075143D01*
X0124869Y0075018D01*
X0124869Y0074894D01*
X0124865Y0074769D01*
X0124857Y0074645D01*
X0124845Y0074522D01*
X0124829Y0074398D01*
X0124809Y0074275D01*
X0124785Y0074153D01*
X0124758Y0074032D01*
X0124727Y0073912D01*
X0124691Y0073792D01*
X0124652Y0073674D01*
X0124610Y0073557D01*
X0124563Y0073442D01*
X0124513Y0073328D01*
X0124459Y0073216D01*
X0124402Y0073106D01*
X0124341Y0072997D01*
X0124277Y0072890D01*
X0124210Y0072786D01*
X0124139Y0072684D01*
X0124065Y0072584D01*
X0123987Y0072486D01*
X0123907Y0072391D01*
X0123824Y0072299D01*
X0123738Y0072209D01*
X0123649Y0072122D01*
X0123557Y0072038D01*
X0123463Y0071957D01*
X0123366Y0071879D01*
X0123266Y0071804D01*
X0123165Y0071733D01*
X0123061Y0071664D01*
X0122955Y0071599D01*
X0122847Y0071538D01*
X0122737Y0071480D01*
X0122625Y0071425D01*
X0122512Y0071374D01*
X0122397Y0071327D01*
X0122280Y0071283D01*
X0122162Y0071243D01*
X0122043Y0071207D01*
X0121923Y0071175D01*
X0121802Y0071146D01*
X0121680Y0071121D01*
X0121558Y0071101D01*
X0121434Y0071084D01*
X0121311Y0071071D01*
X0121187Y0071062D01*
X0121062Y0071057D01*
X0120938Y0071056D01*
X0120814Y0071059D01*
X0120689Y0071066D01*
X0120565Y0071077D01*
X0120442Y0071092D01*
X0120319Y0071111D01*
X0120197Y0071133D01*
X0120075Y0071160D01*
X0119955Y0071190D01*
X0119835Y0071224D01*
X0119717Y0071263D01*
X0119599Y0071304D01*
X0119484Y0071350D01*
X0119369Y0071399D01*
X0119257Y0071452D01*
X0119146Y0071508D01*
X0119037Y0071568D01*
X0118930Y0071632D01*
X0118825Y0071698D01*
X0118722Y0071768D01*
X0118622Y0071842D01*
X0118524Y0071918D01*
X0118428Y0071997D01*
X0118335Y0072080D01*
X0118244Y0072165D01*
X0118157Y0072254D01*
X0118072Y0072345D01*
X0117990Y0072439D01*
X0117912Y0072535D01*
X0117836Y0072634D01*
X0117763Y0072735D01*
X0117694Y0072838D01*
X0117628Y0072944D01*
X0117566Y0073051D01*
X0117507Y0073161D01*
X0117451Y0073272D01*
X0117399Y0073385D01*
X0117351Y0073500D01*
X0117307Y0073616D01*
X0117266Y0073733D01*
X0117229Y0073852D01*
X0117195Y0073972D01*
X0117166Y0074092D01*
X0117140Y0074214D01*
X0117118Y0074337D01*
X0117101Y0074460D01*
X0117087Y0074583D01*
X0117077Y0074707D01*
X0117071Y0074832D01*
X0117069Y0074956D01*
X0116969Y0070956D02*
X0124969Y0078956D01*
X0127069Y0074956D02*
X0127071Y0075080D01*
X0127077Y0075205D01*
X0127087Y0075329D01*
X0127101Y0075452D01*
X0127118Y0075575D01*
X0127140Y0075698D01*
X0127166Y0075820D01*
X0127195Y0075940D01*
X0127229Y0076060D01*
X0127266Y0076179D01*
X0127307Y0076296D01*
X0127351Y0076412D01*
X0127399Y0076527D01*
X0127451Y0076640D01*
X0127507Y0076751D01*
X0127566Y0076861D01*
X0127628Y0076968D01*
X0127694Y0077074D01*
X0127763Y0077177D01*
X0127836Y0077278D01*
X0127912Y0077377D01*
X0127990Y0077473D01*
X0128072Y0077567D01*
X0128157Y0077658D01*
X0128244Y0077747D01*
X0128335Y0077832D01*
X0128428Y0077915D01*
X0128524Y0077994D01*
X0128622Y0078070D01*
X0128722Y0078144D01*
X0128825Y0078214D01*
X0128930Y0078280D01*
X0129037Y0078344D01*
X0129146Y0078404D01*
X0129257Y0078460D01*
X0129369Y0078513D01*
X0129484Y0078562D01*
X0129599Y0078608D01*
X0129717Y0078649D01*
X0129835Y0078688D01*
X0129955Y0078722D01*
X0130075Y0078752D01*
X0130197Y0078779D01*
X0130319Y0078801D01*
X0130442Y0078820D01*
X0130565Y0078835D01*
X0130689Y0078846D01*
X0130814Y0078853D01*
X0130938Y0078856D01*
X0131062Y0078855D01*
X0131187Y0078850D01*
X0131311Y0078841D01*
X0131434Y0078828D01*
X0131558Y0078811D01*
X0131680Y0078791D01*
X0131802Y0078766D01*
X0131923Y0078737D01*
X0132043Y0078705D01*
X0132162Y0078669D01*
X0132280Y0078629D01*
X0132397Y0078585D01*
X0132512Y0078538D01*
X0132625Y0078487D01*
X0132737Y0078432D01*
X0132847Y0078374D01*
X0132955Y0078313D01*
X0133061Y0078248D01*
X0133165Y0078179D01*
X0133266Y0078108D01*
X0133366Y0078033D01*
X0133463Y0077955D01*
X0133557Y0077874D01*
X0133649Y0077790D01*
X0133738Y0077703D01*
X0133824Y0077613D01*
X0133907Y0077521D01*
X0133987Y0077426D01*
X0134065Y0077328D01*
X0134139Y0077228D01*
X0134210Y0077126D01*
X0134277Y0077022D01*
X0134341Y0076915D01*
X0134402Y0076806D01*
X0134459Y0076696D01*
X0134513Y0076584D01*
X0134563Y0076470D01*
X0134610Y0076355D01*
X0134652Y0076238D01*
X0134691Y0076120D01*
X0134727Y0076000D01*
X0134758Y0075880D01*
X0134785Y0075759D01*
X0134809Y0075637D01*
X0134829Y0075514D01*
X0134845Y0075390D01*
X0134857Y0075267D01*
X0134865Y0075143D01*
X0134869Y0075018D01*
X0134869Y0074894D01*
X0134865Y0074769D01*
X0134857Y0074645D01*
X0134845Y0074522D01*
X0134829Y0074398D01*
X0134809Y0074275D01*
X0134785Y0074153D01*
X0134758Y0074032D01*
X0134727Y0073912D01*
X0134691Y0073792D01*
X0134652Y0073674D01*
X0134610Y0073557D01*
X0134563Y0073442D01*
X0134513Y0073328D01*
X0134459Y0073216D01*
X0134402Y0073106D01*
X0134341Y0072997D01*
X0134277Y0072890D01*
X0134210Y0072786D01*
X0134139Y0072684D01*
X0134065Y0072584D01*
X0133987Y0072486D01*
X0133907Y0072391D01*
X0133824Y0072299D01*
X0133738Y0072209D01*
X0133649Y0072122D01*
X0133557Y0072038D01*
X0133463Y0071957D01*
X0133366Y0071879D01*
X0133266Y0071804D01*
X0133165Y0071733D01*
X0133061Y0071664D01*
X0132955Y0071599D01*
X0132847Y0071538D01*
X0132737Y0071480D01*
X0132625Y0071425D01*
X0132512Y0071374D01*
X0132397Y0071327D01*
X0132280Y0071283D01*
X0132162Y0071243D01*
X0132043Y0071207D01*
X0131923Y0071175D01*
X0131802Y0071146D01*
X0131680Y0071121D01*
X0131558Y0071101D01*
X0131434Y0071084D01*
X0131311Y0071071D01*
X0131187Y0071062D01*
X0131062Y0071057D01*
X0130938Y0071056D01*
X0130814Y0071059D01*
X0130689Y0071066D01*
X0130565Y0071077D01*
X0130442Y0071092D01*
X0130319Y0071111D01*
X0130197Y0071133D01*
X0130075Y0071160D01*
X0129955Y0071190D01*
X0129835Y0071224D01*
X0129717Y0071263D01*
X0129599Y0071304D01*
X0129484Y0071350D01*
X0129369Y0071399D01*
X0129257Y0071452D01*
X0129146Y0071508D01*
X0129037Y0071568D01*
X0128930Y0071632D01*
X0128825Y0071698D01*
X0128722Y0071768D01*
X0128622Y0071842D01*
X0128524Y0071918D01*
X0128428Y0071997D01*
X0128335Y0072080D01*
X0128244Y0072165D01*
X0128157Y0072254D01*
X0128072Y0072345D01*
X0127990Y0072439D01*
X0127912Y0072535D01*
X0127836Y0072634D01*
X0127763Y0072735D01*
X0127694Y0072838D01*
X0127628Y0072944D01*
X0127566Y0073051D01*
X0127507Y0073161D01*
X0127451Y0073272D01*
X0127399Y0073385D01*
X0127351Y0073500D01*
X0127307Y0073616D01*
X0127266Y0073733D01*
X0127229Y0073852D01*
X0127195Y0073972D01*
X0127166Y0074092D01*
X0127140Y0074214D01*
X0127118Y0074337D01*
X0127101Y0074460D01*
X0127087Y0074583D01*
X0127077Y0074707D01*
X0127071Y0074832D01*
X0127069Y0074956D01*
X0126969Y0070956D02*
X0134969Y0078956D01*
X0137069Y0074956D02*
X0137071Y0075080D01*
X0137077Y0075205D01*
X0137087Y0075329D01*
X0137101Y0075452D01*
X0137118Y0075575D01*
X0137140Y0075698D01*
X0137166Y0075820D01*
X0137195Y0075940D01*
X0137229Y0076060D01*
X0137266Y0076179D01*
X0137307Y0076296D01*
X0137351Y0076412D01*
X0137399Y0076527D01*
X0137451Y0076640D01*
X0137507Y0076751D01*
X0137566Y0076861D01*
X0137628Y0076968D01*
X0137694Y0077074D01*
X0137763Y0077177D01*
X0137836Y0077278D01*
X0137912Y0077377D01*
X0137990Y0077473D01*
X0138072Y0077567D01*
X0138157Y0077658D01*
X0138244Y0077747D01*
X0138335Y0077832D01*
X0138428Y0077915D01*
X0138524Y0077994D01*
X0138622Y0078070D01*
X0138722Y0078144D01*
X0138825Y0078214D01*
X0138930Y0078280D01*
X0139037Y0078344D01*
X0139146Y0078404D01*
X0139257Y0078460D01*
X0139369Y0078513D01*
X0139484Y0078562D01*
X0139599Y0078608D01*
X0139717Y0078649D01*
X0139835Y0078688D01*
X0139955Y0078722D01*
X0140075Y0078752D01*
X0140197Y0078779D01*
X0140319Y0078801D01*
X0140442Y0078820D01*
X0140565Y0078835D01*
X0140689Y0078846D01*
X0140814Y0078853D01*
X0140938Y0078856D01*
X0141062Y0078855D01*
X0141187Y0078850D01*
X0141311Y0078841D01*
X0141434Y0078828D01*
X0141558Y0078811D01*
X0141680Y0078791D01*
X0141802Y0078766D01*
X0141923Y0078737D01*
X0142043Y0078705D01*
X0142162Y0078669D01*
X0142280Y0078629D01*
X0142397Y0078585D01*
X0142512Y0078538D01*
X0142625Y0078487D01*
X0142737Y0078432D01*
X0142847Y0078374D01*
X0142955Y0078313D01*
X0143061Y0078248D01*
X0143165Y0078179D01*
X0143266Y0078108D01*
X0143366Y0078033D01*
X0143463Y0077955D01*
X0143557Y0077874D01*
X0143649Y0077790D01*
X0143738Y0077703D01*
X0143824Y0077613D01*
X0143907Y0077521D01*
X0143987Y0077426D01*
X0144065Y0077328D01*
X0144139Y0077228D01*
X0144210Y0077126D01*
X0144277Y0077022D01*
X0144341Y0076915D01*
X0144402Y0076806D01*
X0144459Y0076696D01*
X0144513Y0076584D01*
X0144563Y0076470D01*
X0144610Y0076355D01*
X0144652Y0076238D01*
X0144691Y0076120D01*
X0144727Y0076000D01*
X0144758Y0075880D01*
X0144785Y0075759D01*
X0144809Y0075637D01*
X0144829Y0075514D01*
X0144845Y0075390D01*
X0144857Y0075267D01*
X0144865Y0075143D01*
X0144869Y0075018D01*
X0144869Y0074894D01*
X0144865Y0074769D01*
X0144857Y0074645D01*
X0144845Y0074522D01*
X0144829Y0074398D01*
X0144809Y0074275D01*
X0144785Y0074153D01*
X0144758Y0074032D01*
X0144727Y0073912D01*
X0144691Y0073792D01*
X0144652Y0073674D01*
X0144610Y0073557D01*
X0144563Y0073442D01*
X0144513Y0073328D01*
X0144459Y0073216D01*
X0144402Y0073106D01*
X0144341Y0072997D01*
X0144277Y0072890D01*
X0144210Y0072786D01*
X0144139Y0072684D01*
X0144065Y0072584D01*
X0143987Y0072486D01*
X0143907Y0072391D01*
X0143824Y0072299D01*
X0143738Y0072209D01*
X0143649Y0072122D01*
X0143557Y0072038D01*
X0143463Y0071957D01*
X0143366Y0071879D01*
X0143266Y0071804D01*
X0143165Y0071733D01*
X0143061Y0071664D01*
X0142955Y0071599D01*
X0142847Y0071538D01*
X0142737Y0071480D01*
X0142625Y0071425D01*
X0142512Y0071374D01*
X0142397Y0071327D01*
X0142280Y0071283D01*
X0142162Y0071243D01*
X0142043Y0071207D01*
X0141923Y0071175D01*
X0141802Y0071146D01*
X0141680Y0071121D01*
X0141558Y0071101D01*
X0141434Y0071084D01*
X0141311Y0071071D01*
X0141187Y0071062D01*
X0141062Y0071057D01*
X0140938Y0071056D01*
X0140814Y0071059D01*
X0140689Y0071066D01*
X0140565Y0071077D01*
X0140442Y0071092D01*
X0140319Y0071111D01*
X0140197Y0071133D01*
X0140075Y0071160D01*
X0139955Y0071190D01*
X0139835Y0071224D01*
X0139717Y0071263D01*
X0139599Y0071304D01*
X0139484Y0071350D01*
X0139369Y0071399D01*
X0139257Y0071452D01*
X0139146Y0071508D01*
X0139037Y0071568D01*
X0138930Y0071632D01*
X0138825Y0071698D01*
X0138722Y0071768D01*
X0138622Y0071842D01*
X0138524Y0071918D01*
X0138428Y0071997D01*
X0138335Y0072080D01*
X0138244Y0072165D01*
X0138157Y0072254D01*
X0138072Y0072345D01*
X0137990Y0072439D01*
X0137912Y0072535D01*
X0137836Y0072634D01*
X0137763Y0072735D01*
X0137694Y0072838D01*
X0137628Y0072944D01*
X0137566Y0073051D01*
X0137507Y0073161D01*
X0137451Y0073272D01*
X0137399Y0073385D01*
X0137351Y0073500D01*
X0137307Y0073616D01*
X0137266Y0073733D01*
X0137229Y0073852D01*
X0137195Y0073972D01*
X0137166Y0074092D01*
X0137140Y0074214D01*
X0137118Y0074337D01*
X0137101Y0074460D01*
X0137087Y0074583D01*
X0137077Y0074707D01*
X0137071Y0074832D01*
X0137069Y0074956D01*
X0136969Y0070956D02*
X0144969Y0078956D01*
X0147069Y0074956D02*
X0147071Y0075080D01*
X0147077Y0075205D01*
X0147087Y0075329D01*
X0147101Y0075452D01*
X0147118Y0075575D01*
X0147140Y0075698D01*
X0147166Y0075820D01*
X0147195Y0075940D01*
X0147229Y0076060D01*
X0147266Y0076179D01*
X0147307Y0076296D01*
X0147351Y0076412D01*
X0147399Y0076527D01*
X0147451Y0076640D01*
X0147507Y0076751D01*
X0147566Y0076861D01*
X0147628Y0076968D01*
X0147694Y0077074D01*
X0147763Y0077177D01*
X0147836Y0077278D01*
X0147912Y0077377D01*
X0147990Y0077473D01*
X0148072Y0077567D01*
X0148157Y0077658D01*
X0148244Y0077747D01*
X0148335Y0077832D01*
X0148428Y0077915D01*
X0148524Y0077994D01*
X0148622Y0078070D01*
X0148722Y0078144D01*
X0148825Y0078214D01*
X0148930Y0078280D01*
X0149037Y0078344D01*
X0149146Y0078404D01*
X0149257Y0078460D01*
X0149369Y0078513D01*
X0149484Y0078562D01*
X0149599Y0078608D01*
X0149717Y0078649D01*
X0149835Y0078688D01*
X0149955Y0078722D01*
X0150075Y0078752D01*
X0150197Y0078779D01*
X0150319Y0078801D01*
X0150442Y0078820D01*
X0150565Y0078835D01*
X0150689Y0078846D01*
X0150814Y0078853D01*
X0150938Y0078856D01*
X0151062Y0078855D01*
X0151187Y0078850D01*
X0151311Y0078841D01*
X0151434Y0078828D01*
X0151558Y0078811D01*
X0151680Y0078791D01*
X0151802Y0078766D01*
X0151923Y0078737D01*
X0152043Y0078705D01*
X0152162Y0078669D01*
X0152280Y0078629D01*
X0152397Y0078585D01*
X0152512Y0078538D01*
X0152625Y0078487D01*
X0152737Y0078432D01*
X0152847Y0078374D01*
X0152955Y0078313D01*
X0153061Y0078248D01*
X0153165Y0078179D01*
X0153266Y0078108D01*
X0153366Y0078033D01*
X0153463Y0077955D01*
X0153557Y0077874D01*
X0153649Y0077790D01*
X0153738Y0077703D01*
X0153824Y0077613D01*
X0153907Y0077521D01*
X0153987Y0077426D01*
X0154065Y0077328D01*
X0154139Y0077228D01*
X0154210Y0077126D01*
X0154277Y0077022D01*
X0154341Y0076915D01*
X0154402Y0076806D01*
X0154459Y0076696D01*
X0154513Y0076584D01*
X0154563Y0076470D01*
X0154610Y0076355D01*
X0154652Y0076238D01*
X0154691Y0076120D01*
X0154727Y0076000D01*
X0154758Y0075880D01*
X0154785Y0075759D01*
X0154809Y0075637D01*
X0154829Y0075514D01*
X0154845Y0075390D01*
X0154857Y0075267D01*
X0154865Y0075143D01*
X0154869Y0075018D01*
X0154869Y0074894D01*
X0154865Y0074769D01*
X0154857Y0074645D01*
X0154845Y0074522D01*
X0154829Y0074398D01*
X0154809Y0074275D01*
X0154785Y0074153D01*
X0154758Y0074032D01*
X0154727Y0073912D01*
X0154691Y0073792D01*
X0154652Y0073674D01*
X0154610Y0073557D01*
X0154563Y0073442D01*
X0154513Y0073328D01*
X0154459Y0073216D01*
X0154402Y0073106D01*
X0154341Y0072997D01*
X0154277Y0072890D01*
X0154210Y0072786D01*
X0154139Y0072684D01*
X0154065Y0072584D01*
X0153987Y0072486D01*
X0153907Y0072391D01*
X0153824Y0072299D01*
X0153738Y0072209D01*
X0153649Y0072122D01*
X0153557Y0072038D01*
X0153463Y0071957D01*
X0153366Y0071879D01*
X0153266Y0071804D01*
X0153165Y0071733D01*
X0153061Y0071664D01*
X0152955Y0071599D01*
X0152847Y0071538D01*
X0152737Y0071480D01*
X0152625Y0071425D01*
X0152512Y0071374D01*
X0152397Y0071327D01*
X0152280Y0071283D01*
X0152162Y0071243D01*
X0152043Y0071207D01*
X0151923Y0071175D01*
X0151802Y0071146D01*
X0151680Y0071121D01*
X0151558Y0071101D01*
X0151434Y0071084D01*
X0151311Y0071071D01*
X0151187Y0071062D01*
X0151062Y0071057D01*
X0150938Y0071056D01*
X0150814Y0071059D01*
X0150689Y0071066D01*
X0150565Y0071077D01*
X0150442Y0071092D01*
X0150319Y0071111D01*
X0150197Y0071133D01*
X0150075Y0071160D01*
X0149955Y0071190D01*
X0149835Y0071224D01*
X0149717Y0071263D01*
X0149599Y0071304D01*
X0149484Y0071350D01*
X0149369Y0071399D01*
X0149257Y0071452D01*
X0149146Y0071508D01*
X0149037Y0071568D01*
X0148930Y0071632D01*
X0148825Y0071698D01*
X0148722Y0071768D01*
X0148622Y0071842D01*
X0148524Y0071918D01*
X0148428Y0071997D01*
X0148335Y0072080D01*
X0148244Y0072165D01*
X0148157Y0072254D01*
X0148072Y0072345D01*
X0147990Y0072439D01*
X0147912Y0072535D01*
X0147836Y0072634D01*
X0147763Y0072735D01*
X0147694Y0072838D01*
X0147628Y0072944D01*
X0147566Y0073051D01*
X0147507Y0073161D01*
X0147451Y0073272D01*
X0147399Y0073385D01*
X0147351Y0073500D01*
X0147307Y0073616D01*
X0147266Y0073733D01*
X0147229Y0073852D01*
X0147195Y0073972D01*
X0147166Y0074092D01*
X0147140Y0074214D01*
X0147118Y0074337D01*
X0147101Y0074460D01*
X0147087Y0074583D01*
X0147077Y0074707D01*
X0147071Y0074832D01*
X0147069Y0074956D01*
X0146969Y0070956D02*
X0154969Y0078956D01*
X0154882Y0085626D02*
X0154884Y0085750D01*
X0154890Y0085875D01*
X0154900Y0085999D01*
X0154914Y0086122D01*
X0154931Y0086245D01*
X0154953Y0086368D01*
X0154979Y0086490D01*
X0155008Y0086610D01*
X0155042Y0086730D01*
X0155079Y0086849D01*
X0155120Y0086966D01*
X0155164Y0087082D01*
X0155212Y0087197D01*
X0155264Y0087310D01*
X0155320Y0087421D01*
X0155379Y0087531D01*
X0155441Y0087638D01*
X0155507Y0087744D01*
X0155576Y0087847D01*
X0155649Y0087948D01*
X0155725Y0088047D01*
X0155803Y0088143D01*
X0155885Y0088237D01*
X0155970Y0088328D01*
X0156057Y0088417D01*
X0156148Y0088502D01*
X0156241Y0088585D01*
X0156337Y0088664D01*
X0156435Y0088740D01*
X0156535Y0088814D01*
X0156638Y0088884D01*
X0156743Y0088950D01*
X0156850Y0089014D01*
X0156959Y0089074D01*
X0157070Y0089130D01*
X0157182Y0089183D01*
X0157297Y0089232D01*
X0157412Y0089278D01*
X0157530Y0089319D01*
X0157648Y0089358D01*
X0157768Y0089392D01*
X0157888Y0089422D01*
X0158010Y0089449D01*
X0158132Y0089471D01*
X0158255Y0089490D01*
X0158378Y0089505D01*
X0158502Y0089516D01*
X0158627Y0089523D01*
X0158751Y0089526D01*
X0158875Y0089525D01*
X0159000Y0089520D01*
X0159124Y0089511D01*
X0159247Y0089498D01*
X0159371Y0089481D01*
X0159493Y0089461D01*
X0159615Y0089436D01*
X0159736Y0089407D01*
X0159856Y0089375D01*
X0159975Y0089339D01*
X0160093Y0089299D01*
X0160210Y0089255D01*
X0160325Y0089208D01*
X0160438Y0089157D01*
X0160550Y0089102D01*
X0160660Y0089044D01*
X0160768Y0088983D01*
X0160874Y0088918D01*
X0160978Y0088849D01*
X0161079Y0088778D01*
X0161179Y0088703D01*
X0161276Y0088625D01*
X0161370Y0088544D01*
X0161462Y0088460D01*
X0161551Y0088373D01*
X0161637Y0088283D01*
X0161720Y0088191D01*
X0161800Y0088096D01*
X0161878Y0087998D01*
X0161952Y0087898D01*
X0162023Y0087796D01*
X0162090Y0087692D01*
X0162154Y0087585D01*
X0162215Y0087476D01*
X0162272Y0087366D01*
X0162326Y0087254D01*
X0162376Y0087140D01*
X0162423Y0087025D01*
X0162465Y0086908D01*
X0162504Y0086790D01*
X0162540Y0086670D01*
X0162571Y0086550D01*
X0162598Y0086429D01*
X0162622Y0086307D01*
X0162642Y0086184D01*
X0162658Y0086060D01*
X0162670Y0085937D01*
X0162678Y0085813D01*
X0162682Y0085688D01*
X0162682Y0085564D01*
X0162678Y0085439D01*
X0162670Y0085315D01*
X0162658Y0085192D01*
X0162642Y0085068D01*
X0162622Y0084945D01*
X0162598Y0084823D01*
X0162571Y0084702D01*
X0162540Y0084582D01*
X0162504Y0084462D01*
X0162465Y0084344D01*
X0162423Y0084227D01*
X0162376Y0084112D01*
X0162326Y0083998D01*
X0162272Y0083886D01*
X0162215Y0083776D01*
X0162154Y0083667D01*
X0162090Y0083560D01*
X0162023Y0083456D01*
X0161952Y0083354D01*
X0161878Y0083254D01*
X0161800Y0083156D01*
X0161720Y0083061D01*
X0161637Y0082969D01*
X0161551Y0082879D01*
X0161462Y0082792D01*
X0161370Y0082708D01*
X0161276Y0082627D01*
X0161179Y0082549D01*
X0161079Y0082474D01*
X0160978Y0082403D01*
X0160874Y0082334D01*
X0160768Y0082269D01*
X0160660Y0082208D01*
X0160550Y0082150D01*
X0160438Y0082095D01*
X0160325Y0082044D01*
X0160210Y0081997D01*
X0160093Y0081953D01*
X0159975Y0081913D01*
X0159856Y0081877D01*
X0159736Y0081845D01*
X0159615Y0081816D01*
X0159493Y0081791D01*
X0159371Y0081771D01*
X0159247Y0081754D01*
X0159124Y0081741D01*
X0159000Y0081732D01*
X0158875Y0081727D01*
X0158751Y0081726D01*
X0158627Y0081729D01*
X0158502Y0081736D01*
X0158378Y0081747D01*
X0158255Y0081762D01*
X0158132Y0081781D01*
X0158010Y0081803D01*
X0157888Y0081830D01*
X0157768Y0081860D01*
X0157648Y0081894D01*
X0157530Y0081933D01*
X0157412Y0081974D01*
X0157297Y0082020D01*
X0157182Y0082069D01*
X0157070Y0082122D01*
X0156959Y0082178D01*
X0156850Y0082238D01*
X0156743Y0082302D01*
X0156638Y0082368D01*
X0156535Y0082438D01*
X0156435Y0082512D01*
X0156337Y0082588D01*
X0156241Y0082667D01*
X0156148Y0082750D01*
X0156057Y0082835D01*
X0155970Y0082924D01*
X0155885Y0083015D01*
X0155803Y0083109D01*
X0155725Y0083205D01*
X0155649Y0083304D01*
X0155576Y0083405D01*
X0155507Y0083508D01*
X0155441Y0083614D01*
X0155379Y0083721D01*
X0155320Y0083831D01*
X0155264Y0083942D01*
X0155212Y0084055D01*
X0155164Y0084170D01*
X0155120Y0084286D01*
X0155079Y0084403D01*
X0155042Y0084522D01*
X0155008Y0084642D01*
X0154979Y0084762D01*
X0154953Y0084884D01*
X0154931Y0085007D01*
X0154914Y0085130D01*
X0154900Y0085253D01*
X0154890Y0085377D01*
X0154884Y0085502D01*
X0154882Y0085626D01*
X0154782Y0081626D02*
X0162782Y0089626D01*
X0159882Y0094286D02*
X0159884Y0094410D01*
X0159890Y0094535D01*
X0159900Y0094659D01*
X0159914Y0094782D01*
X0159931Y0094905D01*
X0159953Y0095028D01*
X0159979Y0095150D01*
X0160008Y0095270D01*
X0160042Y0095390D01*
X0160079Y0095509D01*
X0160120Y0095626D01*
X0160164Y0095742D01*
X0160212Y0095857D01*
X0160264Y0095970D01*
X0160320Y0096081D01*
X0160379Y0096191D01*
X0160441Y0096298D01*
X0160507Y0096404D01*
X0160576Y0096507D01*
X0160649Y0096608D01*
X0160725Y0096707D01*
X0160803Y0096803D01*
X0160885Y0096897D01*
X0160970Y0096988D01*
X0161057Y0097077D01*
X0161148Y0097162D01*
X0161241Y0097245D01*
X0161337Y0097324D01*
X0161435Y0097400D01*
X0161535Y0097474D01*
X0161638Y0097544D01*
X0161743Y0097610D01*
X0161850Y0097674D01*
X0161959Y0097734D01*
X0162070Y0097790D01*
X0162182Y0097843D01*
X0162297Y0097892D01*
X0162412Y0097938D01*
X0162530Y0097979D01*
X0162648Y0098018D01*
X0162768Y0098052D01*
X0162888Y0098082D01*
X0163010Y0098109D01*
X0163132Y0098131D01*
X0163255Y0098150D01*
X0163378Y0098165D01*
X0163502Y0098176D01*
X0163627Y0098183D01*
X0163751Y0098186D01*
X0163875Y0098185D01*
X0164000Y0098180D01*
X0164124Y0098171D01*
X0164247Y0098158D01*
X0164371Y0098141D01*
X0164493Y0098121D01*
X0164615Y0098096D01*
X0164736Y0098067D01*
X0164856Y0098035D01*
X0164975Y0097999D01*
X0165093Y0097959D01*
X0165210Y0097915D01*
X0165325Y0097868D01*
X0165438Y0097817D01*
X0165550Y0097762D01*
X0165660Y0097704D01*
X0165768Y0097643D01*
X0165874Y0097578D01*
X0165978Y0097509D01*
X0166079Y0097438D01*
X0166179Y0097363D01*
X0166276Y0097285D01*
X0166370Y0097204D01*
X0166462Y0097120D01*
X0166551Y0097033D01*
X0166637Y0096943D01*
X0166720Y0096851D01*
X0166800Y0096756D01*
X0166878Y0096658D01*
X0166952Y0096558D01*
X0167023Y0096456D01*
X0167090Y0096352D01*
X0167154Y0096245D01*
X0167215Y0096136D01*
X0167272Y0096026D01*
X0167326Y0095914D01*
X0167376Y0095800D01*
X0167423Y0095685D01*
X0167465Y0095568D01*
X0167504Y0095450D01*
X0167540Y0095330D01*
X0167571Y0095210D01*
X0167598Y0095089D01*
X0167622Y0094967D01*
X0167642Y0094844D01*
X0167658Y0094720D01*
X0167670Y0094597D01*
X0167678Y0094473D01*
X0167682Y0094348D01*
X0167682Y0094224D01*
X0167678Y0094099D01*
X0167670Y0093975D01*
X0167658Y0093852D01*
X0167642Y0093728D01*
X0167622Y0093605D01*
X0167598Y0093483D01*
X0167571Y0093362D01*
X0167540Y0093242D01*
X0167504Y0093122D01*
X0167465Y0093004D01*
X0167423Y0092887D01*
X0167376Y0092772D01*
X0167326Y0092658D01*
X0167272Y0092546D01*
X0167215Y0092436D01*
X0167154Y0092327D01*
X0167090Y0092220D01*
X0167023Y0092116D01*
X0166952Y0092014D01*
X0166878Y0091914D01*
X0166800Y0091816D01*
X0166720Y0091721D01*
X0166637Y0091629D01*
X0166551Y0091539D01*
X0166462Y0091452D01*
X0166370Y0091368D01*
X0166276Y0091287D01*
X0166179Y0091209D01*
X0166079Y0091134D01*
X0165978Y0091063D01*
X0165874Y0090994D01*
X0165768Y0090929D01*
X0165660Y0090868D01*
X0165550Y0090810D01*
X0165438Y0090755D01*
X0165325Y0090704D01*
X0165210Y0090657D01*
X0165093Y0090613D01*
X0164975Y0090573D01*
X0164856Y0090537D01*
X0164736Y0090505D01*
X0164615Y0090476D01*
X0164493Y0090451D01*
X0164371Y0090431D01*
X0164247Y0090414D01*
X0164124Y0090401D01*
X0164000Y0090392D01*
X0163875Y0090387D01*
X0163751Y0090386D01*
X0163627Y0090389D01*
X0163502Y0090396D01*
X0163378Y0090407D01*
X0163255Y0090422D01*
X0163132Y0090441D01*
X0163010Y0090463D01*
X0162888Y0090490D01*
X0162768Y0090520D01*
X0162648Y0090554D01*
X0162530Y0090593D01*
X0162412Y0090634D01*
X0162297Y0090680D01*
X0162182Y0090729D01*
X0162070Y0090782D01*
X0161959Y0090838D01*
X0161850Y0090898D01*
X0161743Y0090962D01*
X0161638Y0091028D01*
X0161535Y0091098D01*
X0161435Y0091172D01*
X0161337Y0091248D01*
X0161241Y0091327D01*
X0161148Y0091410D01*
X0161057Y0091495D01*
X0160970Y0091584D01*
X0160885Y0091675D01*
X0160803Y0091769D01*
X0160725Y0091865D01*
X0160649Y0091964D01*
X0160576Y0092065D01*
X0160507Y0092168D01*
X0160441Y0092274D01*
X0160379Y0092381D01*
X0160320Y0092491D01*
X0160264Y0092602D01*
X0160212Y0092715D01*
X0160164Y0092830D01*
X0160120Y0092946D01*
X0160079Y0093063D01*
X0160042Y0093182D01*
X0160008Y0093302D01*
X0159979Y0093422D01*
X0159953Y0093544D01*
X0159931Y0093667D01*
X0159914Y0093790D01*
X0159900Y0093913D01*
X0159890Y0094037D01*
X0159884Y0094162D01*
X0159882Y0094286D01*
X0159782Y0090286D02*
X0167782Y0098286D01*
X0147069Y0104956D02*
X0147071Y0105080D01*
X0147077Y0105205D01*
X0147087Y0105329D01*
X0147101Y0105452D01*
X0147118Y0105575D01*
X0147140Y0105698D01*
X0147166Y0105820D01*
X0147195Y0105940D01*
X0147229Y0106060D01*
X0147266Y0106179D01*
X0147307Y0106296D01*
X0147351Y0106412D01*
X0147399Y0106527D01*
X0147451Y0106640D01*
X0147507Y0106751D01*
X0147566Y0106861D01*
X0147628Y0106968D01*
X0147694Y0107074D01*
X0147763Y0107177D01*
X0147836Y0107278D01*
X0147912Y0107377D01*
X0147990Y0107473D01*
X0148072Y0107567D01*
X0148157Y0107658D01*
X0148244Y0107747D01*
X0148335Y0107832D01*
X0148428Y0107915D01*
X0148524Y0107994D01*
X0148622Y0108070D01*
X0148722Y0108144D01*
X0148825Y0108214D01*
X0148930Y0108280D01*
X0149037Y0108344D01*
X0149146Y0108404D01*
X0149257Y0108460D01*
X0149369Y0108513D01*
X0149484Y0108562D01*
X0149599Y0108608D01*
X0149717Y0108649D01*
X0149835Y0108688D01*
X0149955Y0108722D01*
X0150075Y0108752D01*
X0150197Y0108779D01*
X0150319Y0108801D01*
X0150442Y0108820D01*
X0150565Y0108835D01*
X0150689Y0108846D01*
X0150814Y0108853D01*
X0150938Y0108856D01*
X0151062Y0108855D01*
X0151187Y0108850D01*
X0151311Y0108841D01*
X0151434Y0108828D01*
X0151558Y0108811D01*
X0151680Y0108791D01*
X0151802Y0108766D01*
X0151923Y0108737D01*
X0152043Y0108705D01*
X0152162Y0108669D01*
X0152280Y0108629D01*
X0152397Y0108585D01*
X0152512Y0108538D01*
X0152625Y0108487D01*
X0152737Y0108432D01*
X0152847Y0108374D01*
X0152955Y0108313D01*
X0153061Y0108248D01*
X0153165Y0108179D01*
X0153266Y0108108D01*
X0153366Y0108033D01*
X0153463Y0107955D01*
X0153557Y0107874D01*
X0153649Y0107790D01*
X0153738Y0107703D01*
X0153824Y0107613D01*
X0153907Y0107521D01*
X0153987Y0107426D01*
X0154065Y0107328D01*
X0154139Y0107228D01*
X0154210Y0107126D01*
X0154277Y0107022D01*
X0154341Y0106915D01*
X0154402Y0106806D01*
X0154459Y0106696D01*
X0154513Y0106584D01*
X0154563Y0106470D01*
X0154610Y0106355D01*
X0154652Y0106238D01*
X0154691Y0106120D01*
X0154727Y0106000D01*
X0154758Y0105880D01*
X0154785Y0105759D01*
X0154809Y0105637D01*
X0154829Y0105514D01*
X0154845Y0105390D01*
X0154857Y0105267D01*
X0154865Y0105143D01*
X0154869Y0105018D01*
X0154869Y0104894D01*
X0154865Y0104769D01*
X0154857Y0104645D01*
X0154845Y0104522D01*
X0154829Y0104398D01*
X0154809Y0104275D01*
X0154785Y0104153D01*
X0154758Y0104032D01*
X0154727Y0103912D01*
X0154691Y0103792D01*
X0154652Y0103674D01*
X0154610Y0103557D01*
X0154563Y0103442D01*
X0154513Y0103328D01*
X0154459Y0103216D01*
X0154402Y0103106D01*
X0154341Y0102997D01*
X0154277Y0102890D01*
X0154210Y0102786D01*
X0154139Y0102684D01*
X0154065Y0102584D01*
X0153987Y0102486D01*
X0153907Y0102391D01*
X0153824Y0102299D01*
X0153738Y0102209D01*
X0153649Y0102122D01*
X0153557Y0102038D01*
X0153463Y0101957D01*
X0153366Y0101879D01*
X0153266Y0101804D01*
X0153165Y0101733D01*
X0153061Y0101664D01*
X0152955Y0101599D01*
X0152847Y0101538D01*
X0152737Y0101480D01*
X0152625Y0101425D01*
X0152512Y0101374D01*
X0152397Y0101327D01*
X0152280Y0101283D01*
X0152162Y0101243D01*
X0152043Y0101207D01*
X0151923Y0101175D01*
X0151802Y0101146D01*
X0151680Y0101121D01*
X0151558Y0101101D01*
X0151434Y0101084D01*
X0151311Y0101071D01*
X0151187Y0101062D01*
X0151062Y0101057D01*
X0150938Y0101056D01*
X0150814Y0101059D01*
X0150689Y0101066D01*
X0150565Y0101077D01*
X0150442Y0101092D01*
X0150319Y0101111D01*
X0150197Y0101133D01*
X0150075Y0101160D01*
X0149955Y0101190D01*
X0149835Y0101224D01*
X0149717Y0101263D01*
X0149599Y0101304D01*
X0149484Y0101350D01*
X0149369Y0101399D01*
X0149257Y0101452D01*
X0149146Y0101508D01*
X0149037Y0101568D01*
X0148930Y0101632D01*
X0148825Y0101698D01*
X0148722Y0101768D01*
X0148622Y0101842D01*
X0148524Y0101918D01*
X0148428Y0101997D01*
X0148335Y0102080D01*
X0148244Y0102165D01*
X0148157Y0102254D01*
X0148072Y0102345D01*
X0147990Y0102439D01*
X0147912Y0102535D01*
X0147836Y0102634D01*
X0147763Y0102735D01*
X0147694Y0102838D01*
X0147628Y0102944D01*
X0147566Y0103051D01*
X0147507Y0103161D01*
X0147451Y0103272D01*
X0147399Y0103385D01*
X0147351Y0103500D01*
X0147307Y0103616D01*
X0147266Y0103733D01*
X0147229Y0103852D01*
X0147195Y0103972D01*
X0147166Y0104092D01*
X0147140Y0104214D01*
X0147118Y0104337D01*
X0147101Y0104460D01*
X0147087Y0104583D01*
X0147077Y0104707D01*
X0147071Y0104832D01*
X0147069Y0104956D01*
X0146969Y0100956D02*
X0154969Y0108956D01*
X0155691Y0110360D02*
X0163691Y0118360D01*
X0155691Y0118360D01*
X0163691Y0110360D01*
X0155691Y0110360D01*
X0137069Y0104956D02*
X0137071Y0105080D01*
X0137077Y0105205D01*
X0137087Y0105329D01*
X0137101Y0105452D01*
X0137118Y0105575D01*
X0137140Y0105698D01*
X0137166Y0105820D01*
X0137195Y0105940D01*
X0137229Y0106060D01*
X0137266Y0106179D01*
X0137307Y0106296D01*
X0137351Y0106412D01*
X0137399Y0106527D01*
X0137451Y0106640D01*
X0137507Y0106751D01*
X0137566Y0106861D01*
X0137628Y0106968D01*
X0137694Y0107074D01*
X0137763Y0107177D01*
X0137836Y0107278D01*
X0137912Y0107377D01*
X0137990Y0107473D01*
X0138072Y0107567D01*
X0138157Y0107658D01*
X0138244Y0107747D01*
X0138335Y0107832D01*
X0138428Y0107915D01*
X0138524Y0107994D01*
X0138622Y0108070D01*
X0138722Y0108144D01*
X0138825Y0108214D01*
X0138930Y0108280D01*
X0139037Y0108344D01*
X0139146Y0108404D01*
X0139257Y0108460D01*
X0139369Y0108513D01*
X0139484Y0108562D01*
X0139599Y0108608D01*
X0139717Y0108649D01*
X0139835Y0108688D01*
X0139955Y0108722D01*
X0140075Y0108752D01*
X0140197Y0108779D01*
X0140319Y0108801D01*
X0140442Y0108820D01*
X0140565Y0108835D01*
X0140689Y0108846D01*
X0140814Y0108853D01*
X0140938Y0108856D01*
X0141062Y0108855D01*
X0141187Y0108850D01*
X0141311Y0108841D01*
X0141434Y0108828D01*
X0141558Y0108811D01*
X0141680Y0108791D01*
X0141802Y0108766D01*
X0141923Y0108737D01*
X0142043Y0108705D01*
X0142162Y0108669D01*
X0142280Y0108629D01*
X0142397Y0108585D01*
X0142512Y0108538D01*
X0142625Y0108487D01*
X0142737Y0108432D01*
X0142847Y0108374D01*
X0142955Y0108313D01*
X0143061Y0108248D01*
X0143165Y0108179D01*
X0143266Y0108108D01*
X0143366Y0108033D01*
X0143463Y0107955D01*
X0143557Y0107874D01*
X0143649Y0107790D01*
X0143738Y0107703D01*
X0143824Y0107613D01*
X0143907Y0107521D01*
X0143987Y0107426D01*
X0144065Y0107328D01*
X0144139Y0107228D01*
X0144210Y0107126D01*
X0144277Y0107022D01*
X0144341Y0106915D01*
X0144402Y0106806D01*
X0144459Y0106696D01*
X0144513Y0106584D01*
X0144563Y0106470D01*
X0144610Y0106355D01*
X0144652Y0106238D01*
X0144691Y0106120D01*
X0144727Y0106000D01*
X0144758Y0105880D01*
X0144785Y0105759D01*
X0144809Y0105637D01*
X0144829Y0105514D01*
X0144845Y0105390D01*
X0144857Y0105267D01*
X0144865Y0105143D01*
X0144869Y0105018D01*
X0144869Y0104894D01*
X0144865Y0104769D01*
X0144857Y0104645D01*
X0144845Y0104522D01*
X0144829Y0104398D01*
X0144809Y0104275D01*
X0144785Y0104153D01*
X0144758Y0104032D01*
X0144727Y0103912D01*
X0144691Y0103792D01*
X0144652Y0103674D01*
X0144610Y0103557D01*
X0144563Y0103442D01*
X0144513Y0103328D01*
X0144459Y0103216D01*
X0144402Y0103106D01*
X0144341Y0102997D01*
X0144277Y0102890D01*
X0144210Y0102786D01*
X0144139Y0102684D01*
X0144065Y0102584D01*
X0143987Y0102486D01*
X0143907Y0102391D01*
X0143824Y0102299D01*
X0143738Y0102209D01*
X0143649Y0102122D01*
X0143557Y0102038D01*
X0143463Y0101957D01*
X0143366Y0101879D01*
X0143266Y0101804D01*
X0143165Y0101733D01*
X0143061Y0101664D01*
X0142955Y0101599D01*
X0142847Y0101538D01*
X0142737Y0101480D01*
X0142625Y0101425D01*
X0142512Y0101374D01*
X0142397Y0101327D01*
X0142280Y0101283D01*
X0142162Y0101243D01*
X0142043Y0101207D01*
X0141923Y0101175D01*
X0141802Y0101146D01*
X0141680Y0101121D01*
X0141558Y0101101D01*
X0141434Y0101084D01*
X0141311Y0101071D01*
X0141187Y0101062D01*
X0141062Y0101057D01*
X0140938Y0101056D01*
X0140814Y0101059D01*
X0140689Y0101066D01*
X0140565Y0101077D01*
X0140442Y0101092D01*
X0140319Y0101111D01*
X0140197Y0101133D01*
X0140075Y0101160D01*
X0139955Y0101190D01*
X0139835Y0101224D01*
X0139717Y0101263D01*
X0139599Y0101304D01*
X0139484Y0101350D01*
X0139369Y0101399D01*
X0139257Y0101452D01*
X0139146Y0101508D01*
X0139037Y0101568D01*
X0138930Y0101632D01*
X0138825Y0101698D01*
X0138722Y0101768D01*
X0138622Y0101842D01*
X0138524Y0101918D01*
X0138428Y0101997D01*
X0138335Y0102080D01*
X0138244Y0102165D01*
X0138157Y0102254D01*
X0138072Y0102345D01*
X0137990Y0102439D01*
X0137912Y0102535D01*
X0137836Y0102634D01*
X0137763Y0102735D01*
X0137694Y0102838D01*
X0137628Y0102944D01*
X0137566Y0103051D01*
X0137507Y0103161D01*
X0137451Y0103272D01*
X0137399Y0103385D01*
X0137351Y0103500D01*
X0137307Y0103616D01*
X0137266Y0103733D01*
X0137229Y0103852D01*
X0137195Y0103972D01*
X0137166Y0104092D01*
X0137140Y0104214D01*
X0137118Y0104337D01*
X0137101Y0104460D01*
X0137087Y0104583D01*
X0137077Y0104707D01*
X0137071Y0104832D01*
X0137069Y0104956D01*
X0136969Y0100956D02*
X0144969Y0108956D01*
X0127069Y0104956D02*
X0127071Y0105080D01*
X0127077Y0105205D01*
X0127087Y0105329D01*
X0127101Y0105452D01*
X0127118Y0105575D01*
X0127140Y0105698D01*
X0127166Y0105820D01*
X0127195Y0105940D01*
X0127229Y0106060D01*
X0127266Y0106179D01*
X0127307Y0106296D01*
X0127351Y0106412D01*
X0127399Y0106527D01*
X0127451Y0106640D01*
X0127507Y0106751D01*
X0127566Y0106861D01*
X0127628Y0106968D01*
X0127694Y0107074D01*
X0127763Y0107177D01*
X0127836Y0107278D01*
X0127912Y0107377D01*
X0127990Y0107473D01*
X0128072Y0107567D01*
X0128157Y0107658D01*
X0128244Y0107747D01*
X0128335Y0107832D01*
X0128428Y0107915D01*
X0128524Y0107994D01*
X0128622Y0108070D01*
X0128722Y0108144D01*
X0128825Y0108214D01*
X0128930Y0108280D01*
X0129037Y0108344D01*
X0129146Y0108404D01*
X0129257Y0108460D01*
X0129369Y0108513D01*
X0129484Y0108562D01*
X0129599Y0108608D01*
X0129717Y0108649D01*
X0129835Y0108688D01*
X0129955Y0108722D01*
X0130075Y0108752D01*
X0130197Y0108779D01*
X0130319Y0108801D01*
X0130442Y0108820D01*
X0130565Y0108835D01*
X0130689Y0108846D01*
X0130814Y0108853D01*
X0130938Y0108856D01*
X0131062Y0108855D01*
X0131187Y0108850D01*
X0131311Y0108841D01*
X0131434Y0108828D01*
X0131558Y0108811D01*
X0131680Y0108791D01*
X0131802Y0108766D01*
X0131923Y0108737D01*
X0132043Y0108705D01*
X0132162Y0108669D01*
X0132280Y0108629D01*
X0132397Y0108585D01*
X0132512Y0108538D01*
X0132625Y0108487D01*
X0132737Y0108432D01*
X0132847Y0108374D01*
X0132955Y0108313D01*
X0133061Y0108248D01*
X0133165Y0108179D01*
X0133266Y0108108D01*
X0133366Y0108033D01*
X0133463Y0107955D01*
X0133557Y0107874D01*
X0133649Y0107790D01*
X0133738Y0107703D01*
X0133824Y0107613D01*
X0133907Y0107521D01*
X0133987Y0107426D01*
X0134065Y0107328D01*
X0134139Y0107228D01*
X0134210Y0107126D01*
X0134277Y0107022D01*
X0134341Y0106915D01*
X0134402Y0106806D01*
X0134459Y0106696D01*
X0134513Y0106584D01*
X0134563Y0106470D01*
X0134610Y0106355D01*
X0134652Y0106238D01*
X0134691Y0106120D01*
X0134727Y0106000D01*
X0134758Y0105880D01*
X0134785Y0105759D01*
X0134809Y0105637D01*
X0134829Y0105514D01*
X0134845Y0105390D01*
X0134857Y0105267D01*
X0134865Y0105143D01*
X0134869Y0105018D01*
X0134869Y0104894D01*
X0134865Y0104769D01*
X0134857Y0104645D01*
X0134845Y0104522D01*
X0134829Y0104398D01*
X0134809Y0104275D01*
X0134785Y0104153D01*
X0134758Y0104032D01*
X0134727Y0103912D01*
X0134691Y0103792D01*
X0134652Y0103674D01*
X0134610Y0103557D01*
X0134563Y0103442D01*
X0134513Y0103328D01*
X0134459Y0103216D01*
X0134402Y0103106D01*
X0134341Y0102997D01*
X0134277Y0102890D01*
X0134210Y0102786D01*
X0134139Y0102684D01*
X0134065Y0102584D01*
X0133987Y0102486D01*
X0133907Y0102391D01*
X0133824Y0102299D01*
X0133738Y0102209D01*
X0133649Y0102122D01*
X0133557Y0102038D01*
X0133463Y0101957D01*
X0133366Y0101879D01*
X0133266Y0101804D01*
X0133165Y0101733D01*
X0133061Y0101664D01*
X0132955Y0101599D01*
X0132847Y0101538D01*
X0132737Y0101480D01*
X0132625Y0101425D01*
X0132512Y0101374D01*
X0132397Y0101327D01*
X0132280Y0101283D01*
X0132162Y0101243D01*
X0132043Y0101207D01*
X0131923Y0101175D01*
X0131802Y0101146D01*
X0131680Y0101121D01*
X0131558Y0101101D01*
X0131434Y0101084D01*
X0131311Y0101071D01*
X0131187Y0101062D01*
X0131062Y0101057D01*
X0130938Y0101056D01*
X0130814Y0101059D01*
X0130689Y0101066D01*
X0130565Y0101077D01*
X0130442Y0101092D01*
X0130319Y0101111D01*
X0130197Y0101133D01*
X0130075Y0101160D01*
X0129955Y0101190D01*
X0129835Y0101224D01*
X0129717Y0101263D01*
X0129599Y0101304D01*
X0129484Y0101350D01*
X0129369Y0101399D01*
X0129257Y0101452D01*
X0129146Y0101508D01*
X0129037Y0101568D01*
X0128930Y0101632D01*
X0128825Y0101698D01*
X0128722Y0101768D01*
X0128622Y0101842D01*
X0128524Y0101918D01*
X0128428Y0101997D01*
X0128335Y0102080D01*
X0128244Y0102165D01*
X0128157Y0102254D01*
X0128072Y0102345D01*
X0127990Y0102439D01*
X0127912Y0102535D01*
X0127836Y0102634D01*
X0127763Y0102735D01*
X0127694Y0102838D01*
X0127628Y0102944D01*
X0127566Y0103051D01*
X0127507Y0103161D01*
X0127451Y0103272D01*
X0127399Y0103385D01*
X0127351Y0103500D01*
X0127307Y0103616D01*
X0127266Y0103733D01*
X0127229Y0103852D01*
X0127195Y0103972D01*
X0127166Y0104092D01*
X0127140Y0104214D01*
X0127118Y0104337D01*
X0127101Y0104460D01*
X0127087Y0104583D01*
X0127077Y0104707D01*
X0127071Y0104832D01*
X0127069Y0104956D01*
X0126969Y0100956D02*
X0134969Y0108956D01*
X0117069Y0104956D02*
X0117071Y0105080D01*
X0117077Y0105205D01*
X0117087Y0105329D01*
X0117101Y0105452D01*
X0117118Y0105575D01*
X0117140Y0105698D01*
X0117166Y0105820D01*
X0117195Y0105940D01*
X0117229Y0106060D01*
X0117266Y0106179D01*
X0117307Y0106296D01*
X0117351Y0106412D01*
X0117399Y0106527D01*
X0117451Y0106640D01*
X0117507Y0106751D01*
X0117566Y0106861D01*
X0117628Y0106968D01*
X0117694Y0107074D01*
X0117763Y0107177D01*
X0117836Y0107278D01*
X0117912Y0107377D01*
X0117990Y0107473D01*
X0118072Y0107567D01*
X0118157Y0107658D01*
X0118244Y0107747D01*
X0118335Y0107832D01*
X0118428Y0107915D01*
X0118524Y0107994D01*
X0118622Y0108070D01*
X0118722Y0108144D01*
X0118825Y0108214D01*
X0118930Y0108280D01*
X0119037Y0108344D01*
X0119146Y0108404D01*
X0119257Y0108460D01*
X0119369Y0108513D01*
X0119484Y0108562D01*
X0119599Y0108608D01*
X0119717Y0108649D01*
X0119835Y0108688D01*
X0119955Y0108722D01*
X0120075Y0108752D01*
X0120197Y0108779D01*
X0120319Y0108801D01*
X0120442Y0108820D01*
X0120565Y0108835D01*
X0120689Y0108846D01*
X0120814Y0108853D01*
X0120938Y0108856D01*
X0121062Y0108855D01*
X0121187Y0108850D01*
X0121311Y0108841D01*
X0121434Y0108828D01*
X0121558Y0108811D01*
X0121680Y0108791D01*
X0121802Y0108766D01*
X0121923Y0108737D01*
X0122043Y0108705D01*
X0122162Y0108669D01*
X0122280Y0108629D01*
X0122397Y0108585D01*
X0122512Y0108538D01*
X0122625Y0108487D01*
X0122737Y0108432D01*
X0122847Y0108374D01*
X0122955Y0108313D01*
X0123061Y0108248D01*
X0123165Y0108179D01*
X0123266Y0108108D01*
X0123366Y0108033D01*
X0123463Y0107955D01*
X0123557Y0107874D01*
X0123649Y0107790D01*
X0123738Y0107703D01*
X0123824Y0107613D01*
X0123907Y0107521D01*
X0123987Y0107426D01*
X0124065Y0107328D01*
X0124139Y0107228D01*
X0124210Y0107126D01*
X0124277Y0107022D01*
X0124341Y0106915D01*
X0124402Y0106806D01*
X0124459Y0106696D01*
X0124513Y0106584D01*
X0124563Y0106470D01*
X0124610Y0106355D01*
X0124652Y0106238D01*
X0124691Y0106120D01*
X0124727Y0106000D01*
X0124758Y0105880D01*
X0124785Y0105759D01*
X0124809Y0105637D01*
X0124829Y0105514D01*
X0124845Y0105390D01*
X0124857Y0105267D01*
X0124865Y0105143D01*
X0124869Y0105018D01*
X0124869Y0104894D01*
X0124865Y0104769D01*
X0124857Y0104645D01*
X0124845Y0104522D01*
X0124829Y0104398D01*
X0124809Y0104275D01*
X0124785Y0104153D01*
X0124758Y0104032D01*
X0124727Y0103912D01*
X0124691Y0103792D01*
X0124652Y0103674D01*
X0124610Y0103557D01*
X0124563Y0103442D01*
X0124513Y0103328D01*
X0124459Y0103216D01*
X0124402Y0103106D01*
X0124341Y0102997D01*
X0124277Y0102890D01*
X0124210Y0102786D01*
X0124139Y0102684D01*
X0124065Y0102584D01*
X0123987Y0102486D01*
X0123907Y0102391D01*
X0123824Y0102299D01*
X0123738Y0102209D01*
X0123649Y0102122D01*
X0123557Y0102038D01*
X0123463Y0101957D01*
X0123366Y0101879D01*
X0123266Y0101804D01*
X0123165Y0101733D01*
X0123061Y0101664D01*
X0122955Y0101599D01*
X0122847Y0101538D01*
X0122737Y0101480D01*
X0122625Y0101425D01*
X0122512Y0101374D01*
X0122397Y0101327D01*
X0122280Y0101283D01*
X0122162Y0101243D01*
X0122043Y0101207D01*
X0121923Y0101175D01*
X0121802Y0101146D01*
X0121680Y0101121D01*
X0121558Y0101101D01*
X0121434Y0101084D01*
X0121311Y0101071D01*
X0121187Y0101062D01*
X0121062Y0101057D01*
X0120938Y0101056D01*
X0120814Y0101059D01*
X0120689Y0101066D01*
X0120565Y0101077D01*
X0120442Y0101092D01*
X0120319Y0101111D01*
X0120197Y0101133D01*
X0120075Y0101160D01*
X0119955Y0101190D01*
X0119835Y0101224D01*
X0119717Y0101263D01*
X0119599Y0101304D01*
X0119484Y0101350D01*
X0119369Y0101399D01*
X0119257Y0101452D01*
X0119146Y0101508D01*
X0119037Y0101568D01*
X0118930Y0101632D01*
X0118825Y0101698D01*
X0118722Y0101768D01*
X0118622Y0101842D01*
X0118524Y0101918D01*
X0118428Y0101997D01*
X0118335Y0102080D01*
X0118244Y0102165D01*
X0118157Y0102254D01*
X0118072Y0102345D01*
X0117990Y0102439D01*
X0117912Y0102535D01*
X0117836Y0102634D01*
X0117763Y0102735D01*
X0117694Y0102838D01*
X0117628Y0102944D01*
X0117566Y0103051D01*
X0117507Y0103161D01*
X0117451Y0103272D01*
X0117399Y0103385D01*
X0117351Y0103500D01*
X0117307Y0103616D01*
X0117266Y0103733D01*
X0117229Y0103852D01*
X0117195Y0103972D01*
X0117166Y0104092D01*
X0117140Y0104214D01*
X0117118Y0104337D01*
X0117101Y0104460D01*
X0117087Y0104583D01*
X0117077Y0104707D01*
X0117071Y0104832D01*
X0117069Y0104956D01*
X0116969Y0100956D02*
X0124969Y0108956D01*
X0119219Y0108956D02*
X0111219Y0100956D01*
X0111219Y0108956D02*
X0119219Y0108956D01*
X0111219Y0108956D02*
X0119219Y0100956D01*
X0111219Y0100956D01*
X0103345Y0100956D02*
X0111345Y0108956D01*
X0103345Y0108956D01*
X0111345Y0100956D01*
X0103345Y0100956D01*
X0104257Y0094286D02*
X0104259Y0094410D01*
X0104265Y0094535D01*
X0104275Y0094659D01*
X0104289Y0094782D01*
X0104306Y0094905D01*
X0104328Y0095028D01*
X0104354Y0095150D01*
X0104383Y0095270D01*
X0104417Y0095390D01*
X0104454Y0095509D01*
X0104495Y0095626D01*
X0104539Y0095742D01*
X0104587Y0095857D01*
X0104639Y0095970D01*
X0104695Y0096081D01*
X0104754Y0096191D01*
X0104816Y0096298D01*
X0104882Y0096404D01*
X0104951Y0096507D01*
X0105024Y0096608D01*
X0105100Y0096707D01*
X0105178Y0096803D01*
X0105260Y0096897D01*
X0105345Y0096988D01*
X0105432Y0097077D01*
X0105523Y0097162D01*
X0105616Y0097245D01*
X0105712Y0097324D01*
X0105810Y0097400D01*
X0105910Y0097474D01*
X0106013Y0097544D01*
X0106118Y0097610D01*
X0106225Y0097674D01*
X0106334Y0097734D01*
X0106445Y0097790D01*
X0106557Y0097843D01*
X0106672Y0097892D01*
X0106787Y0097938D01*
X0106905Y0097979D01*
X0107023Y0098018D01*
X0107143Y0098052D01*
X0107263Y0098082D01*
X0107385Y0098109D01*
X0107507Y0098131D01*
X0107630Y0098150D01*
X0107753Y0098165D01*
X0107877Y0098176D01*
X0108002Y0098183D01*
X0108126Y0098186D01*
X0108250Y0098185D01*
X0108375Y0098180D01*
X0108499Y0098171D01*
X0108622Y0098158D01*
X0108746Y0098141D01*
X0108868Y0098121D01*
X0108990Y0098096D01*
X0109111Y0098067D01*
X0109231Y0098035D01*
X0109350Y0097999D01*
X0109468Y0097959D01*
X0109585Y0097915D01*
X0109700Y0097868D01*
X0109813Y0097817D01*
X0109925Y0097762D01*
X0110035Y0097704D01*
X0110143Y0097643D01*
X0110249Y0097578D01*
X0110353Y0097509D01*
X0110454Y0097438D01*
X0110554Y0097363D01*
X0110651Y0097285D01*
X0110745Y0097204D01*
X0110837Y0097120D01*
X0110926Y0097033D01*
X0111012Y0096943D01*
X0111095Y0096851D01*
X0111175Y0096756D01*
X0111253Y0096658D01*
X0111327Y0096558D01*
X0111398Y0096456D01*
X0111465Y0096352D01*
X0111529Y0096245D01*
X0111590Y0096136D01*
X0111647Y0096026D01*
X0111701Y0095914D01*
X0111751Y0095800D01*
X0111798Y0095685D01*
X0111840Y0095568D01*
X0111879Y0095450D01*
X0111915Y0095330D01*
X0111946Y0095210D01*
X0111973Y0095089D01*
X0111997Y0094967D01*
X0112017Y0094844D01*
X0112033Y0094720D01*
X0112045Y0094597D01*
X0112053Y0094473D01*
X0112057Y0094348D01*
X0112057Y0094224D01*
X0112053Y0094099D01*
X0112045Y0093975D01*
X0112033Y0093852D01*
X0112017Y0093728D01*
X0111997Y0093605D01*
X0111973Y0093483D01*
X0111946Y0093362D01*
X0111915Y0093242D01*
X0111879Y0093122D01*
X0111840Y0093004D01*
X0111798Y0092887D01*
X0111751Y0092772D01*
X0111701Y0092658D01*
X0111647Y0092546D01*
X0111590Y0092436D01*
X0111529Y0092327D01*
X0111465Y0092220D01*
X0111398Y0092116D01*
X0111327Y0092014D01*
X0111253Y0091914D01*
X0111175Y0091816D01*
X0111095Y0091721D01*
X0111012Y0091629D01*
X0110926Y0091539D01*
X0110837Y0091452D01*
X0110745Y0091368D01*
X0110651Y0091287D01*
X0110554Y0091209D01*
X0110454Y0091134D01*
X0110353Y0091063D01*
X0110249Y0090994D01*
X0110143Y0090929D01*
X0110035Y0090868D01*
X0109925Y0090810D01*
X0109813Y0090755D01*
X0109700Y0090704D01*
X0109585Y0090657D01*
X0109468Y0090613D01*
X0109350Y0090573D01*
X0109231Y0090537D01*
X0109111Y0090505D01*
X0108990Y0090476D01*
X0108868Y0090451D01*
X0108746Y0090431D01*
X0108622Y0090414D01*
X0108499Y0090401D01*
X0108375Y0090392D01*
X0108250Y0090387D01*
X0108126Y0090386D01*
X0108002Y0090389D01*
X0107877Y0090396D01*
X0107753Y0090407D01*
X0107630Y0090422D01*
X0107507Y0090441D01*
X0107385Y0090463D01*
X0107263Y0090490D01*
X0107143Y0090520D01*
X0107023Y0090554D01*
X0106905Y0090593D01*
X0106787Y0090634D01*
X0106672Y0090680D01*
X0106557Y0090729D01*
X0106445Y0090782D01*
X0106334Y0090838D01*
X0106225Y0090898D01*
X0106118Y0090962D01*
X0106013Y0091028D01*
X0105910Y0091098D01*
X0105810Y0091172D01*
X0105712Y0091248D01*
X0105616Y0091327D01*
X0105523Y0091410D01*
X0105432Y0091495D01*
X0105345Y0091584D01*
X0105260Y0091675D01*
X0105178Y0091769D01*
X0105100Y0091865D01*
X0105024Y0091964D01*
X0104951Y0092065D01*
X0104882Y0092168D01*
X0104816Y0092274D01*
X0104754Y0092381D01*
X0104695Y0092491D01*
X0104639Y0092602D01*
X0104587Y0092715D01*
X0104539Y0092830D01*
X0104495Y0092946D01*
X0104454Y0093063D01*
X0104417Y0093182D01*
X0104383Y0093302D01*
X0104354Y0093422D01*
X0104328Y0093544D01*
X0104306Y0093667D01*
X0104289Y0093790D01*
X0104275Y0093913D01*
X0104265Y0094037D01*
X0104259Y0094162D01*
X0104257Y0094286D01*
X0104157Y0090286D02*
X0112157Y0098286D01*
X0109257Y0085626D02*
X0109259Y0085750D01*
X0109265Y0085875D01*
X0109275Y0085999D01*
X0109289Y0086122D01*
X0109306Y0086245D01*
X0109328Y0086368D01*
X0109354Y0086490D01*
X0109383Y0086610D01*
X0109417Y0086730D01*
X0109454Y0086849D01*
X0109495Y0086966D01*
X0109539Y0087082D01*
X0109587Y0087197D01*
X0109639Y0087310D01*
X0109695Y0087421D01*
X0109754Y0087531D01*
X0109816Y0087638D01*
X0109882Y0087744D01*
X0109951Y0087847D01*
X0110024Y0087948D01*
X0110100Y0088047D01*
X0110178Y0088143D01*
X0110260Y0088237D01*
X0110345Y0088328D01*
X0110432Y0088417D01*
X0110523Y0088502D01*
X0110616Y0088585D01*
X0110712Y0088664D01*
X0110810Y0088740D01*
X0110910Y0088814D01*
X0111013Y0088884D01*
X0111118Y0088950D01*
X0111225Y0089014D01*
X0111334Y0089074D01*
X0111445Y0089130D01*
X0111557Y0089183D01*
X0111672Y0089232D01*
X0111787Y0089278D01*
X0111905Y0089319D01*
X0112023Y0089358D01*
X0112143Y0089392D01*
X0112263Y0089422D01*
X0112385Y0089449D01*
X0112507Y0089471D01*
X0112630Y0089490D01*
X0112753Y0089505D01*
X0112877Y0089516D01*
X0113002Y0089523D01*
X0113126Y0089526D01*
X0113250Y0089525D01*
X0113375Y0089520D01*
X0113499Y0089511D01*
X0113622Y0089498D01*
X0113746Y0089481D01*
X0113868Y0089461D01*
X0113990Y0089436D01*
X0114111Y0089407D01*
X0114231Y0089375D01*
X0114350Y0089339D01*
X0114468Y0089299D01*
X0114585Y0089255D01*
X0114700Y0089208D01*
X0114813Y0089157D01*
X0114925Y0089102D01*
X0115035Y0089044D01*
X0115143Y0088983D01*
X0115249Y0088918D01*
X0115353Y0088849D01*
X0115454Y0088778D01*
X0115554Y0088703D01*
X0115651Y0088625D01*
X0115745Y0088544D01*
X0115837Y0088460D01*
X0115926Y0088373D01*
X0116012Y0088283D01*
X0116095Y0088191D01*
X0116175Y0088096D01*
X0116253Y0087998D01*
X0116327Y0087898D01*
X0116398Y0087796D01*
X0116465Y0087692D01*
X0116529Y0087585D01*
X0116590Y0087476D01*
X0116647Y0087366D01*
X0116701Y0087254D01*
X0116751Y0087140D01*
X0116798Y0087025D01*
X0116840Y0086908D01*
X0116879Y0086790D01*
X0116915Y0086670D01*
X0116946Y0086550D01*
X0116973Y0086429D01*
X0116997Y0086307D01*
X0117017Y0086184D01*
X0117033Y0086060D01*
X0117045Y0085937D01*
X0117053Y0085813D01*
X0117057Y0085688D01*
X0117057Y0085564D01*
X0117053Y0085439D01*
X0117045Y0085315D01*
X0117033Y0085192D01*
X0117017Y0085068D01*
X0116997Y0084945D01*
X0116973Y0084823D01*
X0116946Y0084702D01*
X0116915Y0084582D01*
X0116879Y0084462D01*
X0116840Y0084344D01*
X0116798Y0084227D01*
X0116751Y0084112D01*
X0116701Y0083998D01*
X0116647Y0083886D01*
X0116590Y0083776D01*
X0116529Y0083667D01*
X0116465Y0083560D01*
X0116398Y0083456D01*
X0116327Y0083354D01*
X0116253Y0083254D01*
X0116175Y0083156D01*
X0116095Y0083061D01*
X0116012Y0082969D01*
X0115926Y0082879D01*
X0115837Y0082792D01*
X0115745Y0082708D01*
X0115651Y0082627D01*
X0115554Y0082549D01*
X0115454Y0082474D01*
X0115353Y0082403D01*
X0115249Y0082334D01*
X0115143Y0082269D01*
X0115035Y0082208D01*
X0114925Y0082150D01*
X0114813Y0082095D01*
X0114700Y0082044D01*
X0114585Y0081997D01*
X0114468Y0081953D01*
X0114350Y0081913D01*
X0114231Y0081877D01*
X0114111Y0081845D01*
X0113990Y0081816D01*
X0113868Y0081791D01*
X0113746Y0081771D01*
X0113622Y0081754D01*
X0113499Y0081741D01*
X0113375Y0081732D01*
X0113250Y0081727D01*
X0113126Y0081726D01*
X0113002Y0081729D01*
X0112877Y0081736D01*
X0112753Y0081747D01*
X0112630Y0081762D01*
X0112507Y0081781D01*
X0112385Y0081803D01*
X0112263Y0081830D01*
X0112143Y0081860D01*
X0112023Y0081894D01*
X0111905Y0081933D01*
X0111787Y0081974D01*
X0111672Y0082020D01*
X0111557Y0082069D01*
X0111445Y0082122D01*
X0111334Y0082178D01*
X0111225Y0082238D01*
X0111118Y0082302D01*
X0111013Y0082368D01*
X0110910Y0082438D01*
X0110810Y0082512D01*
X0110712Y0082588D01*
X0110616Y0082667D01*
X0110523Y0082750D01*
X0110432Y0082835D01*
X0110345Y0082924D01*
X0110260Y0083015D01*
X0110178Y0083109D01*
X0110100Y0083205D01*
X0110024Y0083304D01*
X0109951Y0083405D01*
X0109882Y0083508D01*
X0109816Y0083614D01*
X0109754Y0083721D01*
X0109695Y0083831D01*
X0109639Y0083942D01*
X0109587Y0084055D01*
X0109539Y0084170D01*
X0109495Y0084286D01*
X0109454Y0084403D01*
X0109417Y0084522D01*
X0109383Y0084642D01*
X0109354Y0084762D01*
X0109328Y0084884D01*
X0109306Y0085007D01*
X0109289Y0085130D01*
X0109275Y0085253D01*
X0109265Y0085377D01*
X0109259Y0085502D01*
X0109257Y0085626D01*
X0109157Y0081626D02*
X0117157Y0089626D01*
X0109185Y0110360D02*
X0117185Y0118360D01*
X0109185Y0118360D01*
X0117185Y0110360D01*
X0109185Y0110360D01*
X0114753Y0115927D02*
X0122753Y0123927D01*
X0114753Y0123927D01*
X0122753Y0115927D01*
X0114753Y0115927D01*
X0127069Y0118081D02*
X0127071Y0118205D01*
X0127077Y0118330D01*
X0127087Y0118454D01*
X0127101Y0118577D01*
X0127118Y0118700D01*
X0127140Y0118823D01*
X0127166Y0118945D01*
X0127195Y0119065D01*
X0127229Y0119185D01*
X0127266Y0119304D01*
X0127307Y0119421D01*
X0127351Y0119537D01*
X0127399Y0119652D01*
X0127451Y0119765D01*
X0127507Y0119876D01*
X0127566Y0119986D01*
X0127628Y0120093D01*
X0127694Y0120199D01*
X0127763Y0120302D01*
X0127836Y0120403D01*
X0127912Y0120502D01*
X0127990Y0120598D01*
X0128072Y0120692D01*
X0128157Y0120783D01*
X0128244Y0120872D01*
X0128335Y0120957D01*
X0128428Y0121040D01*
X0128524Y0121119D01*
X0128622Y0121195D01*
X0128722Y0121269D01*
X0128825Y0121339D01*
X0128930Y0121405D01*
X0129037Y0121469D01*
X0129146Y0121529D01*
X0129257Y0121585D01*
X0129369Y0121638D01*
X0129484Y0121687D01*
X0129599Y0121733D01*
X0129717Y0121774D01*
X0129835Y0121813D01*
X0129955Y0121847D01*
X0130075Y0121877D01*
X0130197Y0121904D01*
X0130319Y0121926D01*
X0130442Y0121945D01*
X0130565Y0121960D01*
X0130689Y0121971D01*
X0130814Y0121978D01*
X0130938Y0121981D01*
X0131062Y0121980D01*
X0131187Y0121975D01*
X0131311Y0121966D01*
X0131434Y0121953D01*
X0131558Y0121936D01*
X0131680Y0121916D01*
X0131802Y0121891D01*
X0131923Y0121862D01*
X0132043Y0121830D01*
X0132162Y0121794D01*
X0132280Y0121754D01*
X0132397Y0121710D01*
X0132512Y0121663D01*
X0132625Y0121612D01*
X0132737Y0121557D01*
X0132847Y0121499D01*
X0132955Y0121438D01*
X0133061Y0121373D01*
X0133165Y0121304D01*
X0133266Y0121233D01*
X0133366Y0121158D01*
X0133463Y0121080D01*
X0133557Y0120999D01*
X0133649Y0120915D01*
X0133738Y0120828D01*
X0133824Y0120738D01*
X0133907Y0120646D01*
X0133987Y0120551D01*
X0134065Y0120453D01*
X0134139Y0120353D01*
X0134210Y0120251D01*
X0134277Y0120147D01*
X0134341Y0120040D01*
X0134402Y0119931D01*
X0134459Y0119821D01*
X0134513Y0119709D01*
X0134563Y0119595D01*
X0134610Y0119480D01*
X0134652Y0119363D01*
X0134691Y0119245D01*
X0134727Y0119125D01*
X0134758Y0119005D01*
X0134785Y0118884D01*
X0134809Y0118762D01*
X0134829Y0118639D01*
X0134845Y0118515D01*
X0134857Y0118392D01*
X0134865Y0118268D01*
X0134869Y0118143D01*
X0134869Y0118019D01*
X0134865Y0117894D01*
X0134857Y0117770D01*
X0134845Y0117647D01*
X0134829Y0117523D01*
X0134809Y0117400D01*
X0134785Y0117278D01*
X0134758Y0117157D01*
X0134727Y0117037D01*
X0134691Y0116917D01*
X0134652Y0116799D01*
X0134610Y0116682D01*
X0134563Y0116567D01*
X0134513Y0116453D01*
X0134459Y0116341D01*
X0134402Y0116231D01*
X0134341Y0116122D01*
X0134277Y0116015D01*
X0134210Y0115911D01*
X0134139Y0115809D01*
X0134065Y0115709D01*
X0133987Y0115611D01*
X0133907Y0115516D01*
X0133824Y0115424D01*
X0133738Y0115334D01*
X0133649Y0115247D01*
X0133557Y0115163D01*
X0133463Y0115082D01*
X0133366Y0115004D01*
X0133266Y0114929D01*
X0133165Y0114858D01*
X0133061Y0114789D01*
X0132955Y0114724D01*
X0132847Y0114663D01*
X0132737Y0114605D01*
X0132625Y0114550D01*
X0132512Y0114499D01*
X0132397Y0114452D01*
X0132280Y0114408D01*
X0132162Y0114368D01*
X0132043Y0114332D01*
X0131923Y0114300D01*
X0131802Y0114271D01*
X0131680Y0114246D01*
X0131558Y0114226D01*
X0131434Y0114209D01*
X0131311Y0114196D01*
X0131187Y0114187D01*
X0131062Y0114182D01*
X0130938Y0114181D01*
X0130814Y0114184D01*
X0130689Y0114191D01*
X0130565Y0114202D01*
X0130442Y0114217D01*
X0130319Y0114236D01*
X0130197Y0114258D01*
X0130075Y0114285D01*
X0129955Y0114315D01*
X0129835Y0114349D01*
X0129717Y0114388D01*
X0129599Y0114429D01*
X0129484Y0114475D01*
X0129369Y0114524D01*
X0129257Y0114577D01*
X0129146Y0114633D01*
X0129037Y0114693D01*
X0128930Y0114757D01*
X0128825Y0114823D01*
X0128722Y0114893D01*
X0128622Y0114967D01*
X0128524Y0115043D01*
X0128428Y0115122D01*
X0128335Y0115205D01*
X0128244Y0115290D01*
X0128157Y0115379D01*
X0128072Y0115470D01*
X0127990Y0115564D01*
X0127912Y0115660D01*
X0127836Y0115759D01*
X0127763Y0115860D01*
X0127694Y0115963D01*
X0127628Y0116069D01*
X0127566Y0116176D01*
X0127507Y0116286D01*
X0127451Y0116397D01*
X0127399Y0116510D01*
X0127351Y0116625D01*
X0127307Y0116741D01*
X0127266Y0116858D01*
X0127229Y0116977D01*
X0127195Y0117097D01*
X0127166Y0117217D01*
X0127140Y0117339D01*
X0127118Y0117462D01*
X0127101Y0117585D01*
X0127087Y0117708D01*
X0127077Y0117832D01*
X0127071Y0117957D01*
X0127069Y0118081D01*
X0126969Y0114081D02*
X0134969Y0122081D01*
X0127069Y0126519D02*
X0127071Y0126643D01*
X0127077Y0126768D01*
X0127087Y0126892D01*
X0127101Y0127015D01*
X0127118Y0127138D01*
X0127140Y0127261D01*
X0127166Y0127383D01*
X0127195Y0127503D01*
X0127229Y0127623D01*
X0127266Y0127742D01*
X0127307Y0127859D01*
X0127351Y0127975D01*
X0127399Y0128090D01*
X0127451Y0128203D01*
X0127507Y0128314D01*
X0127566Y0128424D01*
X0127628Y0128531D01*
X0127694Y0128637D01*
X0127763Y0128740D01*
X0127836Y0128841D01*
X0127912Y0128940D01*
X0127990Y0129036D01*
X0128072Y0129130D01*
X0128157Y0129221D01*
X0128244Y0129310D01*
X0128335Y0129395D01*
X0128428Y0129478D01*
X0128524Y0129557D01*
X0128622Y0129633D01*
X0128722Y0129707D01*
X0128825Y0129777D01*
X0128930Y0129843D01*
X0129037Y0129907D01*
X0129146Y0129967D01*
X0129257Y0130023D01*
X0129369Y0130076D01*
X0129484Y0130125D01*
X0129599Y0130171D01*
X0129717Y0130212D01*
X0129835Y0130251D01*
X0129955Y0130285D01*
X0130075Y0130315D01*
X0130197Y0130342D01*
X0130319Y0130364D01*
X0130442Y0130383D01*
X0130565Y0130398D01*
X0130689Y0130409D01*
X0130814Y0130416D01*
X0130938Y0130419D01*
X0131062Y0130418D01*
X0131187Y0130413D01*
X0131311Y0130404D01*
X0131434Y0130391D01*
X0131558Y0130374D01*
X0131680Y0130354D01*
X0131802Y0130329D01*
X0131923Y0130300D01*
X0132043Y0130268D01*
X0132162Y0130232D01*
X0132280Y0130192D01*
X0132397Y0130148D01*
X0132512Y0130101D01*
X0132625Y0130050D01*
X0132737Y0129995D01*
X0132847Y0129937D01*
X0132955Y0129876D01*
X0133061Y0129811D01*
X0133165Y0129742D01*
X0133266Y0129671D01*
X0133366Y0129596D01*
X0133463Y0129518D01*
X0133557Y0129437D01*
X0133649Y0129353D01*
X0133738Y0129266D01*
X0133824Y0129176D01*
X0133907Y0129084D01*
X0133987Y0128989D01*
X0134065Y0128891D01*
X0134139Y0128791D01*
X0134210Y0128689D01*
X0134277Y0128585D01*
X0134341Y0128478D01*
X0134402Y0128369D01*
X0134459Y0128259D01*
X0134513Y0128147D01*
X0134563Y0128033D01*
X0134610Y0127918D01*
X0134652Y0127801D01*
X0134691Y0127683D01*
X0134727Y0127563D01*
X0134758Y0127443D01*
X0134785Y0127322D01*
X0134809Y0127200D01*
X0134829Y0127077D01*
X0134845Y0126953D01*
X0134857Y0126830D01*
X0134865Y0126706D01*
X0134869Y0126581D01*
X0134869Y0126457D01*
X0134865Y0126332D01*
X0134857Y0126208D01*
X0134845Y0126085D01*
X0134829Y0125961D01*
X0134809Y0125838D01*
X0134785Y0125716D01*
X0134758Y0125595D01*
X0134727Y0125475D01*
X0134691Y0125355D01*
X0134652Y0125237D01*
X0134610Y0125120D01*
X0134563Y0125005D01*
X0134513Y0124891D01*
X0134459Y0124779D01*
X0134402Y0124669D01*
X0134341Y0124560D01*
X0134277Y0124453D01*
X0134210Y0124349D01*
X0134139Y0124247D01*
X0134065Y0124147D01*
X0133987Y0124049D01*
X0133907Y0123954D01*
X0133824Y0123862D01*
X0133738Y0123772D01*
X0133649Y0123685D01*
X0133557Y0123601D01*
X0133463Y0123520D01*
X0133366Y0123442D01*
X0133266Y0123367D01*
X0133165Y0123296D01*
X0133061Y0123227D01*
X0132955Y0123162D01*
X0132847Y0123101D01*
X0132737Y0123043D01*
X0132625Y0122988D01*
X0132512Y0122937D01*
X0132397Y0122890D01*
X0132280Y0122846D01*
X0132162Y0122806D01*
X0132043Y0122770D01*
X0131923Y0122738D01*
X0131802Y0122709D01*
X0131680Y0122684D01*
X0131558Y0122664D01*
X0131434Y0122647D01*
X0131311Y0122634D01*
X0131187Y0122625D01*
X0131062Y0122620D01*
X0130938Y0122619D01*
X0130814Y0122622D01*
X0130689Y0122629D01*
X0130565Y0122640D01*
X0130442Y0122655D01*
X0130319Y0122674D01*
X0130197Y0122696D01*
X0130075Y0122723D01*
X0129955Y0122753D01*
X0129835Y0122787D01*
X0129717Y0122826D01*
X0129599Y0122867D01*
X0129484Y0122913D01*
X0129369Y0122962D01*
X0129257Y0123015D01*
X0129146Y0123071D01*
X0129037Y0123131D01*
X0128930Y0123195D01*
X0128825Y0123261D01*
X0128722Y0123331D01*
X0128622Y0123405D01*
X0128524Y0123481D01*
X0128428Y0123560D01*
X0128335Y0123643D01*
X0128244Y0123728D01*
X0128157Y0123817D01*
X0128072Y0123908D01*
X0127990Y0124002D01*
X0127912Y0124098D01*
X0127836Y0124197D01*
X0127763Y0124298D01*
X0127694Y0124401D01*
X0127628Y0124507D01*
X0127566Y0124614D01*
X0127507Y0124724D01*
X0127451Y0124835D01*
X0127399Y0124948D01*
X0127351Y0125063D01*
X0127307Y0125179D01*
X0127266Y0125296D01*
X0127229Y0125415D01*
X0127195Y0125535D01*
X0127166Y0125655D01*
X0127140Y0125777D01*
X0127118Y0125900D01*
X0127101Y0126023D01*
X0127087Y0126146D01*
X0127077Y0126270D01*
X0127071Y0126395D01*
X0127069Y0126519D01*
X0126969Y0122519D02*
X0134969Y0130519D01*
X0137069Y0126519D02*
X0137071Y0126643D01*
X0137077Y0126768D01*
X0137087Y0126892D01*
X0137101Y0127015D01*
X0137118Y0127138D01*
X0137140Y0127261D01*
X0137166Y0127383D01*
X0137195Y0127503D01*
X0137229Y0127623D01*
X0137266Y0127742D01*
X0137307Y0127859D01*
X0137351Y0127975D01*
X0137399Y0128090D01*
X0137451Y0128203D01*
X0137507Y0128314D01*
X0137566Y0128424D01*
X0137628Y0128531D01*
X0137694Y0128637D01*
X0137763Y0128740D01*
X0137836Y0128841D01*
X0137912Y0128940D01*
X0137990Y0129036D01*
X0138072Y0129130D01*
X0138157Y0129221D01*
X0138244Y0129310D01*
X0138335Y0129395D01*
X0138428Y0129478D01*
X0138524Y0129557D01*
X0138622Y0129633D01*
X0138722Y0129707D01*
X0138825Y0129777D01*
X0138930Y0129843D01*
X0139037Y0129907D01*
X0139146Y0129967D01*
X0139257Y0130023D01*
X0139369Y0130076D01*
X0139484Y0130125D01*
X0139599Y0130171D01*
X0139717Y0130212D01*
X0139835Y0130251D01*
X0139955Y0130285D01*
X0140075Y0130315D01*
X0140197Y0130342D01*
X0140319Y0130364D01*
X0140442Y0130383D01*
X0140565Y0130398D01*
X0140689Y0130409D01*
X0140814Y0130416D01*
X0140938Y0130419D01*
X0141062Y0130418D01*
X0141187Y0130413D01*
X0141311Y0130404D01*
X0141434Y0130391D01*
X0141558Y0130374D01*
X0141680Y0130354D01*
X0141802Y0130329D01*
X0141923Y0130300D01*
X0142043Y0130268D01*
X0142162Y0130232D01*
X0142280Y0130192D01*
X0142397Y0130148D01*
X0142512Y0130101D01*
X0142625Y0130050D01*
X0142737Y0129995D01*
X0142847Y0129937D01*
X0142955Y0129876D01*
X0143061Y0129811D01*
X0143165Y0129742D01*
X0143266Y0129671D01*
X0143366Y0129596D01*
X0143463Y0129518D01*
X0143557Y0129437D01*
X0143649Y0129353D01*
X0143738Y0129266D01*
X0143824Y0129176D01*
X0143907Y0129084D01*
X0143987Y0128989D01*
X0144065Y0128891D01*
X0144139Y0128791D01*
X0144210Y0128689D01*
X0144277Y0128585D01*
X0144341Y0128478D01*
X0144402Y0128369D01*
X0144459Y0128259D01*
X0144513Y0128147D01*
X0144563Y0128033D01*
X0144610Y0127918D01*
X0144652Y0127801D01*
X0144691Y0127683D01*
X0144727Y0127563D01*
X0144758Y0127443D01*
X0144785Y0127322D01*
X0144809Y0127200D01*
X0144829Y0127077D01*
X0144845Y0126953D01*
X0144857Y0126830D01*
X0144865Y0126706D01*
X0144869Y0126581D01*
X0144869Y0126457D01*
X0144865Y0126332D01*
X0144857Y0126208D01*
X0144845Y0126085D01*
X0144829Y0125961D01*
X0144809Y0125838D01*
X0144785Y0125716D01*
X0144758Y0125595D01*
X0144727Y0125475D01*
X0144691Y0125355D01*
X0144652Y0125237D01*
X0144610Y0125120D01*
X0144563Y0125005D01*
X0144513Y0124891D01*
X0144459Y0124779D01*
X0144402Y0124669D01*
X0144341Y0124560D01*
X0144277Y0124453D01*
X0144210Y0124349D01*
X0144139Y0124247D01*
X0144065Y0124147D01*
X0143987Y0124049D01*
X0143907Y0123954D01*
X0143824Y0123862D01*
X0143738Y0123772D01*
X0143649Y0123685D01*
X0143557Y0123601D01*
X0143463Y0123520D01*
X0143366Y0123442D01*
X0143266Y0123367D01*
X0143165Y0123296D01*
X0143061Y0123227D01*
X0142955Y0123162D01*
X0142847Y0123101D01*
X0142737Y0123043D01*
X0142625Y0122988D01*
X0142512Y0122937D01*
X0142397Y0122890D01*
X0142280Y0122846D01*
X0142162Y0122806D01*
X0142043Y0122770D01*
X0141923Y0122738D01*
X0141802Y0122709D01*
X0141680Y0122684D01*
X0141558Y0122664D01*
X0141434Y0122647D01*
X0141311Y0122634D01*
X0141187Y0122625D01*
X0141062Y0122620D01*
X0140938Y0122619D01*
X0140814Y0122622D01*
X0140689Y0122629D01*
X0140565Y0122640D01*
X0140442Y0122655D01*
X0140319Y0122674D01*
X0140197Y0122696D01*
X0140075Y0122723D01*
X0139955Y0122753D01*
X0139835Y0122787D01*
X0139717Y0122826D01*
X0139599Y0122867D01*
X0139484Y0122913D01*
X0139369Y0122962D01*
X0139257Y0123015D01*
X0139146Y0123071D01*
X0139037Y0123131D01*
X0138930Y0123195D01*
X0138825Y0123261D01*
X0138722Y0123331D01*
X0138622Y0123405D01*
X0138524Y0123481D01*
X0138428Y0123560D01*
X0138335Y0123643D01*
X0138244Y0123728D01*
X0138157Y0123817D01*
X0138072Y0123908D01*
X0137990Y0124002D01*
X0137912Y0124098D01*
X0137836Y0124197D01*
X0137763Y0124298D01*
X0137694Y0124401D01*
X0137628Y0124507D01*
X0137566Y0124614D01*
X0137507Y0124724D01*
X0137451Y0124835D01*
X0137399Y0124948D01*
X0137351Y0125063D01*
X0137307Y0125179D01*
X0137266Y0125296D01*
X0137229Y0125415D01*
X0137195Y0125535D01*
X0137166Y0125655D01*
X0137140Y0125777D01*
X0137118Y0125900D01*
X0137101Y0126023D01*
X0137087Y0126146D01*
X0137077Y0126270D01*
X0137071Y0126395D01*
X0137069Y0126519D01*
X0136969Y0122519D02*
X0144969Y0130519D01*
X0158123Y0123927D02*
X0150123Y0115927D01*
X0150123Y0123927D02*
X0158123Y0123927D01*
X0150123Y0123927D02*
X0158123Y0115927D01*
X0150123Y0115927D01*
X0137069Y0118081D02*
X0137071Y0118205D01*
X0137077Y0118330D01*
X0137087Y0118454D01*
X0137101Y0118577D01*
X0137118Y0118700D01*
X0137140Y0118823D01*
X0137166Y0118945D01*
X0137195Y0119065D01*
X0137229Y0119185D01*
X0137266Y0119304D01*
X0137307Y0119421D01*
X0137351Y0119537D01*
X0137399Y0119652D01*
X0137451Y0119765D01*
X0137507Y0119876D01*
X0137566Y0119986D01*
X0137628Y0120093D01*
X0137694Y0120199D01*
X0137763Y0120302D01*
X0137836Y0120403D01*
X0137912Y0120502D01*
X0137990Y0120598D01*
X0138072Y0120692D01*
X0138157Y0120783D01*
X0138244Y0120872D01*
X0138335Y0120957D01*
X0138428Y0121040D01*
X0138524Y0121119D01*
X0138622Y0121195D01*
X0138722Y0121269D01*
X0138825Y0121339D01*
X0138930Y0121405D01*
X0139037Y0121469D01*
X0139146Y0121529D01*
X0139257Y0121585D01*
X0139369Y0121638D01*
X0139484Y0121687D01*
X0139599Y0121733D01*
X0139717Y0121774D01*
X0139835Y0121813D01*
X0139955Y0121847D01*
X0140075Y0121877D01*
X0140197Y0121904D01*
X0140319Y0121926D01*
X0140442Y0121945D01*
X0140565Y0121960D01*
X0140689Y0121971D01*
X0140814Y0121978D01*
X0140938Y0121981D01*
X0141062Y0121980D01*
X0141187Y0121975D01*
X0141311Y0121966D01*
X0141434Y0121953D01*
X0141558Y0121936D01*
X0141680Y0121916D01*
X0141802Y0121891D01*
X0141923Y0121862D01*
X0142043Y0121830D01*
X0142162Y0121794D01*
X0142280Y0121754D01*
X0142397Y0121710D01*
X0142512Y0121663D01*
X0142625Y0121612D01*
X0142737Y0121557D01*
X0142847Y0121499D01*
X0142955Y0121438D01*
X0143061Y0121373D01*
X0143165Y0121304D01*
X0143266Y0121233D01*
X0143366Y0121158D01*
X0143463Y0121080D01*
X0143557Y0120999D01*
X0143649Y0120915D01*
X0143738Y0120828D01*
X0143824Y0120738D01*
X0143907Y0120646D01*
X0143987Y0120551D01*
X0144065Y0120453D01*
X0144139Y0120353D01*
X0144210Y0120251D01*
X0144277Y0120147D01*
X0144341Y0120040D01*
X0144402Y0119931D01*
X0144459Y0119821D01*
X0144513Y0119709D01*
X0144563Y0119595D01*
X0144610Y0119480D01*
X0144652Y0119363D01*
X0144691Y0119245D01*
X0144727Y0119125D01*
X0144758Y0119005D01*
X0144785Y0118884D01*
X0144809Y0118762D01*
X0144829Y0118639D01*
X0144845Y0118515D01*
X0144857Y0118392D01*
X0144865Y0118268D01*
X0144869Y0118143D01*
X0144869Y0118019D01*
X0144865Y0117894D01*
X0144857Y0117770D01*
X0144845Y0117647D01*
X0144829Y0117523D01*
X0144809Y0117400D01*
X0144785Y0117278D01*
X0144758Y0117157D01*
X0144727Y0117037D01*
X0144691Y0116917D01*
X0144652Y0116799D01*
X0144610Y0116682D01*
X0144563Y0116567D01*
X0144513Y0116453D01*
X0144459Y0116341D01*
X0144402Y0116231D01*
X0144341Y0116122D01*
X0144277Y0116015D01*
X0144210Y0115911D01*
X0144139Y0115809D01*
X0144065Y0115709D01*
X0143987Y0115611D01*
X0143907Y0115516D01*
X0143824Y0115424D01*
X0143738Y0115334D01*
X0143649Y0115247D01*
X0143557Y0115163D01*
X0143463Y0115082D01*
X0143366Y0115004D01*
X0143266Y0114929D01*
X0143165Y0114858D01*
X0143061Y0114789D01*
X0142955Y0114724D01*
X0142847Y0114663D01*
X0142737Y0114605D01*
X0142625Y0114550D01*
X0142512Y0114499D01*
X0142397Y0114452D01*
X0142280Y0114408D01*
X0142162Y0114368D01*
X0142043Y0114332D01*
X0141923Y0114300D01*
X0141802Y0114271D01*
X0141680Y0114246D01*
X0141558Y0114226D01*
X0141434Y0114209D01*
X0141311Y0114196D01*
X0141187Y0114187D01*
X0141062Y0114182D01*
X0140938Y0114181D01*
X0140814Y0114184D01*
X0140689Y0114191D01*
X0140565Y0114202D01*
X0140442Y0114217D01*
X0140319Y0114236D01*
X0140197Y0114258D01*
X0140075Y0114285D01*
X0139955Y0114315D01*
X0139835Y0114349D01*
X0139717Y0114388D01*
X0139599Y0114429D01*
X0139484Y0114475D01*
X0139369Y0114524D01*
X0139257Y0114577D01*
X0139146Y0114633D01*
X0139037Y0114693D01*
X0138930Y0114757D01*
X0138825Y0114823D01*
X0138722Y0114893D01*
X0138622Y0114967D01*
X0138524Y0115043D01*
X0138428Y0115122D01*
X0138335Y0115205D01*
X0138244Y0115290D01*
X0138157Y0115379D01*
X0138072Y0115470D01*
X0137990Y0115564D01*
X0137912Y0115660D01*
X0137836Y0115759D01*
X0137763Y0115860D01*
X0137694Y0115963D01*
X0137628Y0116069D01*
X0137566Y0116176D01*
X0137507Y0116286D01*
X0137451Y0116397D01*
X0137399Y0116510D01*
X0137351Y0116625D01*
X0137307Y0116741D01*
X0137266Y0116858D01*
X0137229Y0116977D01*
X0137195Y0117097D01*
X0137166Y0117217D01*
X0137140Y0117339D01*
X0137118Y0117462D01*
X0137101Y0117585D01*
X0137087Y0117708D01*
X0137077Y0117832D01*
X0137071Y0117957D01*
X0137069Y0118081D01*
X0136969Y0114081D02*
X0144969Y0122081D01*
M02*
