%
M48
M72
T01C0.01969
T02C0.03200
T03C0.03600
T04C0.03937
%
T01
X40175Y20962
X41425Y14087
X45800Y14087
X51425Y20962
X51425Y25962
X49550Y37837
X52675Y41900
X69550Y43150
X69550Y50650
X65800Y54087
X55487Y59712
X52050Y64400
X46425Y65025
X40800Y65025
X35175Y67212
X30175Y69400
X35175Y62525
X35175Y57837
X16738Y46275
X16738Y40962
X60800Y62837
T02
X23612Y24444
X18613Y33105
X67675Y24757
X72675Y33417
X50800Y71900
X40800Y71900
T03
X25342Y61458
X20342Y52798
T04
X26115Y38462
X45800Y51061
X65485Y38462
M30
