G75*
%MOIN*%
%OFA0B0*%
%FSLAX25Y25*%
%IPPOS*%
%LPD*%
%AMOC8*
5,1,8,0,0,1.08239X$1,22.5*
%
%ADD10C,0.00100*%
%ADD11C,0.00600*%
%ADD12R,0.01600X0.03400*%
%ADD13C,0.00200*%
%ADD14R,0.03400X0.01600*%
%ADD15C,0.00400*%
%ADD16R,0.03740X0.01969*%
%ADD17C,0.01000*%
%ADD18C,0.00500*%
%ADD19C,0.00512*%
D10*
X0010875Y0043575D02*
X0010886Y0044434D01*
X0010917Y0045292D01*
X0010970Y0046150D01*
X0011044Y0047006D01*
X0011138Y0047859D01*
X0011254Y0048711D01*
X0011390Y0049559D01*
X0011548Y0050403D01*
X0011725Y0051244D01*
X0011924Y0052079D01*
X0012143Y0052910D01*
X0012382Y0053735D01*
X0012642Y0054554D01*
X0012921Y0055366D01*
X0013220Y0056171D01*
X0013539Y0056969D01*
X0013878Y0057758D01*
X0014235Y0058539D01*
X0014612Y0059311D01*
X0015008Y0060074D01*
X0015422Y0060826D01*
X0015854Y0061569D01*
X0016305Y0062300D01*
X0016774Y0063020D01*
X0017260Y0063728D01*
X0017763Y0064424D01*
X0018283Y0065108D01*
X0018820Y0065779D01*
X0019373Y0066436D01*
X0019942Y0067080D01*
X0020526Y0067709D01*
X0021126Y0068324D01*
X0021741Y0068924D01*
X0022370Y0069508D01*
X0023014Y0070077D01*
X0023671Y0070630D01*
X0024342Y0071167D01*
X0025026Y0071687D01*
X0025722Y0072190D01*
X0026430Y0072676D01*
X0027150Y0073145D01*
X0027881Y0073596D01*
X0028624Y0074028D01*
X0029376Y0074442D01*
X0030139Y0074838D01*
X0030911Y0075215D01*
X0031692Y0075572D01*
X0032481Y0075911D01*
X0033279Y0076230D01*
X0034084Y0076529D01*
X0034896Y0076808D01*
X0035715Y0077068D01*
X0036540Y0077307D01*
X0037371Y0077526D01*
X0038206Y0077725D01*
X0039047Y0077902D01*
X0039891Y0078060D01*
X0040739Y0078196D01*
X0041591Y0078312D01*
X0042444Y0078406D01*
X0043300Y0078480D01*
X0044158Y0078533D01*
X0045016Y0078564D01*
X0045875Y0078575D01*
X0046734Y0078564D01*
X0047592Y0078533D01*
X0048450Y0078480D01*
X0049306Y0078406D01*
X0050159Y0078312D01*
X0051011Y0078196D01*
X0051859Y0078060D01*
X0052703Y0077902D01*
X0053544Y0077725D01*
X0054379Y0077526D01*
X0055210Y0077307D01*
X0056035Y0077068D01*
X0056854Y0076808D01*
X0057666Y0076529D01*
X0058471Y0076230D01*
X0059269Y0075911D01*
X0060058Y0075572D01*
X0060839Y0075215D01*
X0061611Y0074838D01*
X0062374Y0074442D01*
X0063126Y0074028D01*
X0063869Y0073596D01*
X0064600Y0073145D01*
X0065320Y0072676D01*
X0066028Y0072190D01*
X0066724Y0071687D01*
X0067408Y0071167D01*
X0068079Y0070630D01*
X0068736Y0070077D01*
X0069380Y0069508D01*
X0070009Y0068924D01*
X0070624Y0068324D01*
X0071224Y0067709D01*
X0071808Y0067080D01*
X0072377Y0066436D01*
X0072930Y0065779D01*
X0073467Y0065108D01*
X0073987Y0064424D01*
X0074490Y0063728D01*
X0074976Y0063020D01*
X0075445Y0062300D01*
X0075896Y0061569D01*
X0076328Y0060826D01*
X0076742Y0060074D01*
X0077138Y0059311D01*
X0077515Y0058539D01*
X0077872Y0057758D01*
X0078211Y0056969D01*
X0078530Y0056171D01*
X0078829Y0055366D01*
X0079108Y0054554D01*
X0079368Y0053735D01*
X0079607Y0052910D01*
X0079826Y0052079D01*
X0080025Y0051244D01*
X0080202Y0050403D01*
X0080360Y0049559D01*
X0080496Y0048711D01*
X0080612Y0047859D01*
X0080706Y0047006D01*
X0080780Y0046150D01*
X0080833Y0045292D01*
X0080864Y0044434D01*
X0080875Y0043575D01*
X0080864Y0042716D01*
X0080833Y0041858D01*
X0080780Y0041000D01*
X0080706Y0040144D01*
X0080612Y0039291D01*
X0080496Y0038439D01*
X0080360Y0037591D01*
X0080202Y0036747D01*
X0080025Y0035906D01*
X0079826Y0035071D01*
X0079607Y0034240D01*
X0079368Y0033415D01*
X0079108Y0032596D01*
X0078829Y0031784D01*
X0078530Y0030979D01*
X0078211Y0030181D01*
X0077872Y0029392D01*
X0077515Y0028611D01*
X0077138Y0027839D01*
X0076742Y0027076D01*
X0076328Y0026324D01*
X0075896Y0025581D01*
X0075445Y0024850D01*
X0074976Y0024130D01*
X0074490Y0023422D01*
X0073987Y0022726D01*
X0073467Y0022042D01*
X0072930Y0021371D01*
X0072377Y0020714D01*
X0071808Y0020070D01*
X0071224Y0019441D01*
X0070624Y0018826D01*
X0070009Y0018226D01*
X0069380Y0017642D01*
X0068736Y0017073D01*
X0068079Y0016520D01*
X0067408Y0015983D01*
X0066724Y0015463D01*
X0066028Y0014960D01*
X0065320Y0014474D01*
X0064600Y0014005D01*
X0063869Y0013554D01*
X0063126Y0013122D01*
X0062374Y0012708D01*
X0061611Y0012312D01*
X0060839Y0011935D01*
X0060058Y0011578D01*
X0059269Y0011239D01*
X0058471Y0010920D01*
X0057666Y0010621D01*
X0056854Y0010342D01*
X0056035Y0010082D01*
X0055210Y0009843D01*
X0054379Y0009624D01*
X0053544Y0009425D01*
X0052703Y0009248D01*
X0051859Y0009090D01*
X0051011Y0008954D01*
X0050159Y0008838D01*
X0049306Y0008744D01*
X0048450Y0008670D01*
X0047592Y0008617D01*
X0046734Y0008586D01*
X0045875Y0008575D01*
X0045016Y0008586D01*
X0044158Y0008617D01*
X0043300Y0008670D01*
X0042444Y0008744D01*
X0041591Y0008838D01*
X0040739Y0008954D01*
X0039891Y0009090D01*
X0039047Y0009248D01*
X0038206Y0009425D01*
X0037371Y0009624D01*
X0036540Y0009843D01*
X0035715Y0010082D01*
X0034896Y0010342D01*
X0034084Y0010621D01*
X0033279Y0010920D01*
X0032481Y0011239D01*
X0031692Y0011578D01*
X0030911Y0011935D01*
X0030139Y0012312D01*
X0029376Y0012708D01*
X0028624Y0013122D01*
X0027881Y0013554D01*
X0027150Y0014005D01*
X0026430Y0014474D01*
X0025722Y0014960D01*
X0025026Y0015463D01*
X0024342Y0015983D01*
X0023671Y0016520D01*
X0023014Y0017073D01*
X0022370Y0017642D01*
X0021741Y0018226D01*
X0021126Y0018826D01*
X0020526Y0019441D01*
X0019942Y0020070D01*
X0019373Y0020714D01*
X0018820Y0021371D01*
X0018283Y0022042D01*
X0017763Y0022726D01*
X0017260Y0023422D01*
X0016774Y0024130D01*
X0016305Y0024850D01*
X0015854Y0025581D01*
X0015422Y0026324D01*
X0015008Y0027076D01*
X0014612Y0027839D01*
X0014235Y0028611D01*
X0013878Y0029392D01*
X0013539Y0030181D01*
X0013220Y0030979D01*
X0012921Y0031784D01*
X0012642Y0032596D01*
X0012382Y0033415D01*
X0012143Y0034240D01*
X0011924Y0035071D01*
X0011725Y0035906D01*
X0011548Y0036747D01*
X0011390Y0037591D01*
X0011254Y0038439D01*
X0011138Y0039291D01*
X0011044Y0040144D01*
X0010970Y0041000D01*
X0010917Y0041858D01*
X0010886Y0042716D01*
X0010875Y0043575D01*
D11*
X0029793Y0018015D02*
X0032738Y0016314D01*
X0034140Y0018742D02*
X0031194Y0020443D01*
X0033300Y0032212D02*
X0018800Y0032212D01*
X0018800Y0034712D01*
X0003800Y0034712D01*
X0003702Y0034714D01*
X0003604Y0034720D01*
X0003506Y0034729D01*
X0003409Y0034743D01*
X0003312Y0034760D01*
X0003216Y0034781D01*
X0003121Y0034806D01*
X0003027Y0034834D01*
X0002935Y0034867D01*
X0002843Y0034902D01*
X0002753Y0034942D01*
X0002665Y0034984D01*
X0002578Y0035031D01*
X0002494Y0035080D01*
X0002411Y0035133D01*
X0002331Y0035189D01*
X0002252Y0035249D01*
X0002176Y0035311D01*
X0002103Y0035376D01*
X0002032Y0035444D01*
X0001964Y0035515D01*
X0001899Y0035588D01*
X0001837Y0035664D01*
X0001777Y0035743D01*
X0001721Y0035823D01*
X0001668Y0035906D01*
X0001619Y0035990D01*
X0001572Y0036077D01*
X0001530Y0036165D01*
X0001490Y0036255D01*
X0001455Y0036347D01*
X0001422Y0036439D01*
X0001394Y0036533D01*
X0001369Y0036628D01*
X0001348Y0036724D01*
X0001331Y0036821D01*
X0001317Y0036918D01*
X0001308Y0037016D01*
X0001302Y0037114D01*
X0001300Y0037212D01*
X0001300Y0049962D01*
X0001302Y0050060D01*
X0001308Y0050158D01*
X0001317Y0050256D01*
X0001331Y0050353D01*
X0001348Y0050450D01*
X0001369Y0050546D01*
X0001394Y0050641D01*
X0001422Y0050735D01*
X0001455Y0050827D01*
X0001490Y0050919D01*
X0001530Y0051009D01*
X0001572Y0051097D01*
X0001619Y0051184D01*
X0001668Y0051268D01*
X0001721Y0051351D01*
X0001777Y0051431D01*
X0001837Y0051510D01*
X0001899Y0051586D01*
X0001964Y0051659D01*
X0002032Y0051730D01*
X0002103Y0051798D01*
X0002176Y0051863D01*
X0002252Y0051925D01*
X0002331Y0051985D01*
X0002411Y0052041D01*
X0002494Y0052094D01*
X0002578Y0052143D01*
X0002665Y0052190D01*
X0002753Y0052232D01*
X0002843Y0052272D01*
X0002935Y0052307D01*
X0003027Y0052340D01*
X0003121Y0052368D01*
X0003216Y0052393D01*
X0003312Y0052414D01*
X0003409Y0052431D01*
X0003506Y0052445D01*
X0003604Y0052454D01*
X0003702Y0052460D01*
X0003800Y0052462D01*
X0041300Y0052462D01*
X0050300Y0052462D01*
X0087800Y0052462D01*
X0087898Y0052460D01*
X0087996Y0052454D01*
X0088094Y0052445D01*
X0088191Y0052431D01*
X0088288Y0052414D01*
X0088384Y0052393D01*
X0088479Y0052368D01*
X0088573Y0052340D01*
X0088665Y0052307D01*
X0088757Y0052272D01*
X0088847Y0052232D01*
X0088935Y0052190D01*
X0089022Y0052143D01*
X0089106Y0052094D01*
X0089189Y0052041D01*
X0089269Y0051985D01*
X0089348Y0051925D01*
X0089424Y0051863D01*
X0089497Y0051798D01*
X0089568Y0051730D01*
X0089636Y0051659D01*
X0089701Y0051586D01*
X0089763Y0051510D01*
X0089823Y0051431D01*
X0089879Y0051351D01*
X0089932Y0051268D01*
X0089981Y0051184D01*
X0090028Y0051097D01*
X0090070Y0051009D01*
X0090110Y0050919D01*
X0090145Y0050827D01*
X0090178Y0050735D01*
X0090206Y0050641D01*
X0090231Y0050546D01*
X0090252Y0050450D01*
X0090269Y0050353D01*
X0090283Y0050256D01*
X0090292Y0050158D01*
X0090298Y0050060D01*
X0090300Y0049962D01*
X0090300Y0037212D01*
X0090298Y0037114D01*
X0090292Y0037016D01*
X0090283Y0036918D01*
X0090269Y0036821D01*
X0090252Y0036724D01*
X0090231Y0036628D01*
X0090206Y0036533D01*
X0090178Y0036439D01*
X0090145Y0036347D01*
X0090110Y0036255D01*
X0090070Y0036165D01*
X0090028Y0036077D01*
X0089981Y0035990D01*
X0089932Y0035906D01*
X0089879Y0035823D01*
X0089823Y0035743D01*
X0089763Y0035664D01*
X0089701Y0035588D01*
X0089636Y0035515D01*
X0089568Y0035444D01*
X0089497Y0035376D01*
X0089424Y0035311D01*
X0089348Y0035249D01*
X0089269Y0035189D01*
X0089189Y0035133D01*
X0089106Y0035080D01*
X0089022Y0035031D01*
X0088935Y0034984D01*
X0088847Y0034942D01*
X0088757Y0034902D01*
X0088665Y0034867D01*
X0088573Y0034834D01*
X0088479Y0034806D01*
X0088384Y0034781D01*
X0088288Y0034760D01*
X0088191Y0034743D01*
X0088094Y0034729D01*
X0087996Y0034720D01*
X0087898Y0034714D01*
X0087800Y0034712D01*
X0077800Y0034712D01*
X0077800Y0032212D01*
X0058300Y0032212D01*
X0058300Y0034712D01*
X0077800Y0034712D01*
X0076264Y0041761D02*
X0076264Y0045163D01*
X0073461Y0045163D02*
X0073461Y0041761D01*
X0061577Y0048636D02*
X0061577Y0052038D01*
X0058773Y0052038D02*
X0058773Y0048636D01*
X0063300Y0054962D02*
X0053300Y0054962D01*
X0053300Y0057462D01*
X0038300Y0057462D01*
X0028300Y0057462D01*
X0028300Y0054962D01*
X0007800Y0054962D01*
X0007702Y0054960D01*
X0007604Y0054954D01*
X0007506Y0054945D01*
X0007409Y0054931D01*
X0007312Y0054914D01*
X0007216Y0054893D01*
X0007121Y0054868D01*
X0007027Y0054840D01*
X0006935Y0054807D01*
X0006843Y0054772D01*
X0006753Y0054732D01*
X0006665Y0054690D01*
X0006578Y0054643D01*
X0006494Y0054594D01*
X0006411Y0054541D01*
X0006331Y0054485D01*
X0006252Y0054425D01*
X0006176Y0054363D01*
X0006103Y0054298D01*
X0006032Y0054230D01*
X0005964Y0054159D01*
X0005899Y0054086D01*
X0005837Y0054010D01*
X0005777Y0053931D01*
X0005721Y0053851D01*
X0005668Y0053768D01*
X0005619Y0053684D01*
X0005572Y0053597D01*
X0005530Y0053509D01*
X0005490Y0053419D01*
X0005455Y0053327D01*
X0005422Y0053235D01*
X0005394Y0053141D01*
X0005369Y0053046D01*
X0005348Y0052950D01*
X0005331Y0052853D01*
X0005317Y0052756D01*
X0005308Y0052658D01*
X0005302Y0052560D01*
X0005300Y0052462D01*
X0028300Y0054962D02*
X0038300Y0054962D01*
X0038300Y0057462D01*
X0038300Y0054962D02*
X0053300Y0054962D01*
X0053300Y0057462D02*
X0063300Y0057462D01*
X0063300Y0054962D01*
X0083800Y0054962D01*
X0083898Y0054960D01*
X0083996Y0054954D01*
X0084094Y0054945D01*
X0084191Y0054931D01*
X0084288Y0054914D01*
X0084384Y0054893D01*
X0084479Y0054868D01*
X0084573Y0054840D01*
X0084665Y0054807D01*
X0084757Y0054772D01*
X0084847Y0054732D01*
X0084935Y0054690D01*
X0085022Y0054643D01*
X0085106Y0054594D01*
X0085189Y0054541D01*
X0085269Y0054485D01*
X0085348Y0054425D01*
X0085424Y0054363D01*
X0085497Y0054298D01*
X0085568Y0054230D01*
X0085636Y0054159D01*
X0085701Y0054086D01*
X0085763Y0054010D01*
X0085823Y0053931D01*
X0085879Y0053851D01*
X0085932Y0053768D01*
X0085981Y0053684D01*
X0086028Y0053597D01*
X0086070Y0053509D01*
X0086110Y0053419D01*
X0086145Y0053327D01*
X0086178Y0053235D01*
X0086206Y0053141D01*
X0086231Y0053046D01*
X0086252Y0052950D01*
X0086269Y0052853D01*
X0086283Y0052756D01*
X0086292Y0052658D01*
X0086298Y0052560D01*
X0086300Y0052462D01*
X0062661Y0068825D02*
X0059715Y0070526D01*
X0058314Y0068099D02*
X0061260Y0066398D01*
X0046876Y0059864D02*
X0043474Y0059864D01*
X0043474Y0057061D02*
X0046876Y0057061D01*
X0058300Y0034712D02*
X0033300Y0034712D01*
X0033300Y0032212D01*
X0058300Y0032212D01*
X0033300Y0034712D02*
X0018800Y0034712D01*
D12*
G36*
X0029644Y0017756D02*
X0028259Y0018556D01*
X0029958Y0021500D01*
X0031343Y0020700D01*
X0029644Y0017756D01*
G37*
G36*
X0033974Y0015256D02*
X0032589Y0016056D01*
X0034288Y0019000D01*
X0035673Y0018200D01*
X0033974Y0015256D01*
G37*
X0042675Y0058462D03*
X0047675Y0058462D03*
G36*
X0058165Y0067840D02*
X0056780Y0068640D01*
X0058479Y0071584D01*
X0059864Y0070784D01*
X0058165Y0067840D01*
G37*
G36*
X0062496Y0065340D02*
X0061111Y0066140D01*
X0062810Y0069084D01*
X0064195Y0068284D01*
X0062496Y0065340D01*
G37*
D13*
X0067253Y0063400D02*
X0067388Y0062899D01*
X0068023Y0062532D01*
X0068524Y0062666D01*
X0068984Y0061978D02*
X0069986Y0062246D01*
X0069668Y0062430D02*
X0070622Y0061879D01*
X0070255Y0061244D02*
X0071356Y0063150D01*
X0070402Y0063701D01*
X0069901Y0063567D01*
X0069534Y0062931D01*
X0069668Y0062430D01*
X0069258Y0063938D02*
X0069124Y0064439D01*
X0068489Y0064806D01*
X0067987Y0064672D01*
X0067804Y0064354D01*
X0067938Y0063852D01*
X0067437Y0063718D01*
X0067253Y0063400D01*
X0067938Y0063852D02*
X0068256Y0063669D01*
X0066539Y0050990D02*
X0066539Y0049522D01*
X0065438Y0049522D01*
X0065805Y0050256D01*
X0065805Y0050623D01*
X0065438Y0050990D01*
X0064704Y0050990D01*
X0064337Y0050623D01*
X0064337Y0049889D01*
X0064704Y0049522D01*
X0064337Y0048780D02*
X0065071Y0048046D01*
X0065071Y0048413D02*
X0065071Y0047312D01*
X0064337Y0047312D02*
X0066539Y0047312D01*
X0066539Y0048413D01*
X0066172Y0048780D01*
X0065438Y0048780D01*
X0065071Y0048413D01*
X0069025Y0045052D02*
X0069025Y0043584D01*
X0069025Y0044318D02*
X0071227Y0044318D01*
X0070493Y0043584D01*
X0070860Y0042843D02*
X0070126Y0042843D01*
X0069759Y0042476D01*
X0069759Y0041375D01*
X0069759Y0042109D02*
X0069025Y0042843D01*
X0069025Y0041375D02*
X0071227Y0041375D01*
X0071227Y0042476D01*
X0070860Y0042843D01*
X0050602Y0045804D02*
X0050235Y0045437D01*
X0048767Y0045437D01*
X0048400Y0045804D01*
X0048400Y0046538D01*
X0048767Y0046905D01*
X0048400Y0047647D02*
X0048400Y0049115D01*
X0048400Y0048381D02*
X0050602Y0048381D01*
X0049868Y0047647D01*
X0050235Y0046905D02*
X0050602Y0046538D01*
X0050602Y0045804D01*
X0048557Y0044309D02*
X0048557Y0042842D01*
X0048190Y0042475D01*
X0047456Y0042475D01*
X0047089Y0042842D01*
X0047089Y0043576D01*
X0047823Y0043576D01*
X0047089Y0044309D02*
X0047456Y0044676D01*
X0048190Y0044676D01*
X0048557Y0044309D01*
X0046347Y0043943D02*
X0045613Y0044676D01*
X0045613Y0042475D01*
X0046347Y0042475D02*
X0044879Y0042475D01*
X0035124Y0024680D02*
X0034622Y0024546D01*
X0034439Y0024228D01*
X0034976Y0022223D01*
X0033705Y0022957D01*
X0035619Y0021852D02*
X0036621Y0022121D01*
X0036303Y0022304D02*
X0037257Y0021754D01*
X0036890Y0021118D02*
X0037991Y0023025D01*
X0037037Y0023575D01*
X0036536Y0023441D01*
X0036169Y0022805D01*
X0036303Y0022304D01*
X0035893Y0023812D02*
X0035759Y0024313D01*
X0035124Y0024680D01*
X0043952Y0062312D02*
X0043952Y0064514D01*
X0045053Y0063413D01*
X0043585Y0063413D01*
X0045795Y0063413D02*
X0046162Y0063046D01*
X0047262Y0063046D01*
X0046529Y0063046D02*
X0045795Y0062312D01*
X0045795Y0063413D02*
X0045795Y0064147D01*
X0046162Y0064514D01*
X0047262Y0064514D01*
X0047262Y0062312D01*
D14*
X0060175Y0052837D03*
X0060175Y0047837D03*
X0074863Y0045962D03*
X0074863Y0040962D03*
D15*
X0078138Y0030254D02*
X0077371Y0029487D01*
X0080440Y0026418D01*
X0079673Y0025650D01*
X0078138Y0025650D01*
X0077371Y0026418D01*
X0077371Y0029487D01*
X0078138Y0030254D02*
X0079673Y0030254D01*
X0080440Y0029487D01*
X0080440Y0026418D01*
X0055001Y0048623D02*
X0055001Y0051426D01*
X0051650Y0051426D02*
X0051650Y0048623D01*
D16*
X0053320Y0047709D03*
X0053320Y0052309D03*
D17*
X0036300Y0059962D02*
X0031300Y0059962D01*
X0045800Y0030712D02*
X0045800Y0025712D01*
X0048300Y0028212D02*
X0043300Y0028212D01*
D18*
X0042560Y0044712D02*
X0041809Y0044712D01*
X0041809Y0045463D01*
X0042560Y0045463D01*
X0042560Y0044712D01*
X0044161Y0044712D02*
X0044161Y0046964D01*
X0044912Y0047715D01*
X0046413Y0047715D01*
X0047164Y0046964D01*
X0048732Y0047715D02*
X0050233Y0047715D01*
X0049482Y0048465D02*
X0049482Y0045463D01*
X0048732Y0044712D01*
X0047164Y0044712D02*
X0047164Y0049216D01*
X0052552Y0049216D02*
X0052552Y0049967D01*
X0052552Y0047715D02*
X0052552Y0044712D01*
X0053302Y0044712D02*
X0051801Y0044712D01*
X0052552Y0047715D02*
X0053302Y0047715D01*
X0054904Y0044712D02*
X0057906Y0044712D01*
X0057906Y0049216D01*
X0040258Y0048465D02*
X0039507Y0049216D01*
X0038006Y0049216D01*
X0037255Y0048465D01*
X0037255Y0047715D01*
X0038006Y0046964D01*
X0037255Y0046213D01*
X0037255Y0045463D01*
X0038006Y0044712D01*
X0039507Y0044712D01*
X0040258Y0045463D01*
X0038757Y0046964D02*
X0038006Y0046964D01*
X0035654Y0046213D02*
X0034153Y0044712D01*
X0032651Y0046213D01*
X0032651Y0049216D01*
X0035654Y0049216D02*
X0035654Y0046213D01*
D19*
X0045328Y0032212D02*
X0065544Y0032212D01*
X0065800Y0032212D02*
X0065800Y0033236D01*
X0065800Y0032212D01*
X0065800Y0031188D01*
X0065800Y0032212D01*
X0065800Y0032724D01*
X0065800Y0032212D01*
X0065800Y0031700D01*
X0065800Y0032212D01*
X0065800Y0033469D01*
X0065800Y0030955D01*
X0065800Y0032212D01*
X0065800Y0033469D01*
X0065800Y0030955D01*
X0065800Y0032212D01*
X0065800Y0032212D01*
X0065800Y0032212D01*
X0066056Y0032212D02*
X0079937Y0032212D01*
M02*
