G75*
%MOIN*%
%OFA0B0*%
%FSLAX25Y25*%
%IPPOS*%
%LPD*%
%AMOC8*
5,1,8,0,0,1.08239X$1,22.5*
%
%ADD10C,0.04775*%
%ADD11C,0.07400*%
%ADD12OC8,0.04775*%
%ADD13C,0.05118*%
%ADD14C,0.01200*%
D10*
X0120969Y0072569D02*
X0120969Y0077344D01*
X0130969Y0077344D02*
X0130969Y0072569D01*
X0140969Y0072569D02*
X0140969Y0077344D01*
X0150969Y0077344D02*
X0150969Y0072569D01*
X0150969Y0102569D02*
X0150969Y0107344D01*
X0140969Y0107344D02*
X0140969Y0102569D01*
X0130969Y0102569D02*
X0130969Y0107344D01*
X0120969Y0107344D02*
X0120969Y0102569D01*
D11*
X0108157Y0094286D03*
X0113157Y0085626D03*
X0158782Y0085626D03*
X0163782Y0094286D03*
X0140969Y0118081D03*
X0130969Y0118081D03*
D12*
X0130969Y0126519D03*
X0140969Y0126519D03*
D13*
X0154123Y0119927D03*
X0159691Y0114360D03*
X0118753Y0119927D03*
X0113185Y0114360D03*
X0115219Y0104956D03*
X0107345Y0104956D03*
D14*
X0121246Y0067713D02*
X0127622Y0065352D01*
X0134342Y0064322D01*
X0141132Y0064667D01*
X0147714Y0066371D01*
X0153818Y0069365D01*
X0159195Y0073527D01*
X0163623Y0078685D01*
X0166923Y0084630D01*
X0168958Y0091117D01*
X0168958Y0091117D01*
X0169646Y0097881D01*
X0168958Y0104645D01*
X0166923Y0111132D01*
X0163623Y0117077D01*
X0159195Y0122236D01*
X0153818Y0126397D01*
X0147714Y0129391D01*
X0141132Y0131096D01*
X0134342Y0131440D01*
X0127622Y0130410D01*
X0121246Y0128049D01*
X0115476Y0124453D01*
X0110548Y0119768D01*
X0106664Y0114188D01*
X0103983Y0107940D01*
X0103863Y0107356D01*
X0104989Y0108482D01*
X0106517Y0109115D01*
X0108172Y0109115D01*
X0109701Y0108482D01*
X0110871Y0107312D01*
X0111282Y0106319D01*
X0111693Y0107312D01*
X0112863Y0108482D01*
X0114391Y0109115D01*
X0116046Y0109115D01*
X0117191Y0108641D01*
X0117589Y0109602D01*
X0118710Y0110724D01*
X0120176Y0111331D01*
X0121762Y0111331D01*
X0123228Y0110724D01*
X0124349Y0109602D01*
X0124957Y0108137D01*
X0124957Y0101776D01*
X0124349Y0100310D01*
X0123228Y0099188D01*
X0121762Y0098581D01*
X0120176Y0098581D01*
X0118710Y0099188D01*
X0117589Y0100310D01*
X0117191Y0101271D01*
X0116046Y0100797D01*
X0114391Y0100797D01*
X0112863Y0101430D01*
X0111693Y0102600D01*
X0111282Y0103593D01*
X0110871Y0102600D01*
X0109701Y0101430D01*
X0108172Y0100797D01*
X0106517Y0100797D01*
X0104989Y0101430D01*
X0103819Y0102600D01*
X0103195Y0104106D01*
X0102615Y0101281D01*
X0102615Y0094482D01*
X0103983Y0087822D01*
X0106664Y0081574D01*
X0110548Y0075994D01*
X0115476Y0071309D01*
X0118431Y0069468D01*
X0117589Y0070310D01*
X0116982Y0071776D01*
X0116982Y0078137D01*
X0117589Y0079602D01*
X0118710Y0080724D01*
X0120176Y0081331D01*
X0121762Y0081331D01*
X0123228Y0080724D01*
X0124349Y0079602D01*
X0124957Y0078137D01*
X0124957Y0071776D01*
X0124349Y0070310D01*
X0123228Y0069188D01*
X0121762Y0068581D01*
X0120176Y0068581D01*
X0119213Y0068980D01*
X0121246Y0067713D01*
X0120986Y0067875D02*
X0150781Y0067875D01*
X0148338Y0066677D02*
X0124045Y0066677D01*
X0127281Y0065478D02*
X0144267Y0065478D01*
X0143228Y0069188D02*
X0141762Y0068581D01*
X0140176Y0068581D01*
X0138710Y0069188D01*
X0137589Y0070310D01*
X0136982Y0071776D01*
X0136982Y0078137D01*
X0137589Y0079602D01*
X0138710Y0080724D01*
X0140176Y0081331D01*
X0141762Y0081331D01*
X0143228Y0080724D01*
X0144349Y0079602D01*
X0144957Y0078137D01*
X0144957Y0071776D01*
X0144349Y0070310D01*
X0143228Y0069188D01*
X0142951Y0069074D02*
X0153225Y0069074D01*
X0154990Y0070272D02*
X0144312Y0070272D01*
X0144830Y0071471D02*
X0156539Y0071471D01*
X0158087Y0072669D02*
X0144957Y0072669D01*
X0144957Y0073868D02*
X0159488Y0073868D01*
X0160517Y0075066D02*
X0144957Y0075066D01*
X0144957Y0076265D02*
X0161545Y0076265D01*
X0162574Y0077463D02*
X0144957Y0077463D01*
X0144739Y0078662D02*
X0163603Y0078662D01*
X0164276Y0079860D02*
X0144091Y0079860D01*
X0142419Y0081059D02*
X0155958Y0081059D01*
X0155779Y0081133D02*
X0157727Y0080326D01*
X0159836Y0080326D01*
X0161784Y0081133D01*
X0163275Y0082624D01*
X0164082Y0084572D01*
X0164082Y0086680D01*
X0163275Y0088628D01*
X0161784Y0090119D01*
X0159836Y0090926D01*
X0157727Y0090926D01*
X0155779Y0090119D01*
X0154289Y0088628D01*
X0153482Y0086680D01*
X0153482Y0084572D01*
X0154289Y0082624D01*
X0155779Y0081133D01*
X0154655Y0082257D02*
X0117283Y0082257D01*
X0117650Y0082624D02*
X0118457Y0084572D01*
X0118457Y0086680D01*
X0117650Y0088628D01*
X0116159Y0090119D01*
X0114211Y0090926D01*
X0112102Y0090926D01*
X0110154Y0090119D01*
X0108664Y0088628D01*
X0107857Y0086680D01*
X0107857Y0084572D01*
X0108664Y0082624D01*
X0110154Y0081133D01*
X0112102Y0080326D01*
X0114211Y0080326D01*
X0116159Y0081133D01*
X0117650Y0082624D01*
X0117994Y0083456D02*
X0153944Y0083456D01*
X0153482Y0084654D02*
X0118457Y0084654D01*
X0118457Y0085853D02*
X0153482Y0085853D01*
X0153635Y0087051D02*
X0118303Y0087051D01*
X0117806Y0088250D02*
X0154132Y0088250D01*
X0155109Y0089448D02*
X0116830Y0089448D01*
X0114885Y0090647D02*
X0157054Y0090647D01*
X0160510Y0090647D02*
X0168811Y0090647D01*
X0169032Y0091845D02*
X0103156Y0091845D01*
X0103403Y0090647D02*
X0111429Y0090647D01*
X0109484Y0089448D02*
X0103649Y0089448D01*
X0103895Y0088250D02*
X0108507Y0088250D01*
X0108010Y0087051D02*
X0104314Y0087051D01*
X0104828Y0085853D02*
X0107857Y0085853D01*
X0107857Y0084654D02*
X0105343Y0084654D01*
X0105857Y0083456D02*
X0108319Y0083456D01*
X0109030Y0082257D02*
X0106371Y0082257D01*
X0107023Y0081059D02*
X0110333Y0081059D01*
X0107857Y0079860D02*
X0117847Y0079860D01*
X0117199Y0078662D02*
X0108691Y0078662D01*
X0109526Y0077463D02*
X0116982Y0077463D01*
X0116982Y0076265D02*
X0110360Y0076265D01*
X0111524Y0075066D02*
X0116982Y0075066D01*
X0116982Y0073868D02*
X0112785Y0073868D01*
X0114046Y0072669D02*
X0116982Y0072669D01*
X0117108Y0071471D02*
X0115307Y0071471D01*
X0117140Y0070272D02*
X0117627Y0070272D01*
X0122951Y0069074D02*
X0128987Y0069074D01*
X0128710Y0069188D02*
X0130176Y0068581D01*
X0131762Y0068581D01*
X0133228Y0069188D01*
X0134349Y0070310D01*
X0134957Y0071776D01*
X0134957Y0078137D01*
X0134349Y0079602D01*
X0133228Y0080724D01*
X0131762Y0081331D01*
X0130176Y0081331D01*
X0128710Y0080724D01*
X0127589Y0079602D01*
X0126982Y0078137D01*
X0126982Y0071776D01*
X0127589Y0070310D01*
X0128710Y0069188D01*
X0127627Y0070272D02*
X0124312Y0070272D01*
X0124830Y0071471D02*
X0127108Y0071471D01*
X0126982Y0072669D02*
X0124957Y0072669D01*
X0124957Y0073868D02*
X0126982Y0073868D01*
X0126982Y0075066D02*
X0124957Y0075066D01*
X0124957Y0076265D02*
X0126982Y0076265D01*
X0126982Y0077463D02*
X0124957Y0077463D01*
X0124739Y0078662D02*
X0127199Y0078662D01*
X0127847Y0079860D02*
X0124091Y0079860D01*
X0122419Y0081059D02*
X0129519Y0081059D01*
X0132419Y0081059D02*
X0139519Y0081059D01*
X0137847Y0079860D02*
X0134091Y0079860D01*
X0134739Y0078662D02*
X0137199Y0078662D01*
X0136982Y0077463D02*
X0134957Y0077463D01*
X0134957Y0076265D02*
X0136982Y0076265D01*
X0136982Y0075066D02*
X0134957Y0075066D01*
X0134957Y0073868D02*
X0136982Y0073868D01*
X0136982Y0072669D02*
X0134957Y0072669D01*
X0134830Y0071471D02*
X0137108Y0071471D01*
X0137627Y0070272D02*
X0134312Y0070272D01*
X0132951Y0069074D02*
X0138987Y0069074D01*
X0119519Y0081059D02*
X0115980Y0081059D01*
X0102910Y0093044D02*
X0169154Y0093044D01*
X0169276Y0094242D02*
X0102664Y0094242D01*
X0102615Y0095441D02*
X0169398Y0095441D01*
X0169520Y0096639D02*
X0102615Y0096639D01*
X0102615Y0097838D02*
X0169642Y0097838D01*
X0169529Y0099036D02*
X0152861Y0099036D01*
X0153228Y0099188D02*
X0154349Y0100310D01*
X0154957Y0101776D01*
X0154957Y0108137D01*
X0154349Y0109602D01*
X0153228Y0110724D01*
X0151762Y0111331D01*
X0150176Y0111331D01*
X0148710Y0110724D01*
X0147589Y0109602D01*
X0146982Y0108137D01*
X0146982Y0101776D01*
X0147589Y0100310D01*
X0148710Y0099188D01*
X0150176Y0098581D01*
X0151762Y0098581D01*
X0153228Y0099188D01*
X0154274Y0100235D02*
X0169407Y0100235D01*
X0169285Y0101433D02*
X0154815Y0101433D01*
X0154957Y0102632D02*
X0169163Y0102632D01*
X0169041Y0103830D02*
X0154957Y0103830D01*
X0154957Y0105029D02*
X0168838Y0105029D01*
X0168462Y0106228D02*
X0154957Y0106228D01*
X0154957Y0107426D02*
X0168086Y0107426D01*
X0167710Y0108625D02*
X0154754Y0108625D01*
X0154129Y0109823D02*
X0167334Y0109823D01*
X0166958Y0111022D02*
X0152509Y0111022D01*
X0149429Y0111022D02*
X0142509Y0111022D01*
X0143228Y0110724D02*
X0141762Y0111331D01*
X0140176Y0111331D01*
X0138710Y0110724D01*
X0137589Y0109602D01*
X0136982Y0108137D01*
X0136982Y0101776D01*
X0137589Y0100310D01*
X0138710Y0099188D01*
X0140176Y0098581D01*
X0141762Y0098581D01*
X0143228Y0099188D01*
X0144349Y0100310D01*
X0144957Y0101776D01*
X0144957Y0108137D01*
X0144349Y0109602D01*
X0143228Y0110724D01*
X0144129Y0109823D02*
X0147810Y0109823D01*
X0147184Y0108625D02*
X0144754Y0108625D01*
X0144957Y0107426D02*
X0146982Y0107426D01*
X0146982Y0106228D02*
X0144957Y0106228D01*
X0144957Y0105029D02*
X0146982Y0105029D01*
X0146982Y0103830D02*
X0144957Y0103830D01*
X0144957Y0102632D02*
X0146982Y0102632D01*
X0147123Y0101433D02*
X0144815Y0101433D01*
X0144274Y0100235D02*
X0147664Y0100235D01*
X0149077Y0099036D02*
X0142861Y0099036D01*
X0139077Y0099036D02*
X0132861Y0099036D01*
X0133228Y0099188D02*
X0134349Y0100310D01*
X0134957Y0101776D01*
X0134957Y0108137D01*
X0134349Y0109602D01*
X0133228Y0110724D01*
X0131762Y0111331D01*
X0130176Y0111331D01*
X0128710Y0110724D01*
X0127589Y0109602D01*
X0126982Y0108137D01*
X0126982Y0101776D01*
X0127589Y0100310D01*
X0128710Y0099188D01*
X0130176Y0098581D01*
X0131762Y0098581D01*
X0133228Y0099188D01*
X0134274Y0100235D02*
X0137664Y0100235D01*
X0137123Y0101433D02*
X0134815Y0101433D01*
X0134957Y0102632D02*
X0136982Y0102632D01*
X0136982Y0103830D02*
X0134957Y0103830D01*
X0134957Y0105029D02*
X0136982Y0105029D01*
X0136982Y0106228D02*
X0134957Y0106228D01*
X0134957Y0107426D02*
X0136982Y0107426D01*
X0137184Y0108625D02*
X0134754Y0108625D01*
X0134129Y0109823D02*
X0137810Y0109823D01*
X0139429Y0111022D02*
X0132509Y0111022D01*
X0129429Y0111022D02*
X0122509Y0111022D01*
X0124129Y0109823D02*
X0127810Y0109823D01*
X0127184Y0108625D02*
X0124754Y0108625D01*
X0124957Y0107426D02*
X0126982Y0107426D01*
X0126982Y0106228D02*
X0124957Y0106228D01*
X0124957Y0105029D02*
X0126982Y0105029D01*
X0126982Y0103830D02*
X0124957Y0103830D01*
X0124957Y0102632D02*
X0126982Y0102632D01*
X0127123Y0101433D02*
X0124815Y0101433D01*
X0124274Y0100235D02*
X0127664Y0100235D01*
X0129077Y0099036D02*
X0122861Y0099036D01*
X0119077Y0099036D02*
X0102615Y0099036D01*
X0102615Y0100235D02*
X0117664Y0100235D01*
X0112860Y0101433D02*
X0109704Y0101433D01*
X0110884Y0102632D02*
X0111680Y0102632D01*
X0104985Y0101433D02*
X0102646Y0101433D01*
X0102892Y0102632D02*
X0103806Y0102632D01*
X0103309Y0103830D02*
X0103139Y0103830D01*
X0103877Y0107426D02*
X0103933Y0107426D01*
X0104277Y0108625D02*
X0105333Y0108625D01*
X0104791Y0109823D02*
X0117810Y0109823D01*
X0119429Y0111022D02*
X0115729Y0111022D01*
X0115541Y0110834D02*
X0116711Y0112004D01*
X0117344Y0113532D01*
X0117344Y0115187D01*
X0116711Y0116716D01*
X0115541Y0117886D01*
X0114013Y0118519D01*
X0112358Y0118519D01*
X0110829Y0117886D01*
X0109659Y0116716D01*
X0109026Y0115187D01*
X0109026Y0113532D01*
X0109659Y0112004D01*
X0110829Y0110834D01*
X0112358Y0110201D01*
X0114013Y0110201D01*
X0115541Y0110834D01*
X0116801Y0112220D02*
X0166319Y0112220D01*
X0165654Y0113419D02*
X0143562Y0113419D01*
X0143971Y0113588D02*
X0145462Y0115079D01*
X0146269Y0117027D01*
X0146269Y0119135D01*
X0145462Y0121083D01*
X0143971Y0122574D01*
X0142023Y0123381D01*
X0139915Y0123381D01*
X0137967Y0122574D01*
X0136476Y0121083D01*
X0135669Y0119135D01*
X0135669Y0117027D01*
X0136476Y0115079D01*
X0137967Y0113588D01*
X0139915Y0112781D01*
X0142023Y0112781D01*
X0143971Y0113588D01*
X0145000Y0114617D02*
X0164989Y0114617D01*
X0164323Y0115816D02*
X0155064Y0115816D01*
X0154950Y0115768D02*
X0156479Y0116402D01*
X0157649Y0117572D01*
X0158282Y0119100D01*
X0158282Y0120755D01*
X0157649Y0122283D01*
X0156479Y0123453D01*
X0154950Y0124087D01*
X0153295Y0124087D01*
X0151767Y0123453D01*
X0150597Y0122283D01*
X0149964Y0120755D01*
X0149964Y0119100D01*
X0150597Y0117572D01*
X0151767Y0116402D01*
X0153295Y0115768D01*
X0154950Y0115768D01*
X0153182Y0115816D02*
X0145767Y0115816D01*
X0146264Y0117014D02*
X0151154Y0117014D01*
X0150331Y0118213D02*
X0146269Y0118213D01*
X0146155Y0119411D02*
X0149964Y0119411D01*
X0149964Y0120610D02*
X0145658Y0120610D01*
X0144737Y0121808D02*
X0150400Y0121808D01*
X0151320Y0123007D02*
X0142927Y0123007D01*
X0139011Y0123007D02*
X0133096Y0123007D01*
X0132621Y0122531D02*
X0134957Y0124867D01*
X0134957Y0128170D01*
X0132621Y0130506D01*
X0129318Y0130506D01*
X0126982Y0128170D01*
X0126982Y0124867D01*
X0129318Y0122531D01*
X0132621Y0122531D01*
X0134295Y0124205D02*
X0156650Y0124205D01*
X0156925Y0123007D02*
X0158199Y0123007D01*
X0157845Y0121808D02*
X0159562Y0121808D01*
X0160591Y0120610D02*
X0158282Y0120610D01*
X0158282Y0119411D02*
X0161619Y0119411D01*
X0162648Y0118213D02*
X0157914Y0118213D01*
X0157091Y0117014D02*
X0163658Y0117014D01*
X0155102Y0125404D02*
X0134957Y0125404D01*
X0134957Y0126602D02*
X0153400Y0126602D01*
X0150957Y0127801D02*
X0134957Y0127801D01*
X0134128Y0128999D02*
X0148514Y0128999D01*
X0144600Y0130198D02*
X0132929Y0130198D01*
X0134057Y0131396D02*
X0135204Y0131396D01*
X0129009Y0130198D02*
X0127048Y0130198D01*
X0127811Y0128999D02*
X0123811Y0128999D01*
X0120848Y0127801D02*
X0126982Y0127801D01*
X0126982Y0126602D02*
X0118925Y0126602D01*
X0117002Y0125404D02*
X0126982Y0125404D01*
X0127644Y0124205D02*
X0115216Y0124205D01*
X0113955Y0123007D02*
X0128842Y0123007D01*
X0136280Y0120610D02*
X0111433Y0120610D01*
X0110300Y0119411D02*
X0135783Y0119411D01*
X0135669Y0118213D02*
X0114752Y0118213D01*
X0116413Y0117014D02*
X0135674Y0117014D01*
X0136171Y0115816D02*
X0117084Y0115816D01*
X0117344Y0114617D02*
X0136938Y0114617D01*
X0138376Y0113419D02*
X0117297Y0113419D01*
X0110642Y0111022D02*
X0105305Y0111022D01*
X0105820Y0112220D02*
X0109570Y0112220D01*
X0109073Y0113419D02*
X0106334Y0113419D01*
X0106963Y0114617D02*
X0109026Y0114617D01*
X0109287Y0115816D02*
X0107797Y0115816D01*
X0108631Y0117014D02*
X0109958Y0117014D01*
X0109465Y0118213D02*
X0111619Y0118213D01*
X0112694Y0121808D02*
X0137201Y0121808D01*
X0113207Y0108625D02*
X0109356Y0108625D01*
X0110756Y0107426D02*
X0111807Y0107426D01*
X0162455Y0089448D02*
X0168435Y0089448D01*
X0168059Y0088250D02*
X0163431Y0088250D01*
X0163928Y0087051D02*
X0167683Y0087051D01*
X0167307Y0085853D02*
X0164082Y0085853D01*
X0164082Y0084654D02*
X0166931Y0084654D01*
X0166271Y0083456D02*
X0163619Y0083456D01*
X0162908Y0082257D02*
X0165606Y0082257D01*
X0164941Y0081059D02*
X0161605Y0081059D01*
M02*
