G75*
%MOIN*%
%OFA0B0*%
%FSLAX25Y25*%
%IPPOS*%
%LPD*%
%AMOC8*
5,1,8,0,0,1.08239X$1,22.5*
%
%ADD10C,0.00100*%
D10*
X0100611Y0097881D02*
X0100622Y0098751D01*
X0100654Y0099620D01*
X0100707Y0100488D01*
X0100782Y0101354D01*
X0100877Y0102218D01*
X0100995Y0103080D01*
X0101133Y0103939D01*
X0101292Y0104794D01*
X0101472Y0105644D01*
X0101673Y0106491D01*
X0101895Y0107331D01*
X0102137Y0108167D01*
X0102399Y0108996D01*
X0102682Y0109818D01*
X0102985Y0110633D01*
X0103308Y0111441D01*
X0103651Y0112240D01*
X0104013Y0113031D01*
X0104394Y0113812D01*
X0104795Y0114584D01*
X0105214Y0115346D01*
X0105652Y0116097D01*
X0106108Y0116838D01*
X0106583Y0117567D01*
X0107075Y0118284D01*
X0107584Y0118988D01*
X0108111Y0119681D01*
X0108654Y0120359D01*
X0109214Y0121025D01*
X0109790Y0121676D01*
X0110382Y0122313D01*
X0110989Y0122936D01*
X0111612Y0123543D01*
X0112249Y0124135D01*
X0112900Y0124711D01*
X0113566Y0125271D01*
X0114244Y0125814D01*
X0114937Y0126341D01*
X0115641Y0126850D01*
X0116358Y0127342D01*
X0117087Y0127817D01*
X0117828Y0128273D01*
X0118579Y0128711D01*
X0119341Y0129130D01*
X0120113Y0129531D01*
X0120894Y0129912D01*
X0121685Y0130274D01*
X0122484Y0130617D01*
X0123292Y0130940D01*
X0124107Y0131243D01*
X0124929Y0131526D01*
X0125758Y0131788D01*
X0126594Y0132030D01*
X0127434Y0132252D01*
X0128281Y0132453D01*
X0129131Y0132633D01*
X0129986Y0132792D01*
X0130845Y0132930D01*
X0131707Y0133048D01*
X0132571Y0133143D01*
X0133437Y0133218D01*
X0134305Y0133271D01*
X0135174Y0133303D01*
X0136044Y0133314D01*
X0136914Y0133303D01*
X0137783Y0133271D01*
X0138651Y0133218D01*
X0139517Y0133143D01*
X0140381Y0133048D01*
X0141243Y0132930D01*
X0142102Y0132792D01*
X0142957Y0132633D01*
X0143807Y0132453D01*
X0144654Y0132252D01*
X0145494Y0132030D01*
X0146330Y0131788D01*
X0147159Y0131526D01*
X0147981Y0131243D01*
X0148796Y0130940D01*
X0149604Y0130617D01*
X0150403Y0130274D01*
X0151194Y0129912D01*
X0151975Y0129531D01*
X0152747Y0129130D01*
X0153509Y0128711D01*
X0154260Y0128273D01*
X0155001Y0127817D01*
X0155730Y0127342D01*
X0156447Y0126850D01*
X0157151Y0126341D01*
X0157844Y0125814D01*
X0158522Y0125271D01*
X0159188Y0124711D01*
X0159839Y0124135D01*
X0160476Y0123543D01*
X0161099Y0122936D01*
X0161706Y0122313D01*
X0162298Y0121676D01*
X0162874Y0121025D01*
X0163434Y0120359D01*
X0163977Y0119681D01*
X0164504Y0118988D01*
X0165013Y0118284D01*
X0165505Y0117567D01*
X0165980Y0116838D01*
X0166436Y0116097D01*
X0166874Y0115346D01*
X0167293Y0114584D01*
X0167694Y0113812D01*
X0168075Y0113031D01*
X0168437Y0112240D01*
X0168780Y0111441D01*
X0169103Y0110633D01*
X0169406Y0109818D01*
X0169689Y0108996D01*
X0169951Y0108167D01*
X0170193Y0107331D01*
X0170415Y0106491D01*
X0170616Y0105644D01*
X0170796Y0104794D01*
X0170955Y0103939D01*
X0171093Y0103080D01*
X0171211Y0102218D01*
X0171306Y0101354D01*
X0171381Y0100488D01*
X0171434Y0099620D01*
X0171466Y0098751D01*
X0171477Y0097881D01*
X0171466Y0097011D01*
X0171434Y0096142D01*
X0171381Y0095274D01*
X0171306Y0094408D01*
X0171211Y0093544D01*
X0171093Y0092682D01*
X0170955Y0091823D01*
X0170796Y0090968D01*
X0170616Y0090118D01*
X0170415Y0089271D01*
X0170193Y0088431D01*
X0169951Y0087595D01*
X0169689Y0086766D01*
X0169406Y0085944D01*
X0169103Y0085129D01*
X0168780Y0084321D01*
X0168437Y0083522D01*
X0168075Y0082731D01*
X0167694Y0081950D01*
X0167293Y0081178D01*
X0166874Y0080416D01*
X0166436Y0079665D01*
X0165980Y0078924D01*
X0165505Y0078195D01*
X0165013Y0077478D01*
X0164504Y0076774D01*
X0163977Y0076081D01*
X0163434Y0075403D01*
X0162874Y0074737D01*
X0162298Y0074086D01*
X0161706Y0073449D01*
X0161099Y0072826D01*
X0160476Y0072219D01*
X0159839Y0071627D01*
X0159188Y0071051D01*
X0158522Y0070491D01*
X0157844Y0069948D01*
X0157151Y0069421D01*
X0156447Y0068912D01*
X0155730Y0068420D01*
X0155001Y0067945D01*
X0154260Y0067489D01*
X0153509Y0067051D01*
X0152747Y0066632D01*
X0151975Y0066231D01*
X0151194Y0065850D01*
X0150403Y0065488D01*
X0149604Y0065145D01*
X0148796Y0064822D01*
X0147981Y0064519D01*
X0147159Y0064236D01*
X0146330Y0063974D01*
X0145494Y0063732D01*
X0144654Y0063510D01*
X0143807Y0063309D01*
X0142957Y0063129D01*
X0142102Y0062970D01*
X0141243Y0062832D01*
X0140381Y0062714D01*
X0139517Y0062619D01*
X0138651Y0062544D01*
X0137783Y0062491D01*
X0136914Y0062459D01*
X0136044Y0062448D01*
X0135174Y0062459D01*
X0134305Y0062491D01*
X0133437Y0062544D01*
X0132571Y0062619D01*
X0131707Y0062714D01*
X0130845Y0062832D01*
X0129986Y0062970D01*
X0129131Y0063129D01*
X0128281Y0063309D01*
X0127434Y0063510D01*
X0126594Y0063732D01*
X0125758Y0063974D01*
X0124929Y0064236D01*
X0124107Y0064519D01*
X0123292Y0064822D01*
X0122484Y0065145D01*
X0121685Y0065488D01*
X0120894Y0065850D01*
X0120113Y0066231D01*
X0119341Y0066632D01*
X0118579Y0067051D01*
X0117828Y0067489D01*
X0117087Y0067945D01*
X0116358Y0068420D01*
X0115641Y0068912D01*
X0114937Y0069421D01*
X0114244Y0069948D01*
X0113566Y0070491D01*
X0112900Y0071051D01*
X0112249Y0071627D01*
X0111612Y0072219D01*
X0110989Y0072826D01*
X0110382Y0073449D01*
X0109790Y0074086D01*
X0109214Y0074737D01*
X0108654Y0075403D01*
X0108111Y0076081D01*
X0107584Y0076774D01*
X0107075Y0077478D01*
X0106583Y0078195D01*
X0106108Y0078924D01*
X0105652Y0079665D01*
X0105214Y0080416D01*
X0104795Y0081178D01*
X0104394Y0081950D01*
X0104013Y0082731D01*
X0103651Y0083522D01*
X0103308Y0084321D01*
X0102985Y0085129D01*
X0102682Y0085944D01*
X0102399Y0086766D01*
X0102137Y0087595D01*
X0101895Y0088431D01*
X0101673Y0089271D01*
X0101472Y0090118D01*
X0101292Y0090968D01*
X0101133Y0091823D01*
X0100995Y0092682D01*
X0100877Y0093544D01*
X0100782Y0094408D01*
X0100707Y0095274D01*
X0100654Y0096142D01*
X0100622Y0097011D01*
X0100611Y0097881D01*
M02*
