%
M48
M72
T01C0.03200
T02C0.03543
%
T01
X120969Y74956
X130969Y74956
X140969Y74956
X150969Y74956
X158782Y85626
X163782Y94286
X150969Y104956
X140969Y104956
X130969Y104956
X120969Y104956
X108157Y94286
X113157Y85626
X130969Y118081
X140969Y118081
X140969Y126519
X130969Y126519
T02
X118753Y119927
X113185Y114360
X115219Y104956
X107345Y104956
X154123Y119927
X159691Y114360
M30
