G75*
%MOIN*%
%OFA0B0*%
%FSLAX25Y25*%
%IPPOS*%
%LPD*%
%AMOC8*
5,1,8,0,0,1.08239X$1,22.5*
%
%ADD10C,0.07991*%
%ADD11R,0.05315X0.05315*%
%ADD12R,0.04528X0.04921*%
%ADD13R,0.04921X0.04528*%
%ADD14R,0.09252X0.02559*%
%ADD15OC8,0.06102*%
%ADD16C,0.05765*%
%ADD17C,0.04134*%
D10*
X0023612Y0024444D03*
X0018613Y0033105D03*
X0067675Y0024757D03*
X0072675Y0033417D03*
X0050800Y0071900D03*
X0040800Y0071900D03*
D11*
G36*
X0073143Y0060403D02*
X0068542Y0057746D01*
X0065885Y0062347D01*
X0070486Y0065004D01*
X0073143Y0060403D01*
G37*
G36*
X0077277Y0053243D02*
X0072676Y0050586D01*
X0070019Y0055187D01*
X0074620Y0057844D01*
X0077277Y0053243D01*
G37*
D12*
X0057675Y0043684D03*
X0057675Y0036991D03*
D13*
X0033925Y0036678D03*
X0033925Y0043371D03*
D14*
X0033383Y0030962D03*
X0033383Y0026001D03*
X0033383Y0021001D03*
X0033383Y0016001D03*
X0058217Y0015962D03*
X0058217Y0020962D03*
X0058217Y0025962D03*
X0058217Y0030962D03*
D15*
X0065485Y0038462D03*
X0045800Y0051061D03*
X0026115Y0038462D03*
D16*
X0022583Y0051505D02*
X0018102Y0054092D01*
X0023102Y0062752D02*
X0027583Y0060165D01*
D17*
X0035175Y0057837D03*
X0035175Y0062525D03*
X0040800Y0065025D03*
X0035175Y0067212D03*
X0030175Y0069400D03*
X0046425Y0065025D03*
X0052050Y0064400D03*
X0055487Y0059712D03*
X0060800Y0062837D03*
X0065800Y0054087D03*
X0069550Y0050650D03*
X0069550Y0043150D03*
X0052675Y0041900D03*
X0049550Y0037837D03*
X0051425Y0025962D03*
X0051425Y0020962D03*
X0045800Y0014087D03*
X0041425Y0014087D03*
X0040175Y0020962D03*
X0016738Y0040962D03*
X0016738Y0046275D03*
M02*
