G75*
%MOIN*%
%OFA0B0*%
%FSLAX25Y25*%
%IPPOS*%
%LPD*%
%AMOC8*
5,1,8,0,0,1.08239X$1,22.5*
%
%ADD10C,0.00100*%
D10*
X0010875Y0043575D02*
X0010886Y0044434D01*
X0010917Y0045292D01*
X0010970Y0046150D01*
X0011044Y0047006D01*
X0011138Y0047859D01*
X0011254Y0048711D01*
X0011390Y0049559D01*
X0011548Y0050403D01*
X0011725Y0051244D01*
X0011924Y0052079D01*
X0012143Y0052910D01*
X0012382Y0053735D01*
X0012642Y0054554D01*
X0012921Y0055366D01*
X0013220Y0056171D01*
X0013539Y0056969D01*
X0013878Y0057758D01*
X0014235Y0058539D01*
X0014612Y0059311D01*
X0015008Y0060074D01*
X0015422Y0060826D01*
X0015854Y0061569D01*
X0016305Y0062300D01*
X0016774Y0063020D01*
X0017260Y0063728D01*
X0017763Y0064424D01*
X0018283Y0065108D01*
X0018820Y0065779D01*
X0019373Y0066436D01*
X0019942Y0067080D01*
X0020526Y0067709D01*
X0021126Y0068324D01*
X0021741Y0068924D01*
X0022370Y0069508D01*
X0023014Y0070077D01*
X0023671Y0070630D01*
X0024342Y0071167D01*
X0025026Y0071687D01*
X0025722Y0072190D01*
X0026430Y0072676D01*
X0027150Y0073145D01*
X0027881Y0073596D01*
X0028624Y0074028D01*
X0029376Y0074442D01*
X0030139Y0074838D01*
X0030911Y0075215D01*
X0031692Y0075572D01*
X0032481Y0075911D01*
X0033279Y0076230D01*
X0034084Y0076529D01*
X0034896Y0076808D01*
X0035715Y0077068D01*
X0036540Y0077307D01*
X0037371Y0077526D01*
X0038206Y0077725D01*
X0039047Y0077902D01*
X0039891Y0078060D01*
X0040739Y0078196D01*
X0041591Y0078312D01*
X0042444Y0078406D01*
X0043300Y0078480D01*
X0044158Y0078533D01*
X0045016Y0078564D01*
X0045875Y0078575D01*
X0046734Y0078564D01*
X0047592Y0078533D01*
X0048450Y0078480D01*
X0049306Y0078406D01*
X0050159Y0078312D01*
X0051011Y0078196D01*
X0051859Y0078060D01*
X0052703Y0077902D01*
X0053544Y0077725D01*
X0054379Y0077526D01*
X0055210Y0077307D01*
X0056035Y0077068D01*
X0056854Y0076808D01*
X0057666Y0076529D01*
X0058471Y0076230D01*
X0059269Y0075911D01*
X0060058Y0075572D01*
X0060839Y0075215D01*
X0061611Y0074838D01*
X0062374Y0074442D01*
X0063126Y0074028D01*
X0063869Y0073596D01*
X0064600Y0073145D01*
X0065320Y0072676D01*
X0066028Y0072190D01*
X0066724Y0071687D01*
X0067408Y0071167D01*
X0068079Y0070630D01*
X0068736Y0070077D01*
X0069380Y0069508D01*
X0070009Y0068924D01*
X0070624Y0068324D01*
X0071224Y0067709D01*
X0071808Y0067080D01*
X0072377Y0066436D01*
X0072930Y0065779D01*
X0073467Y0065108D01*
X0073987Y0064424D01*
X0074490Y0063728D01*
X0074976Y0063020D01*
X0075445Y0062300D01*
X0075896Y0061569D01*
X0076328Y0060826D01*
X0076742Y0060074D01*
X0077138Y0059311D01*
X0077515Y0058539D01*
X0077872Y0057758D01*
X0078211Y0056969D01*
X0078530Y0056171D01*
X0078829Y0055366D01*
X0079108Y0054554D01*
X0079368Y0053735D01*
X0079607Y0052910D01*
X0079826Y0052079D01*
X0080025Y0051244D01*
X0080202Y0050403D01*
X0080360Y0049559D01*
X0080496Y0048711D01*
X0080612Y0047859D01*
X0080706Y0047006D01*
X0080780Y0046150D01*
X0080833Y0045292D01*
X0080864Y0044434D01*
X0080875Y0043575D01*
X0080864Y0042716D01*
X0080833Y0041858D01*
X0080780Y0041000D01*
X0080706Y0040144D01*
X0080612Y0039291D01*
X0080496Y0038439D01*
X0080360Y0037591D01*
X0080202Y0036747D01*
X0080025Y0035906D01*
X0079826Y0035071D01*
X0079607Y0034240D01*
X0079368Y0033415D01*
X0079108Y0032596D01*
X0078829Y0031784D01*
X0078530Y0030979D01*
X0078211Y0030181D01*
X0077872Y0029392D01*
X0077515Y0028611D01*
X0077138Y0027839D01*
X0076742Y0027076D01*
X0076328Y0026324D01*
X0075896Y0025581D01*
X0075445Y0024850D01*
X0074976Y0024130D01*
X0074490Y0023422D01*
X0073987Y0022726D01*
X0073467Y0022042D01*
X0072930Y0021371D01*
X0072377Y0020714D01*
X0071808Y0020070D01*
X0071224Y0019441D01*
X0070624Y0018826D01*
X0070009Y0018226D01*
X0069380Y0017642D01*
X0068736Y0017073D01*
X0068079Y0016520D01*
X0067408Y0015983D01*
X0066724Y0015463D01*
X0066028Y0014960D01*
X0065320Y0014474D01*
X0064600Y0014005D01*
X0063869Y0013554D01*
X0063126Y0013122D01*
X0062374Y0012708D01*
X0061611Y0012312D01*
X0060839Y0011935D01*
X0060058Y0011578D01*
X0059269Y0011239D01*
X0058471Y0010920D01*
X0057666Y0010621D01*
X0056854Y0010342D01*
X0056035Y0010082D01*
X0055210Y0009843D01*
X0054379Y0009624D01*
X0053544Y0009425D01*
X0052703Y0009248D01*
X0051859Y0009090D01*
X0051011Y0008954D01*
X0050159Y0008838D01*
X0049306Y0008744D01*
X0048450Y0008670D01*
X0047592Y0008617D01*
X0046734Y0008586D01*
X0045875Y0008575D01*
X0045016Y0008586D01*
X0044158Y0008617D01*
X0043300Y0008670D01*
X0042444Y0008744D01*
X0041591Y0008838D01*
X0040739Y0008954D01*
X0039891Y0009090D01*
X0039047Y0009248D01*
X0038206Y0009425D01*
X0037371Y0009624D01*
X0036540Y0009843D01*
X0035715Y0010082D01*
X0034896Y0010342D01*
X0034084Y0010621D01*
X0033279Y0010920D01*
X0032481Y0011239D01*
X0031692Y0011578D01*
X0030911Y0011935D01*
X0030139Y0012312D01*
X0029376Y0012708D01*
X0028624Y0013122D01*
X0027881Y0013554D01*
X0027150Y0014005D01*
X0026430Y0014474D01*
X0025722Y0014960D01*
X0025026Y0015463D01*
X0024342Y0015983D01*
X0023671Y0016520D01*
X0023014Y0017073D01*
X0022370Y0017642D01*
X0021741Y0018226D01*
X0021126Y0018826D01*
X0020526Y0019441D01*
X0019942Y0020070D01*
X0019373Y0020714D01*
X0018820Y0021371D01*
X0018283Y0022042D01*
X0017763Y0022726D01*
X0017260Y0023422D01*
X0016774Y0024130D01*
X0016305Y0024850D01*
X0015854Y0025581D01*
X0015422Y0026324D01*
X0015008Y0027076D01*
X0014612Y0027839D01*
X0014235Y0028611D01*
X0013878Y0029392D01*
X0013539Y0030181D01*
X0013220Y0030979D01*
X0012921Y0031784D01*
X0012642Y0032596D01*
X0012382Y0033415D01*
X0012143Y0034240D01*
X0011924Y0035071D01*
X0011725Y0035906D01*
X0011548Y0036747D01*
X0011390Y0037591D01*
X0011254Y0038439D01*
X0011138Y0039291D01*
X0011044Y0040144D01*
X0010970Y0041000D01*
X0010917Y0041858D01*
X0010886Y0042716D01*
X0010875Y0043575D01*
M02*
