G75*
%MOIN*%
%OFA0B0*%
%FSLAX25Y25*%
%IPPOS*%
%LPD*%
%AMOC8*
5,1,8,0,0,1.08239X$1,22.5*
%
%ADD10C,0.07400*%
%ADD11R,0.03937X0.04331*%
%ADD12R,0.04331X0.03937*%
%ADD13OC8,0.05512*%
%ADD14C,0.05175*%
%ADD15C,0.01200*%
%ADD16C,0.03543*%
%ADD17C,0.01000*%
D10*
X0023612Y0024444D03*
X0018613Y0033105D03*
X0067675Y0024757D03*
X0072675Y0033417D03*
X0050800Y0071900D03*
X0040800Y0071900D03*
D11*
X0041829Y0058462D03*
X0048521Y0058462D03*
X0053300Y0053371D03*
X0053300Y0046678D03*
G36*
X0064007Y0063931D02*
X0060600Y0065899D01*
X0062765Y0069647D01*
X0066172Y0067679D01*
X0064007Y0063931D01*
G37*
G36*
X0058210Y0067277D02*
X0054803Y0069245D01*
X0056968Y0072993D01*
X0060375Y0071025D01*
X0058210Y0067277D01*
G37*
G36*
X0029689Y0017194D02*
X0026282Y0019162D01*
X0028447Y0022910D01*
X0031854Y0020942D01*
X0029689Y0017194D01*
G37*
G36*
X0035485Y0013847D02*
X0032078Y0015815D01*
X0034243Y0019563D01*
X0037650Y0017595D01*
X0035485Y0013847D01*
G37*
D12*
X0074863Y0040116D03*
X0074863Y0046809D03*
X0060175Y0046991D03*
X0060175Y0053684D03*
D13*
X0045800Y0051061D03*
X0026115Y0038462D03*
X0065485Y0038462D03*
D14*
X0027583Y0060165D02*
X0023102Y0062752D01*
X0018102Y0054092D02*
X0022583Y0051505D01*
D15*
X0027524Y0047127D02*
X0012917Y0047127D01*
X0012876Y0046930D02*
X0014227Y0053504D01*
X0016874Y0059672D01*
X0018846Y0062504D01*
X0018841Y0062473D01*
X0019273Y0060864D01*
X0020287Y0059542D01*
X0026211Y0056122D01*
X0027862Y0055904D01*
X0029472Y0056336D01*
X0030793Y0057350D01*
X0031626Y0058792D01*
X0031843Y0060444D01*
X0031412Y0062053D01*
X0030398Y0063375D01*
X0024474Y0066795D01*
X0022822Y0067012D01*
X0022562Y0066943D01*
X0025572Y0069804D01*
X0031268Y0073354D01*
X0037561Y0075685D01*
X0044195Y0076701D01*
X0048068Y0076505D01*
X0047798Y0076393D01*
X0046307Y0074902D01*
X0045500Y0072954D01*
X0045500Y0070845D01*
X0046307Y0068897D01*
X0047798Y0067406D01*
X0049746Y0066600D01*
X0051854Y0066600D01*
X0053802Y0067406D01*
X0054162Y0067766D01*
X0057985Y0065559D01*
X0058962Y0065821D01*
X0058985Y0065735D01*
X0058890Y0065695D01*
X0057942Y0064747D01*
X0057428Y0063508D01*
X0057428Y0062166D01*
X0057942Y0060927D01*
X0058890Y0059979D01*
X0060129Y0059465D01*
X0061471Y0059465D01*
X0062710Y0059979D01*
X0063658Y0060927D01*
X0064172Y0062166D01*
X0064172Y0062317D01*
X0065062Y0062555D01*
X0067890Y0067454D01*
X0067616Y0068475D01*
X0068727Y0067615D01*
X0073099Y0062523D01*
X0076356Y0056655D01*
X0078365Y0050251D01*
X0078427Y0049641D01*
X0077691Y0050377D01*
X0072034Y0050377D01*
X0071097Y0049440D01*
X0071097Y0048909D01*
X0066402Y0048909D01*
X0063940Y0046447D01*
X0063940Y0049622D01*
X0063225Y0050337D01*
X0063940Y0051052D01*
X0063940Y0051208D01*
X0065129Y0050715D01*
X0066471Y0050715D01*
X0067710Y0051229D01*
X0068658Y0052177D01*
X0069172Y0053416D01*
X0069172Y0054758D01*
X0068658Y0055997D01*
X0067710Y0056945D01*
X0066471Y0057459D01*
X0065129Y0057459D01*
X0063890Y0056945D01*
X0063600Y0056655D01*
X0063003Y0057252D01*
X0057347Y0057252D01*
X0056581Y0056486D01*
X0055931Y0057136D01*
X0052504Y0057136D01*
X0052090Y0057551D01*
X0052090Y0061290D01*
X0051153Y0062227D01*
X0045890Y0062227D01*
X0045175Y0061512D01*
X0044460Y0062227D01*
X0039197Y0062227D01*
X0038260Y0061290D01*
X0038260Y0057863D01*
X0025245Y0044848D01*
X0024015Y0043618D01*
X0024015Y0042522D01*
X0021759Y0040266D01*
X0021759Y0036658D01*
X0024311Y0034106D01*
X0027919Y0034106D01*
X0029550Y0035737D01*
X0046882Y0035737D01*
X0047640Y0034979D01*
X0048879Y0034465D01*
X0050221Y0034465D01*
X0051460Y0034979D01*
X0052408Y0035927D01*
X0052922Y0037166D01*
X0052922Y0038508D01*
X0052408Y0039747D01*
X0051460Y0040695D01*
X0050221Y0041209D01*
X0048879Y0041209D01*
X0047640Y0040695D01*
X0046882Y0039937D01*
X0030471Y0039937D01*
X0030471Y0040266D01*
X0028537Y0042200D01*
X0041033Y0054697D01*
X0044460Y0054697D01*
X0045175Y0055412D01*
X0045890Y0054697D01*
X0049004Y0054697D01*
X0049731Y0053970D01*
X0049731Y0050543D01*
X0050669Y0049606D01*
X0055931Y0049606D01*
X0056868Y0050543D01*
X0056868Y0050593D01*
X0057125Y0050337D01*
X0056410Y0049622D01*
X0056410Y0044359D01*
X0057347Y0043422D01*
X0058075Y0043422D01*
X0058075Y0043394D01*
X0055868Y0041187D01*
X0054637Y0039957D01*
X0054637Y0032144D01*
X0051827Y0029334D01*
X0050754Y0029334D01*
X0049515Y0028820D01*
X0048567Y0027872D01*
X0048053Y0026633D01*
X0048053Y0025291D01*
X0048567Y0024052D01*
X0049157Y0023462D01*
X0048567Y0022872D01*
X0048053Y0021633D01*
X0048053Y0020291D01*
X0048567Y0019052D01*
X0049515Y0018104D01*
X0050754Y0017590D01*
X0052096Y0017590D01*
X0053335Y0018104D01*
X0054283Y0019052D01*
X0054797Y0020291D01*
X0054797Y0021364D01*
X0061025Y0027592D01*
X0061025Y0029332D01*
X0061025Y0037592D01*
X0061129Y0037696D01*
X0061129Y0036658D01*
X0063681Y0034106D01*
X0067289Y0034106D01*
X0067375Y0034192D01*
X0067375Y0032363D01*
X0068182Y0030415D01*
X0069673Y0028924D01*
X0071621Y0028117D01*
X0073729Y0028117D01*
X0075427Y0028820D01*
X0073099Y0024626D01*
X0068727Y0019534D01*
X0063420Y0015426D01*
X0057395Y0012470D01*
X0050898Y0010788D01*
X0044195Y0010448D01*
X0037561Y0011465D01*
X0035555Y0012208D01*
X0036541Y0012472D01*
X0039118Y0016935D01*
X0039773Y0017590D01*
X0040846Y0017590D01*
X0042085Y0018104D01*
X0043033Y0019052D01*
X0043547Y0020291D01*
X0043547Y0021633D01*
X0043033Y0022872D01*
X0042085Y0023820D01*
X0040846Y0024334D01*
X0039504Y0024334D01*
X0038265Y0023820D01*
X0037317Y0022872D01*
X0036803Y0021633D01*
X0036803Y0020560D01*
X0036406Y0020163D01*
X0034468Y0021282D01*
X0033491Y0021020D01*
X0033230Y0021997D01*
X0028912Y0024489D01*
X0028912Y0025499D01*
X0028106Y0027447D01*
X0026615Y0028938D01*
X0024667Y0029744D01*
X0022558Y0029744D01*
X0020610Y0028938D01*
X0019119Y0027447D01*
X0018313Y0025499D01*
X0018313Y0025411D01*
X0016874Y0027478D01*
X0014227Y0033645D01*
X0012876Y0040219D01*
X0012876Y0046930D01*
X0012876Y0045928D02*
X0026325Y0045928D01*
X0025127Y0044730D02*
X0012876Y0044730D01*
X0012876Y0043531D02*
X0024015Y0043531D01*
X0023826Y0042333D02*
X0012876Y0042333D01*
X0012876Y0041134D02*
X0022627Y0041134D01*
X0021759Y0039936D02*
X0012934Y0039936D01*
X0013181Y0038737D02*
X0021759Y0038737D01*
X0021759Y0037539D02*
X0013427Y0037539D01*
X0013673Y0036340D02*
X0022077Y0036340D01*
X0023275Y0035142D02*
X0013920Y0035142D01*
X0014166Y0033943D02*
X0054637Y0033943D01*
X0054637Y0032745D02*
X0014614Y0032745D01*
X0015128Y0031546D02*
X0054039Y0031546D01*
X0052841Y0030348D02*
X0015642Y0030348D01*
X0016157Y0029149D02*
X0021121Y0029149D01*
X0019623Y0027951D02*
X0016671Y0027951D01*
X0017379Y0026752D02*
X0018832Y0026752D01*
X0018335Y0025554D02*
X0018213Y0025554D01*
X0026104Y0029149D02*
X0050309Y0029149D01*
X0048645Y0027951D02*
X0027602Y0027951D01*
X0028393Y0026752D02*
X0048103Y0026752D01*
X0048053Y0025554D02*
X0028890Y0025554D01*
X0029145Y0024355D02*
X0048441Y0024355D01*
X0048851Y0023157D02*
X0042749Y0023157D01*
X0043412Y0021958D02*
X0048188Y0021958D01*
X0048053Y0020760D02*
X0043547Y0020760D01*
X0043244Y0019561D02*
X0048356Y0019561D01*
X0049256Y0018363D02*
X0042344Y0018363D01*
X0039347Y0017164D02*
X0065666Y0017164D01*
X0067214Y0018363D02*
X0053594Y0018363D01*
X0054494Y0019561D02*
X0068751Y0019561D01*
X0069780Y0020760D02*
X0054797Y0020760D01*
X0055391Y0021958D02*
X0070808Y0021958D01*
X0071837Y0023157D02*
X0056589Y0023157D01*
X0057788Y0024355D02*
X0072866Y0024355D01*
X0073614Y0025554D02*
X0058987Y0025554D01*
X0060185Y0026752D02*
X0074279Y0026752D01*
X0074944Y0027951D02*
X0061025Y0027951D01*
X0061025Y0029149D02*
X0069448Y0029149D01*
X0068249Y0030348D02*
X0061025Y0030348D01*
X0061025Y0031546D02*
X0067713Y0031546D01*
X0067375Y0032745D02*
X0061025Y0032745D01*
X0061025Y0033943D02*
X0067375Y0033943D01*
X0062645Y0035142D02*
X0061025Y0035142D01*
X0061025Y0036340D02*
X0061447Y0036340D01*
X0061129Y0037539D02*
X0061025Y0037539D01*
X0055815Y0041134D02*
X0050400Y0041134D01*
X0052219Y0039936D02*
X0054637Y0039936D01*
X0054637Y0038737D02*
X0052827Y0038737D01*
X0052922Y0037539D02*
X0054637Y0037539D01*
X0054637Y0036340D02*
X0052579Y0036340D01*
X0051623Y0035142D02*
X0054637Y0035142D01*
X0047477Y0035142D02*
X0028955Y0035142D01*
X0029603Y0041134D02*
X0048700Y0041134D01*
X0057013Y0042333D02*
X0028669Y0042333D01*
X0029868Y0043531D02*
X0057238Y0043531D01*
X0056410Y0044730D02*
X0031066Y0044730D01*
X0032265Y0045928D02*
X0056410Y0045928D01*
X0056410Y0047127D02*
X0033463Y0047127D01*
X0034662Y0048325D02*
X0056410Y0048325D01*
X0056410Y0049524D02*
X0035860Y0049524D01*
X0037059Y0050722D02*
X0049731Y0050722D01*
X0049731Y0051921D02*
X0038257Y0051921D01*
X0039456Y0053120D02*
X0049731Y0053120D01*
X0049383Y0054318D02*
X0040654Y0054318D01*
X0037112Y0056715D02*
X0029966Y0056715D01*
X0031119Y0057914D02*
X0038260Y0057914D01*
X0038260Y0059112D02*
X0031668Y0059112D01*
X0031826Y0060311D02*
X0038260Y0060311D01*
X0038479Y0061509D02*
X0031558Y0061509D01*
X0030910Y0062708D02*
X0057428Y0062708D01*
X0057593Y0063906D02*
X0029478Y0063906D01*
X0027402Y0065105D02*
X0058299Y0065105D01*
X0056696Y0066303D02*
X0025326Y0066303D01*
X0023150Y0067502D02*
X0047703Y0067502D01*
X0046504Y0068700D02*
X0024411Y0068700D01*
X0025724Y0069899D02*
X0045892Y0069899D01*
X0045500Y0071097D02*
X0027647Y0071097D01*
X0029570Y0072296D02*
X0045500Y0072296D01*
X0045724Y0073494D02*
X0031647Y0073494D01*
X0034883Y0074693D02*
X0046220Y0074693D01*
X0047296Y0075891D02*
X0038910Y0075891D01*
X0053897Y0067502D02*
X0054620Y0067502D01*
X0051871Y0061509D02*
X0057701Y0061509D01*
X0058558Y0060311D02*
X0052090Y0060311D01*
X0052090Y0059112D02*
X0074992Y0059112D01*
X0075657Y0057914D02*
X0052090Y0057914D01*
X0056353Y0056715D02*
X0056810Y0056715D01*
X0063540Y0056715D02*
X0063660Y0056715D01*
X0063042Y0060311D02*
X0074327Y0060311D01*
X0073662Y0061509D02*
X0063899Y0061509D01*
X0065150Y0062708D02*
X0072940Y0062708D01*
X0071911Y0063906D02*
X0065842Y0063906D01*
X0066534Y0065105D02*
X0070882Y0065105D01*
X0069854Y0066303D02*
X0067226Y0066303D01*
X0067877Y0067502D02*
X0068825Y0067502D01*
X0067940Y0056715D02*
X0076322Y0056715D01*
X0076713Y0055517D02*
X0068857Y0055517D01*
X0069172Y0054318D02*
X0077089Y0054318D01*
X0077465Y0053120D02*
X0069049Y0053120D01*
X0068402Y0051921D02*
X0077841Y0051921D01*
X0078217Y0050722D02*
X0066488Y0050722D01*
X0065112Y0050722D02*
X0063611Y0050722D01*
X0063940Y0049524D02*
X0071181Y0049524D01*
X0065819Y0048325D02*
X0063940Y0048325D01*
X0063940Y0047127D02*
X0064620Y0047127D01*
X0068141Y0044709D02*
X0071097Y0044709D01*
X0071097Y0044177D01*
X0071812Y0043462D01*
X0071097Y0042747D01*
X0071097Y0038500D01*
X0069841Y0037980D01*
X0069841Y0040266D01*
X0067289Y0042818D01*
X0066251Y0042818D01*
X0068141Y0044709D01*
X0066964Y0043531D02*
X0071743Y0043531D01*
X0071097Y0042333D02*
X0067774Y0042333D01*
X0068973Y0041134D02*
X0071097Y0041134D01*
X0071097Y0039936D02*
X0069841Y0039936D01*
X0069841Y0038737D02*
X0071097Y0038737D01*
X0064117Y0015966D02*
X0038558Y0015966D01*
X0037866Y0014767D02*
X0062077Y0014767D01*
X0059634Y0013569D02*
X0037174Y0013569D01*
X0036162Y0012370D02*
X0057008Y0012370D01*
X0052379Y0011172D02*
X0039473Y0011172D01*
X0036803Y0020760D02*
X0035372Y0020760D01*
X0036938Y0021958D02*
X0033240Y0021958D01*
X0031221Y0023157D02*
X0037601Y0023157D01*
X0028722Y0048325D02*
X0013163Y0048325D01*
X0013409Y0049524D02*
X0029921Y0049524D01*
X0031119Y0050722D02*
X0013656Y0050722D01*
X0013902Y0051921D02*
X0032318Y0051921D01*
X0033516Y0053120D02*
X0014148Y0053120D01*
X0014577Y0054318D02*
X0034715Y0054318D01*
X0035913Y0055517D02*
X0015091Y0055517D01*
X0015605Y0056715D02*
X0025184Y0056715D01*
X0023108Y0057914D02*
X0016119Y0057914D01*
X0016634Y0059112D02*
X0021032Y0059112D01*
X0019697Y0060311D02*
X0017319Y0060311D01*
X0018153Y0061509D02*
X0019100Y0061509D01*
D16*
X0030175Y0069400D03*
X0035175Y0067212D03*
X0040800Y0065025D03*
X0035175Y0062525D03*
X0035175Y0057837D03*
X0046425Y0065025D03*
X0052050Y0064400D03*
X0055487Y0059712D03*
X0060800Y0062837D03*
X0065800Y0054087D03*
X0069550Y0050650D03*
X0069550Y0043150D03*
X0052675Y0041900D03*
X0049550Y0037837D03*
X0051425Y0025962D03*
X0051425Y0020962D03*
X0045800Y0014087D03*
X0041425Y0014087D03*
X0040175Y0020962D03*
X0016738Y0040962D03*
X0016738Y0046275D03*
D17*
X0023612Y0024444D02*
X0028005Y0020052D01*
X0029068Y0020052D01*
X0034864Y0016705D02*
X0035918Y0016705D01*
X0040175Y0020962D01*
X0051425Y0020962D02*
X0058925Y0028462D01*
X0058925Y0038462D01*
X0067271Y0046809D01*
X0074863Y0046809D01*
X0074863Y0040116D02*
X0074863Y0035605D01*
X0072675Y0033417D01*
X0060175Y0042525D02*
X0056737Y0039087D01*
X0056737Y0031275D01*
X0051425Y0025962D01*
X0049550Y0037837D02*
X0026740Y0037837D01*
X0026115Y0038462D01*
X0026115Y0042749D01*
X0041829Y0058462D01*
X0048521Y0058462D02*
X0048521Y0058150D01*
X0053300Y0053371D01*
X0059862Y0053371D01*
X0060175Y0053684D01*
X0065396Y0053684D01*
X0065800Y0054087D01*
X0060175Y0046991D02*
X0060175Y0042525D01*
X0060800Y0062837D02*
X0063386Y0065423D01*
X0063386Y0066789D01*
X0057589Y0070135D02*
X0055825Y0071900D01*
X0050800Y0071900D01*
M02*
